<svg width="138" height="138" viewBox="0 0 138 138" fill="none" xmlns="http://www.w3.org/2000/svg">
<mask id="mask0_4378_2397" style="mask-type:luminance" maskUnits="userSpaceOnUse" x="0" y="0" width="138" height="139">
<path d="M4.75861 47.5864H0V52.345H4.75861V47.5864Z" fill="white"/>
<path d="M4.75861 57.1035H0V61.8621H4.75861V57.1035Z" fill="white"/>
<path d="M4.75861 61.8623H0V66.6209H4.75861V61.8623Z" fill="white"/>
<path d="M4.75861 71.3789H0V76.1375H4.75861V71.3789Z" fill="white"/>
<path d="M4.75861 76.1377H0V80.8963H4.75861V76.1377Z" fill="white"/>
<path d="M4.75861 90.4136H0V95.1722H4.75861V90.4136Z" fill="white"/>
<path d="M4.75861 95.1724H0V99.931H4.75861V95.1724Z" fill="white"/>
<path d="M9.51715 38.0688H4.75854V42.8275H9.51715V38.0688Z" fill="white"/>
<path d="M9.51715 42.8276H4.75854V47.5863H9.51715V42.8276Z" fill="white"/>
<path d="M9.51715 47.5864H4.75854V52.345H9.51715V47.5864Z" fill="white"/>
<path d="M9.51715 90.4136H4.75854V95.1722H9.51715V90.4136Z" fill="white"/>
<path d="M14.2758 42.8276H9.51721V47.5863H14.2758V42.8276Z" fill="white"/>
<path d="M14.2758 47.5864H9.51721V52.345H14.2758V47.5864Z" fill="white"/>
<path d="M14.2758 52.3447H9.51721V57.1033H14.2758V52.3447Z" fill="white"/>
<path d="M14.2758 61.8623H9.51721V66.6209H14.2758V61.8623Z" fill="white"/>
<path d="M14.2758 66.6211H9.51721V71.3797H14.2758V66.6211Z" fill="white"/>
<path d="M14.2758 71.3789H9.51721V76.1375H14.2758V71.3789Z" fill="white"/>
<path d="M14.2758 76.1377H9.51721V80.8963H14.2758V76.1377Z" fill="white"/>
<path d="M14.2758 90.4136H9.51721V95.1722H14.2758V90.4136Z" fill="white"/>
<path d="M19.0345 38.0688H14.2759V42.8275H19.0345V38.0688Z" fill="white"/>
<path d="M19.0345 42.8276H14.2759V47.5863H19.0345V42.8276Z" fill="white"/>
<path d="M19.0345 52.3447H14.2759V57.1033H19.0345V52.3447Z" fill="white"/>
<path d="M19.0345 57.1035H14.2759V61.8621H19.0345V57.1035Z" fill="white"/>
<path d="M19.0345 76.1377H14.2759V80.8963H19.0345V76.1377Z" fill="white"/>
<path d="M19.0345 80.8965H14.2759V85.6551H19.0345V80.8965Z" fill="white"/>
<path d="M19.0345 95.1724H14.2759V99.931H19.0345V95.1724Z" fill="white"/>
<path d="M23.793 38.0688H19.0344V42.8275H23.793V38.0688Z" fill="white"/>
<path d="M23.793 42.8276H19.0344V47.5863H23.793V42.8276Z" fill="white"/>
<path d="M23.793 52.3452H19.0344V57.1038H23.793V52.3452Z" fill="white"/>
<path d="M23.793 57.1035H19.0344V61.8621H23.793V57.1035Z" fill="white"/>
<path d="M23.793 61.8623H19.0344V66.6209H23.793V61.8623Z" fill="white"/>
<path d="M23.793 85.6548H19.0344V90.4134H23.793V85.6548Z" fill="white"/>
<path d="M23.793 90.4136H19.0344V95.1722H23.793V90.4136Z" fill="white"/>
<path d="M28.5515 47.5864H23.7928V52.345H28.5515V47.5864Z" fill="white"/>
<path d="M28.5515 52.3452H23.7928V57.1038H28.5515V52.3452Z" fill="white"/>
<path d="M28.5515 71.3789H23.7928V76.1375H28.5515V71.3789Z" fill="white"/>
<path d="M28.5515 76.1377H23.7928V80.8963H28.5515V76.1377Z" fill="white"/>
<path d="M28.5515 95.1724H23.7928V99.931H28.5515V95.1724Z" fill="white"/>
<path d="M33.3104 38.0688H28.5518V42.8275H33.3104V38.0688Z" fill="white"/>
<path d="M33.3104 47.5864H28.5518V52.345H33.3104V47.5864Z" fill="white"/>
<path d="M33.3104 57.1035H28.5518V61.8621H33.3104V57.1035Z" fill="white"/>
<path d="M33.3104 66.6211H28.5518V71.3797H33.3104V66.6211Z" fill="white"/>
<path d="M33.3104 76.1377H28.5518V80.8963H33.3104V76.1377Z" fill="white"/>
<path d="M33.3104 85.6553H28.5518V90.4139H33.3104V85.6553Z" fill="white"/>
<path d="M33.3104 95.1724H28.5518V99.931H33.3104V95.1724Z" fill="white"/>
<path d="M38.069 38.0688H33.3104V42.8275H38.069V38.0688Z" fill="white"/>
<path d="M38.069 42.8276H33.3104V47.5863H38.069V42.8276Z" fill="white"/>
<path d="M38.069 61.8623H33.3104V66.6209H38.069V61.8623Z" fill="white"/>
<path d="M38.069 80.8965H33.3104V85.6551H38.069V80.8965Z" fill="white"/>
<path d="M38.069 85.6553H33.3104V90.4139H38.069V85.6553Z" fill="white"/>
<path d="M38.069 90.4136H33.3104V95.1722H38.069V90.4136Z" fill="white"/>
<path d="M38.069 95.1724H33.3104V99.931H38.069V95.1724Z" fill="white"/>
<path d="M42.8278 4.75879H38.0692V9.51741H42.8278V4.75879Z" fill="white"/>
<path d="M42.8278 14.2759H38.0692V19.0345H42.8278V14.2759Z" fill="white"/>
<path d="M42.8278 19.0347H38.0692V23.7933H42.8278V19.0347Z" fill="white"/>
<path d="M42.8278 23.793H38.0692V28.5516H42.8278V23.793Z" fill="white"/>
<path d="M42.8278 28.5518H38.0692V33.3104H42.8278V28.5518Z" fill="white"/>
<path d="M42.8278 38.0688H38.0692V42.8275H42.8278V38.0688Z" fill="white"/>
<path d="M42.8278 66.6211H38.0692V71.3797H42.8278V66.6211Z" fill="white"/>
<path d="M42.8278 71.3789H38.0692V76.1375H42.8278V71.3789Z" fill="white"/>
<path d="M42.8278 76.1377H38.0692V80.8963H42.8278V76.1377Z" fill="white"/>
<path d="M42.8278 99.9312H38.0692V104.69H42.8278V99.9312Z" fill="white"/>
<path d="M42.8278 104.689H38.0692V109.448H42.8278V104.689Z" fill="white"/>
<path d="M42.8278 114.207H38.0692V118.966H42.8278V114.207Z" fill="white"/>
<path d="M42.8278 118.965H38.0692V123.724H42.8278V118.965Z" fill="white"/>
<path d="M42.8278 128.482H38.0692V133.241H42.8278V128.482Z" fill="white"/>
<path d="M47.5862 0H42.8276V4.75862H47.5862V0Z" fill="white"/>
<path d="M47.5862 4.75879H42.8276V9.51741H47.5862V4.75879Z" fill="white"/>
<path d="M47.5862 9.51758H42.8276V14.2762H47.5862V9.51758Z" fill="white"/>
<path d="M47.5862 14.2759H42.8276V19.0345H47.5862V14.2759Z" fill="white"/>
<path d="M47.5862 23.793H42.8276V28.5516H47.5862V23.793Z" fill="white"/>
<path d="M47.5862 71.3789H42.8276V76.1375H47.5862V71.3789Z" fill="white"/>
<path d="M47.5862 76.1377H42.8276V80.8963H47.5862V76.1377Z" fill="white"/>
<path d="M47.5862 85.6553H42.8276V90.4139H47.5862V85.6553Z" fill="white"/>
<path d="M47.5862 109.449H42.8276V114.207H47.5862V109.449Z" fill="white"/>
<path d="M47.5862 114.207H42.8276V118.966H47.5862V114.207Z" fill="white"/>
<path d="M47.5862 118.965H42.8276V123.724H47.5862V118.965Z" fill="white"/>
<path d="M47.5862 123.724H42.8276V128.482H47.5862V123.724Z" fill="white"/>
<path d="M47.5862 128.482H42.8276V133.241H47.5862V128.482Z" fill="white"/>
<path d="M52.3448 14.2759H47.5862V19.0345H52.3448V14.2759Z" fill="white"/>
<path d="M52.3448 19.0347H47.5862V23.7933H52.3448V19.0347Z" fill="white"/>
<path d="M52.3448 23.793H47.5862V28.5516H52.3448V23.793Z" fill="white"/>
<path d="M52.3448 28.5518H47.5862V33.3104H52.3448V28.5518Z" fill="white"/>
<path d="M52.3448 33.3105H47.5862V38.0692H52.3448V33.3105Z" fill="white"/>
<path d="M52.3448 38.0688H47.5862V42.8275H52.3448V38.0688Z" fill="white"/>
<path d="M52.3448 42.8276H47.5862V47.5863H52.3448V42.8276Z" fill="white"/>
<path d="M52.3448 47.5864H47.5862V52.345H52.3448V47.5864Z" fill="white"/>
<path d="M52.3448 61.8623H47.5862V66.6209H52.3448V61.8623Z" fill="white"/>
<path d="M52.3448 66.6211H47.5862V71.3797H52.3448V66.6211Z" fill="white"/>
<path d="M52.3448 71.3789H47.5862V76.1375H52.3448V71.3789Z" fill="white"/>
<path d="M52.3448 76.1377H47.5862V80.8963H52.3448V76.1377Z" fill="white"/>
<path d="M52.3448 80.8965H47.5862V85.6551H52.3448V80.8965Z" fill="white"/>
<path d="M52.3448 85.6548H47.5862V90.4134H52.3448V85.6548Z" fill="white"/>
<path d="M52.3448 90.4136H47.5862V95.1722H52.3448V90.4136Z" fill="white"/>
<path d="M52.3448 95.1724H47.5862V99.931H52.3448V95.1724Z" fill="white"/>
<path d="M52.3448 99.9312H47.5862V104.69H52.3448V99.9312Z" fill="white"/>
<path d="M52.3448 104.689H47.5862V109.448H52.3448V104.689Z" fill="white"/>
<path d="M52.3448 118.965H47.5862V123.724H52.3448V118.965Z" fill="white"/>
<path d="M52.3448 123.724H47.5862V128.483H52.3448V123.724Z" fill="white"/>
<path d="M57.1035 0H52.3448V4.75862H57.1035V0Z" fill="white"/>
<path d="M57.1035 14.2759H52.3448V19.0345H57.1035V14.2759Z" fill="white"/>
<path d="M57.1035 33.3105H52.3448V38.0692H57.1035V33.3105Z" fill="white"/>
<path d="M57.1035 38.0688H52.3448V42.8275H57.1035V38.0688Z" fill="white"/>
<path d="M57.1035 52.3447H52.3448V57.1033H57.1035V52.3447Z" fill="white"/>
<path d="M57.1035 66.6211H52.3448V71.3797H57.1035V66.6211Z" fill="white"/>
<path d="M57.1035 80.8965H52.3448V85.6551H57.1035V80.8965Z" fill="white"/>
<path d="M57.1035 90.4136H52.3448V95.1722H57.1035V90.4136Z" fill="white"/>
<path d="M57.1035 95.1724H52.3448V99.931H57.1035V95.1724Z" fill="white"/>
<path d="M57.1035 109.449H52.3448V114.207H57.1035V109.449Z" fill="white"/>
<path d="M57.1035 114.207H52.3448V118.966H57.1035V114.207Z" fill="white"/>
<path d="M57.1035 118.965H52.3448V123.724H57.1035V118.965Z" fill="white"/>
<path d="M57.1035 133.242H52.3448V138H57.1035V133.242Z" fill="white"/>
<path d="M61.861 0H57.1024V4.75862H61.861V0Z" fill="white"/>
<path d="M61.861 4.75879H57.1024V9.51741H61.861V4.75879Z" fill="white"/>
<path d="M61.861 9.51758H57.1024V14.2762H61.861V9.51758Z" fill="white"/>
<path d="M61.861 19.0347H57.1024V23.7933H61.861V19.0347Z" fill="white"/>
<path d="M61.861 28.5518H57.1024V33.3104H61.861V28.5518Z" fill="white"/>
<path d="M61.861 47.5864H57.1024V52.345H61.861V47.5864Z" fill="white"/>
<path d="M61.861 76.1377H57.1024V80.8963H61.861V76.1377Z" fill="white"/>
<path d="M61.861 99.9312H57.1024V104.69H61.861V99.9312Z" fill="white"/>
<path d="M61.861 104.689H57.1024V109.448H61.861V104.689Z" fill="white"/>
<path d="M61.861 128.482H57.1024V133.241H61.861V128.482Z" fill="white"/>
<path d="M66.6205 0H61.8619V4.75862H66.6205V0Z" fill="white"/>
<path d="M66.6205 4.75879H61.8619V9.51741H66.6205V4.75879Z" fill="white"/>
<path d="M66.6205 9.51758H61.8619V14.2762H66.6205V9.51758Z" fill="white"/>
<path d="M66.6205 33.3105H61.8619V38.0692H66.6205V33.3105Z" fill="white"/>
<path d="M66.6205 47.5864H61.8619V52.345H66.6205V47.5864Z" fill="white"/>
<path d="M66.6205 52.3452H61.8619V57.1038H66.6205V52.3452Z" fill="white"/>
<path d="M66.6205 61.8623H61.8619V66.6209H66.6205V61.8623Z" fill="white"/>
<path d="M66.6205 66.6211H61.8619V71.3797H66.6205V66.6211Z" fill="white"/>
<path d="M66.6205 71.3789H61.8619V76.1375H66.6205V71.3789Z" fill="white"/>
<path d="M66.6205 76.1377H61.8619V80.8963H66.6205V76.1377Z" fill="white"/>
<path d="M66.6205 85.6548H61.8619V90.4134H66.6205V85.6548Z" fill="white"/>
<path d="M66.6205 104.689H61.8619V109.448H66.6205V104.689Z" fill="white"/>
<path d="M66.6205 114.207H61.8619V118.966H66.6205V114.207Z" fill="white"/>
<path d="M66.6205 123.724H61.8619V128.483H66.6205V123.724Z" fill="white"/>
<path d="M66.6205 133.241H61.8619V138H66.6205V133.241Z" fill="white"/>
<path d="M71.3792 4.75879H66.6206V9.51741H71.3792V4.75879Z" fill="white"/>
<path d="M71.3792 28.5518H66.6206V33.3104H71.3792V28.5518Z" fill="white"/>
<path d="M71.3792 38.0688H66.6206V42.8275H71.3792V38.0688Z" fill="white"/>
<path d="M71.3792 57.1035H66.6206V61.8621H71.3792V57.1035Z" fill="white"/>
<path d="M71.3792 85.6548H66.6206V90.4134H71.3792V85.6548Z" fill="white"/>
<path d="M71.3792 90.4136H66.6206V95.1722H71.3792V90.4136Z" fill="white"/>
<path d="M71.3792 95.1724H66.6206V99.931H71.3792V95.1724Z" fill="white"/>
<path d="M71.3792 109.449H66.6206V114.207H71.3792V109.449Z" fill="white"/>
<path d="M71.3792 118.965H66.6206V123.724H71.3792V118.965Z" fill="white"/>
<path d="M71.3792 133.241H66.6206V138H71.3792V133.241Z" fill="white"/>
<path d="M76.1379 4.75879H71.3793V9.51741H76.1379V4.75879Z" fill="white"/>
<path d="M76.1379 19.0347H71.3793V23.7933H76.1379V19.0347Z" fill="white"/>
<path d="M76.1379 38.0688H71.3793V42.8275H76.1379V38.0688Z" fill="white"/>
<path d="M76.1379 42.8276H71.3793V47.5863H76.1379V42.8276Z" fill="white"/>
<path d="M76.1379 61.8623H71.3793V66.6209H76.1379V61.8623Z" fill="white"/>
<path d="M76.1379 71.3789H71.3793V76.1375H76.1379V71.3789Z" fill="white"/>
<path d="M76.1379 76.1377H71.3793V80.8963H76.1379V76.1377Z" fill="white"/>
<path d="M76.1379 99.9312H71.3793V104.69H76.1379V99.9312Z" fill="white"/>
<path d="M76.1379 114.207H71.3793V118.966H76.1379V114.207Z" fill="white"/>
<path d="M76.1379 118.965H71.3793V123.724H76.1379V118.965Z" fill="white"/>
<path d="M76.1379 123.724H71.3793V128.482H76.1379V123.724Z" fill="white"/>
<path d="M76.1379 128.482H71.3793V133.241H76.1379V128.482Z" fill="white"/>
<path d="M80.8965 0H76.1379V4.75862H80.8965V0Z" fill="white"/>
<path d="M80.8965 23.793H76.1379V28.5516H80.8965V23.793Z" fill="white"/>
<path d="M80.8965 28.5518H76.1379V33.3104H80.8965V28.5518Z" fill="white"/>
<path d="M80.8965 38.0688H76.1379V42.8275H80.8965V38.0688Z" fill="white"/>
<path d="M80.8965 47.5864H76.1379V52.345H80.8965V47.5864Z" fill="white"/>
<path d="M80.8965 61.8623H76.1379V66.6209H80.8965V61.8623Z" fill="white"/>
<path d="M80.8965 71.3789H76.1379V76.1375H80.8965V71.3789Z" fill="white"/>
<path d="M80.8965 80.8965H76.1379V85.6551H80.8965V80.8965Z" fill="white"/>
<path d="M80.8965 85.6553H76.1379V90.4139H80.8965V85.6553Z" fill="white"/>
<path d="M80.8965 90.4136H76.1379V95.1722H80.8965V90.4136Z" fill="white"/>
<path d="M80.8965 95.1724H76.1379V99.931H80.8965V95.1724Z" fill="white"/>
<path d="M80.8965 109.449H76.1379V114.207H80.8965V109.449Z" fill="white"/>
<path d="M80.8965 118.965H76.1379V123.724H80.8965V118.965Z" fill="white"/>
<path d="M80.8965 128.482H76.1379V133.241H80.8965V128.482Z" fill="white"/>
<path d="M80.8965 133.242H76.1379V138H80.8965V133.242Z" fill="white"/>
<path d="M85.6553 0H80.8967V4.75862H85.6553V0Z" fill="white"/>
<path d="M85.6553 9.51758H80.8967V14.2762H85.6553V9.51758Z" fill="white"/>
<path d="M85.6553 19.0347H80.8967V23.7933H85.6553V19.0347Z" fill="white"/>
<path d="M85.6553 23.793H80.8967V28.5516H85.6553V23.793Z" fill="white"/>
<path d="M85.6553 33.3105H80.8967V38.0692H85.6553V33.3105Z" fill="white"/>
<path d="M85.6553 38.0688H80.8967V42.8275H85.6553V38.0688Z" fill="white"/>
<path d="M85.6553 52.3447H80.8967V57.1033H85.6553V52.3447Z" fill="white"/>
<path d="M85.6553 61.8623H80.8967V66.6209H85.6553V61.8623Z" fill="white"/>
<path d="M85.6553 80.8965H80.8967V85.6551H85.6553V80.8965Z" fill="white"/>
<path d="M85.6553 114.207H80.8967V118.966H85.6553V114.207Z" fill="white"/>
<path d="M85.6553 118.965H80.8967V123.724H85.6553V118.965Z" fill="white"/>
<path d="M90.4138 0H85.6552V4.75862H90.4138V0Z" fill="white"/>
<path d="M90.4138 4.75879H85.6552V9.51741H90.4138V4.75879Z" fill="white"/>
<path d="M90.4138 9.51758H85.6552V14.2762H90.4138V9.51758Z" fill="white"/>
<path d="M90.4138 14.2759H85.6552V19.0345H90.4138V14.2759Z" fill="white"/>
<path d="M90.4138 19.0347H85.6552V23.7933H90.4138V19.0347Z" fill="white"/>
<path d="M90.4138 23.793H85.6552V28.5516H90.4138V23.793Z" fill="white"/>
<path d="M90.4138 28.5518H85.6552V33.3104H90.4138V28.5518Z" fill="white"/>
<path d="M90.4138 38.0688H85.6552V42.8275H90.4138V38.0688Z" fill="white"/>
<path d="M90.4138 42.8276H85.6552V47.5863H90.4138V42.8276Z" fill="white"/>
<path d="M90.4138 61.8623H85.6552V66.6209H90.4138V61.8623Z" fill="white"/>
<path d="M90.4138 76.1377H85.6552V80.8963H90.4138V76.1377Z" fill="white"/>
<path d="M90.4138 80.8965H85.6552V85.6551H90.4138V80.8965Z" fill="white"/>
<path d="M90.4138 85.6553H85.6552V90.4139H90.4138V85.6553Z" fill="white"/>
<path d="M90.4138 90.4136H85.6552V95.1722H90.4138V90.4136Z" fill="white"/>
<path d="M90.4138 109.449H85.6552V114.207H90.4138V109.449Z" fill="white"/>
<path d="M90.4138 118.965H85.6552V123.724H90.4138V118.965Z" fill="white"/>
<path d="M90.4138 123.724H85.6552V128.482H90.4138V123.724Z" fill="white"/>
<path d="M90.4138 133.242H85.6552V138H90.4138V133.242Z" fill="white"/>
<path d="M95.1724 0H90.4138V4.75862H95.1724V0Z" fill="white"/>
<path d="M95.1724 4.75879H90.4138V9.51741H95.1724V4.75879Z" fill="white"/>
<path d="M95.1724 9.51758H90.4138V14.2762H95.1724V9.51758Z" fill="white"/>
<path d="M95.1724 14.2759H90.4138V19.0345H95.1724V14.2759Z" fill="white"/>
<path d="M95.1724 33.3105H90.4138V38.0692H95.1724V33.3105Z" fill="white"/>
<path d="M95.1724 71.3789H90.4138V76.1375H95.1724V71.3789Z" fill="white"/>
<path d="M95.1724 76.1377H90.4138V80.8963H95.1724V76.1377Z" fill="white"/>
<path d="M95.1724 99.9312H90.4138V104.69H95.1724V99.9312Z" fill="white"/>
<path d="M95.1724 104.689H90.4138V109.448H95.1724V104.689Z" fill="white"/>
<path d="M95.1724 109.449H90.4138V114.207H95.1724V109.449Z" fill="white"/>
<path d="M95.1724 123.724H90.4138V128.482H95.1724V123.724Z" fill="white"/>
<path d="M95.1724 128.482H90.4138V133.241H95.1724V128.482Z" fill="white"/>
<path d="M99.931 0H95.1724V4.75862H99.931V0Z" fill="white"/>
<path d="M99.931 4.75879H95.1724V9.51741H99.931V4.75879Z" fill="white"/>
<path d="M99.931 19.0347H95.1724V23.7933H99.931V19.0347Z" fill="white"/>
<path d="M99.931 28.5518H95.1724V33.3104H99.931V28.5518Z" fill="white"/>
<path d="M99.931 42.8276H95.1724V47.5863H99.931V42.8276Z" fill="white"/>
<path d="M99.931 47.5864H95.1724V52.345H99.931V47.5864Z" fill="white"/>
<path d="M99.931 57.1035H95.1724V61.8621H99.931V57.1035Z" fill="white"/>
<path d="M99.931 61.8623H95.1724V66.6209H99.931V61.8623Z" fill="white"/>
<path d="M99.931 66.6211H95.1724V71.3797H99.931V66.6211Z" fill="white"/>
<path d="M99.931 80.8965H95.1724V85.6551H99.931V80.8965Z" fill="white"/>
<path d="M99.931 95.1724H95.1724V99.931H99.931V95.1724Z" fill="white"/>
<path d="M99.931 99.9312H95.1724V104.69H99.931V99.9312Z" fill="white"/>
<path d="M99.931 104.689H95.1724V109.448H99.931V104.689Z" fill="white"/>
<path d="M99.931 109.449H95.1724V114.207H99.931V109.449Z" fill="white"/>
<path d="M99.931 114.207H95.1724V118.966H99.931V114.207Z" fill="white"/>
<path d="M99.931 123.724H95.1724V128.482H99.931V123.724Z" fill="white"/>
<path d="M99.931 128.482H95.1724V133.241H99.931V128.482Z" fill="white"/>
<path d="M104.689 38.0688H99.9299V42.8275H104.689V38.0688Z" fill="white"/>
<path d="M104.689 42.8276H99.9299V47.5863H104.689V42.8276Z" fill="white"/>
<path d="M104.689 47.5864H99.9299V52.345H104.689V47.5864Z" fill="white"/>
<path d="M104.689 71.3789H99.9299V76.1375H104.689V71.3789Z" fill="white"/>
<path d="M104.689 80.8965H99.9299V85.6551H104.689V80.8965Z" fill="white"/>
<path d="M104.689 85.6553H99.9299V90.4139H104.689V85.6553Z" fill="white"/>
<path d="M104.689 95.1724H99.9299V99.931H104.689V95.1724Z" fill="white"/>
<path d="M104.689 114.207H99.9299V118.966H104.689V114.207Z" fill="white"/>
<path d="M104.689 118.965H99.9299V123.724H104.689V118.965Z" fill="white"/>
<path d="M104.689 123.724H99.9299V128.482H104.689V123.724Z" fill="white"/>
<path d="M109.448 42.8276H104.69V47.5863H109.448V42.8276Z" fill="white"/>
<path d="M109.448 61.8623H104.69V66.6209H109.448V61.8623Z" fill="white"/>
<path d="M109.448 71.3789H104.69V76.1375H109.448V71.3789Z" fill="white"/>
<path d="M109.448 76.1377H104.69V80.8963H109.448V76.1377Z" fill="white"/>
<path d="M109.448 90.4136H104.69V95.1722H109.448V90.4136Z" fill="white"/>
<path d="M109.448 95.1724H104.69V99.931H109.448V95.1724Z" fill="white"/>
<path d="M109.448 104.689H104.69V109.448H109.448V104.689Z" fill="white"/>
<path d="M109.448 114.207H104.69V118.966H109.448V114.207Z" fill="white"/>
<path d="M109.448 123.724H104.69V128.482H109.448V123.724Z" fill="white"/>
<path d="M114.207 38.0688H109.448V42.8275H114.207V38.0688Z" fill="white"/>
<path d="M114.207 47.5864H109.448V52.345H114.207V47.5864Z" fill="white"/>
<path d="M114.207 52.3447H109.448V57.1033H114.207V52.3447Z" fill="white"/>
<path d="M114.207 66.6211H109.448V71.3797H114.207V66.6211Z" fill="white"/>
<path d="M114.207 76.1377H109.448V80.8963H114.207V76.1377Z" fill="white"/>
<path d="M114.207 85.6553H109.448V90.4139H114.207V85.6553Z" fill="white"/>
<path d="M114.207 90.4136H109.448V95.1722H114.207V90.4136Z" fill="white"/>
<path d="M114.207 95.1724H109.448V99.931H114.207V95.1724Z" fill="white"/>
<path d="M114.207 114.207H109.448V118.966H114.207V114.207Z" fill="white"/>
<path d="M114.207 118.965H109.448V123.724H114.207V118.965Z" fill="white"/>
<path d="M118.965 38.0688H114.207V42.8275H118.965V38.0688Z" fill="white"/>
<path d="M118.965 42.8276H114.207V47.5863H118.965V42.8276Z" fill="white"/>
<path d="M118.965 47.5864H114.207V52.345H118.965V47.5864Z" fill="white"/>
<path d="M118.965 57.1035H114.207V61.8621H118.965V57.1035Z" fill="white"/>
<path d="M118.965 61.8623H114.207V66.6209H118.965V61.8623Z" fill="white"/>
<path d="M118.965 66.6211H114.207V71.3797H118.965V66.6211Z" fill="white"/>
<path d="M118.965 71.3789H114.207V76.1375H118.965V71.3789Z" fill="white"/>
<path d="M118.965 80.8965H114.207V85.6551H118.965V80.8965Z" fill="white"/>
<path d="M118.965 90.4136H114.207V95.1722H118.965V90.4136Z" fill="white"/>
<path d="M118.965 95.1724H114.207V99.931H118.965V95.1724Z" fill="white"/>
<path d="M118.965 99.9312H114.207V104.69H118.965V99.9312Z" fill="white"/>
<path d="M118.965 104.689H114.207V109.448H118.965V104.689Z" fill="white"/>
<path d="M118.965 109.449H114.207V114.207H118.965V109.449Z" fill="white"/>
<path d="M118.965 114.207H114.207V118.966H118.965V114.207Z" fill="white"/>
<path d="M118.965 128.482H114.207V133.241H118.965V128.482Z" fill="white"/>
<path d="M118.965 133.241H114.207V138H118.965V133.241Z" fill="white"/>
<path d="M123.724 38.0688H118.966V42.8275H123.724V38.0688Z" fill="white"/>
<path d="M123.724 42.8276H118.966V47.5863H123.724V42.8276Z" fill="white"/>
<path d="M123.724 52.3447H118.966V57.1033H123.724V52.3447Z" fill="white"/>
<path d="M123.724 57.1035H118.966V61.8621H123.724V57.1035Z" fill="white"/>
<path d="M123.724 61.8623H118.966V66.6209H123.724V61.8623Z" fill="white"/>
<path d="M123.724 66.6211H118.966V71.3797H123.724V66.6211Z" fill="white"/>
<path d="M123.724 80.8965H118.966V85.6551H123.724V80.8965Z" fill="white"/>
<path d="M123.724 85.6553H118.966V90.4139H123.724V85.6553Z" fill="white"/>
<path d="M123.724 109.449H118.966V114.207H123.724V109.449Z" fill="white"/>
<path d="M123.724 118.965H118.966V123.724H123.724V118.965Z" fill="white"/>
<path d="M123.724 123.724H118.966V128.482H123.724V123.724Z" fill="white"/>
<path d="M123.724 128.482H118.966V133.241H123.724V128.482Z" fill="white"/>
<path d="M128.482 52.3447H123.723V57.1033H128.482V52.3447Z" fill="white"/>
<path d="M128.482 61.8623H123.723V66.6209H128.482V61.8623Z" fill="white"/>
<path d="M128.482 66.6211H123.723V71.3797H128.482V66.6211Z" fill="white"/>
<path d="M128.482 71.3789H123.723V76.1375H128.482V71.3789Z" fill="white"/>
<path d="M128.482 95.1724H123.723V99.931H128.482V95.1724Z" fill="white"/>
<path d="M128.482 99.9312H123.723V104.69H128.482V99.9312Z" fill="white"/>
<path d="M128.482 109.449H123.723V114.207H128.482V109.449Z" fill="white"/>
<path d="M128.482 114.207H123.723V118.966H128.482V114.207Z" fill="white"/>
<path d="M128.482 123.724H123.723V128.482H128.482V123.724Z" fill="white"/>
<path d="M128.482 128.482H123.723V133.241H128.482V128.482Z" fill="white"/>
<path d="M128.482 133.242H123.723V138H128.482V133.242Z" fill="white"/>
<path d="M133.24 38.0688H128.482V42.8275H133.24V38.0688Z" fill="white"/>
<path d="M133.24 57.1035H128.482V61.8621H133.24V57.1035Z" fill="white"/>
<path d="M133.24 66.6211H128.482V71.3797H133.24V66.6211Z" fill="white"/>
<path d="M133.24 76.1377H128.482V80.8963H133.24V76.1377Z" fill="white"/>
<path d="M133.24 99.9312H128.482V104.69H133.24V99.9312Z" fill="white"/>
<path d="M133.24 114.207H128.482V118.966H133.24V114.207Z" fill="white"/>
<path d="M133.24 123.724H128.482V128.482H133.24V123.724Z" fill="white"/>
<path d="M133.24 133.242H128.482V138H133.24V133.242Z" fill="white"/>
<path d="M138 42.8276H133.241V47.5863H138V42.8276Z" fill="white"/>
<path d="M138 52.3447H133.241V57.1033H138V52.3447Z" fill="white"/>
<path d="M138 66.6211H133.241V71.3797H138V66.6211Z" fill="white"/>
<path d="M138 71.3789H133.241V76.1375H138V71.3789Z" fill="white"/>
<path d="M138 95.1724H133.241V99.931H138V95.1724Z" fill="white"/>
<path d="M138 109.449H133.241V114.207H138V109.449Z" fill="white"/>
<path d="M138 114.207H133.241V118.966H138V114.207Z" fill="white"/>
<path fill-rule="evenodd" clip-rule="evenodd" d="M0 11.8966V21.4138C0 24.569 1.25338 27.5949 3.48441 29.8259C4.5891 30.9306 5.90056 31.8069 7.34391 32.4048C8.78727 33.0026 10.3342 33.3103 11.8965 33.3103H21.4137C24.5689 33.3103 27.5948 32.057 29.8258 29.8259C32.0569 27.5949 33.3102 24.569 33.3102 21.4138V11.8966C33.3102 10.3343 33.0025 8.7873 32.4047 7.34394C31.8068 5.90058 30.9305 4.58912 29.8258 3.48442C28.7211 2.37972 27.4097 1.50343 25.9663 0.905571C24.523 0.307713 22.976 0 21.4137 0H11.8965C10.3342 0 8.78727 0.307713 7.34391 0.905571C5.90056 1.50343 4.5891 2.37972 3.48441 3.48442C1.25338 5.71546 0 8.74139 0 11.8966ZM11.8965 4.75862H21.4137C23.3068 4.75862 25.1224 5.51065 26.461 6.84927C27.7996 8.1879 28.5516 10.0035 28.5516 11.8966V21.4138C28.5516 23.3069 27.7996 25.1225 26.461 26.4611C25.1224 27.7997 23.3068 28.5517 21.4137 28.5517H11.8965C10.0034 28.5517 8.18787 27.7997 6.84925 26.4611C5.51063 25.1225 4.75861 23.3069 4.75861 21.4138V11.8966C4.75861 10.0035 5.51063 8.1879 6.84925 6.84927C8.18787 5.51065 10.0034 4.75862 11.8965 4.75862Z" fill="white"/>
<path d="M16.6551 23.7934C20.5973 23.7934 23.793 20.5977 23.793 16.6555C23.793 12.7133 20.5973 9.51758 16.6551 9.51758C12.713 9.51758 9.51721 12.7133 9.51721 16.6555C9.51721 20.5977 12.713 23.7934 16.6551 23.7934Z" fill="white"/>
<path fill-rule="evenodd" clip-rule="evenodd" d="M126.103 0L116.586 0C113.431 0 110.405 1.25338 108.174 3.48442C105.943 5.71546 104.69 8.74139 104.69 11.8966V21.4138C104.69 24.569 105.943 27.5949 108.174 29.8259C110.405 32.057 113.431 33.3103 116.586 33.3103H126.103C127.666 33.3103 129.213 33.0026 130.656 32.4048C132.099 31.8069 133.411 30.9306 134.516 29.8259C135.62 28.7212 136.497 27.4098 137.094 25.9664C137.692 24.5231 138 22.9761 138 21.4138V11.8966C138 8.74139 136.747 5.71546 134.516 3.48442C132.285 1.25338 129.259 0 126.103 0ZM133.241 11.8966V21.4138C133.241 23.3069 132.489 25.1224 131.151 26.4611C129.812 27.7997 127.997 28.5517 126.103 28.5517H116.586C114.693 28.5517 112.878 27.7997 111.539 26.4611C110.2 25.1224 109.448 23.3069 109.448 21.4138V11.8966C109.448 10.0035 110.2 8.1879 111.539 6.84928C112.878 5.51065 114.693 4.75862 116.586 4.75862H126.103C127.997 4.75862 129.812 5.51065 131.151 6.84928C132.489 8.1879 133.241 10.0035 133.241 11.8966Z" fill="white"/>
<path d="M114.206 16.6555C114.206 20.5977 117.402 23.7934 121.344 23.7934C125.286 23.7934 128.482 20.5977 128.482 16.6555C128.482 12.7133 125.286 9.51758 121.344 9.51758C117.402 9.51758 114.206 12.7133 114.206 16.6555Z" fill="white"/>
<path fill-rule="evenodd" clip-rule="evenodd" d="M11.8965 138H21.4137C24.5689 138 27.5948 136.747 29.8258 134.516C30.9305 133.411 31.8068 132.099 32.4047 130.656C33.0025 129.213 33.3102 127.666 33.3102 126.103V116.586C33.3102 113.431 32.0569 110.405 29.8258 108.174C27.5948 105.943 24.5689 104.69 21.4137 104.69H11.8965C8.74136 104.69 5.71544 105.943 3.48441 108.174C1.25338 110.405 0 113.431 0 116.586L0 126.103C0 127.666 0.307716 129.213 0.905572 130.656C1.50343 132.099 2.37971 133.411 3.48441 134.516C5.71544 136.747 8.74136 138 11.8965 138ZM4.75861 126.103V116.586C4.75861 114.693 5.51064 112.878 6.84925 111.539C8.18787 110.2 10.0034 109.448 11.8965 109.448H21.4137C23.3068 109.448 25.1224 110.2 26.461 111.539C27.7996 112.878 28.5516 114.693 28.5516 116.586V126.103C28.5516 127.997 27.7996 129.812 26.461 131.151C25.1224 132.489 23.3068 133.241 21.4137 133.241H11.8965C10.0034 133.241 8.18787 132.489 6.84925 131.151C5.51064 129.812 4.75861 127.997 4.75861 126.103Z" fill="white"/>
<path d="M23.793 121.344C23.793 117.402 20.5973 114.207 16.6551 114.207C12.713 114.207 9.51721 117.402 9.51721 121.344C9.51721 125.287 12.713 128.482 16.6551 128.482C20.5973 128.482 23.793 125.287 23.793 121.344Z" fill="white"/>
</mask>
<g mask="url(#mask0_4378_2397)">
<path d="M143.353 -5.35352H-5.35303V143.353H143.353V-5.35352Z" fill="#0F3D62"/>
</g>
</svg>
