<svg width="138" height="58" viewBox="0 0 138 58" fill="none" xmlns="http://www.w3.org/2000/svg">
<mask id="mask0_4378_3644" style="mask-type:luminance" maskUnits="userSpaceOnUse" x="0" y="0" width="137" height="58">
<path d="M136.85 0H0.289062V58H136.85V0Z" fill="white"/>
</mask>
<g mask="url(#mask0_4378_3644)">
<path d="M50.844 22.8538V36.7278H48.8V24.8884L50.844 22.8538Z" fill="#044B85"/>
<path d="M104.275 23.8936V36.7287H102.23V26.4238L99.0655 36.7287H96.8141L93.6499 26.3113V36.7287H91.6061V23.8936H94.6284L97.9398 34.5647L101.251 23.8936H104.275Z" fill="#044B85"/>
<path d="M77.9101 22.8538V36.7278H75.865V31.0403H70.5342V36.7278H68.4902V23.8995H70.5342V29.1961H75.865V24.9139L77.9101 22.8538Z" fill="#044B85"/>
<path d="M119.881 34.9063H125.571V36.7271H117.835V23.8943H125.93L124.108 25.7285H119.881V29.1587H125.004V30.9894H119.881V34.9063Z" fill="#044B85"/>
<path d="M39.9443 31.696L41.9158 25.7222L43.8879 31.696H39.9443ZM45.5503 36.7275H47.712L43.0508 23.8936H40.7816L36.1217 36.7275H38.2821L39.339 33.5258H44.4929L45.5503 36.7275Z" fill="#044B85"/>
<path d="M82.7655 31.6958L84.7371 25.7219L86.7096 31.6958H82.7655ZM88.3708 36.7273H90.5331L85.8717 23.8933H83.6024L78.9432 36.7273H81.1032L82.1608 33.5255H87.3143L88.3708 36.7273Z" fill="#044B85"/>
<path d="M23.7941 22.854V31.4938C23.7941 34.4963 22.5121 36.9274 18.4768 36.9419V36.9441C18.4716 36.9441 18.4636 36.9419 18.4583 36.9419C18.4509 36.9419 18.4461 36.9441 18.4397 36.9441V36.9419C14.4052 36.9274 13.1231 34.4963 13.1345 31.4938V23.8829H15.1789V31.4236C15.1789 33.631 16.1511 35.091 18.4583 35.0966C20.766 35.091 21.751 33.631 21.751 31.4236V24.8965L23.7941 22.854Z" fill="#044B85"/>
<path d="M59.2557 30.3087C59.2557 29.2341 59.5882 25.7293 63.8646 25.7293H65.7412L67.1202 23.8918H63.4729C59.5491 23.8918 57.2178 26.4109 57.2178 30.3087C57.2178 34.2066 59.5491 36.7256 63.4729 36.7256H66.6616V34.8882H63.8646C59.5882 34.8882 59.2557 31.3834 59.2557 30.3087Z" fill="#044B85"/>
<path d="M31.7555 34.8973H28.2616V30.9884H31.7555C32.8473 30.9884 33.5306 31.8559 33.5306 32.9384C33.5306 34.022 32.8473 34.8973 31.7555 34.8973ZM31.433 25.7229C32.3861 25.7229 32.9549 26.4857 32.9549 27.4313C32.9549 28.3757 32.3861 29.1587 31.433 29.1587H28.2616V25.7229H31.433ZM35.5742 32.9384C35.5742 31.6856 34.9578 30.574 34.01 29.8858C34.6236 29.2455 35.0011 28.3802 35.0011 27.4313C35.0011 25.4802 33.5306 23.8943 31.433 23.8943H26.2155V36.7271H31.7991C33.8853 36.7016 35.5742 35.012 35.5742 32.9384Z" fill="#044B85"/>
<path d="M112.251 34.8976H108.757V30.9897H112.251C113.344 30.9897 114.025 31.8562 114.025 32.9398C114.025 34.0222 113.344 34.8976 112.251 34.8976ZM111.929 25.7231C112.883 25.7231 113.453 26.4871 113.453 27.4315C113.453 28.3771 112.883 29.1589 111.929 29.1589H108.757V25.7231H111.929ZM116.07 32.9398C116.07 31.6858 115.453 30.5754 114.507 29.8861C115.12 29.2458 115.495 28.3804 115.495 27.4315C115.495 25.4816 114.025 23.8945 111.929 23.8945H106.714V36.7273H112.296C114.381 36.7018 116.07 35.0134 116.07 32.9398Z" fill="#044B85"/>
<path d="M129.354 25.7215H132.527C133.478 25.7215 134.05 26.4855 134.05 27.4298C134.05 28.3754 133.478 29.1572 132.527 29.1572H129.354V25.7215ZM136.677 36.7256L133.668 30.7976C135.174 30.3922 136.094 28.9835 136.094 27.4298C136.094 25.4799 134.492 23.8918 132.527 23.8918C132.518 23.8918 132.507 23.8929 132.497 23.8929L127.311 23.8918V36.7256H129.354V30.988H131.685L134.436 36.7256H136.677Z" fill="#044B85"/>
<path d="M7.31704 24.1763L5.72115 25.7688C8.83806 26.3758 9.32618 29.2991 9.32618 30.2658C9.32618 31.3461 8.77447 34.8854 4.49991 34.8931H0.289062V36.7252H4.91048C8.83461 36.7207 11.3706 34.1871 11.3706 30.2658C11.3706 27.2188 9.84084 25.0115 7.31704 24.1763Z" fill="#044B85"/>
<path d="M2.14168 25.743H3.97654L5.82915 23.8943H0.289062V29.4237L2.14168 27.575V25.743Z" fill="#D7282F"/>
<path d="M100.679 10.5832H97.7825C96.3678 10.5832 95.425 9.43166 95.425 8.01954C95.425 6.60851 96.3678 5.54607 97.7825 5.54607H100.679V10.5832ZM73.698 11.4407L73.6947 11.4775C73.6947 11.4775 73.6958 11.4886 73.6968 11.5042C73.1445 11.9074 72.464 12.1479 71.7266 12.1479C69.8857 12.1479 68.5926 10.6634 68.5926 8.83918C68.5926 7.01721 69.8857 5.53715 71.7266 5.53715H73.698V11.4407ZM97.7825 3.70068C95.3559 3.70068 93.38 5.59618 93.38 8.01954C93.38 10.444 95.3559 12.4174 97.7825 12.4174H100.674C100.674 13.9231 99.2363 14.696 98.0993 14.7071H78.3081C78.2957 14.7071 78.2824 14.7038 78.2712 14.7038C77.025 14.676 75.7453 13.775 75.7442 12.3005V3.70851H71.7266C68.8715 3.70851 66.5486 6.01045 66.5486 8.83918C66.5486 11.6679 68.8715 13.9688 71.7266 13.9688C72.4952 13.9688 73.2227 13.7995 73.8787 13.5021C74.441 15.2072 75.733 16.1526 77.1086 16.4334C77.3976 16.5024 77.6943 16.538 77.999 16.538H98.3537C100.408 16.538 102.724 15.4733 102.724 12.0432V3.70068H97.7825Z" fill="#044B85"/>
<path d="M14.6378 18.155H12.559V20.231H14.6378V18.155Z" fill="#044B85"/>
<path d="M45.0558 18.155H42.9769V20.231H45.0558V18.155Z" fill="#044B85"/>
<path d="M102.725 0.0012207H100.645V2.07598H102.725V0.0012207Z" fill="#044B85"/>
<path d="M128.407 10.1949C128.407 9.11574 128.739 5.5754 133.013 5.5754H134.42L136.278 3.72782H132.623C128.7 3.72782 126.165 6.27477 126.165 10.1949C126.165 12.097 126.763 13.5648 127.825 14.7041H109.505V2.65869L107.46 4.69783V14.713C107.46 16.6909 106.31 18.3948 103.548 18.3948V20.2279C106.238 20.2279 108.572 18.9873 109.344 16.5394H136.669V14.7041H132.586C128.717 14.4758 128.407 11.2384 128.407 10.1949Z" fill="#044B85"/>
<path d="M43.0214 4.68226V11.6193C43.0214 14.0961 40.899 14.703 39.64 14.703H26.3109V3.71671H23.4096C20.9814 3.71671 19.0058 5.68679 19.0058 8.11125C19.0058 8.13799 19.0071 8.16359 19.0078 9.56126L19.0091 14.703H6.62679C4.76103 14.703 2.33786 14.3133 2.33786 10.9834V5.54867L0.293457 7.58558V11.2552C0.293457 15.995 3.79306 16.5339 6.34353 16.5339H21.0449L21.0501 8.11125C21.0501 6.69912 21.9955 5.55867 23.4096 5.55867H24.2547L24.2722 5.55758V16.5373H39.5462C41.0608 16.5373 45.0541 16.1575 45.0541 11.3798V2.66089L43.0214 4.68226Z" fill="#044B85"/>
<path d="M11.5241 18.155H9.44519V20.231H11.5241V18.155Z" fill="#044B85"/>
<path d="M134.662 0.0012207H132.584V2.07598H134.662V0.0012207Z" fill="#044B85"/>
<path d="M55.8238 3.99414L54.2282 5.58782C57.3448 6.19366 57.8325 9.11701 57.8325 10.0837C57.8325 11.1639 57.281 14.7032 53.0067 14.7111H48.7958V16.5452H53.4172C57.3407 16.5385 59.8773 14.006 59.8773 10.0837C59.8773 7.03666 58.3477 4.8294 55.8238 3.99414Z" fill="#044B85"/>
<path d="M50.6485 5.56038H52.4831L54.3358 3.71167H48.7958V9.24219L50.6485 7.39239V5.56038Z" fill="#D7282F"/>
<path d="M75.7678 0.0012207H73.6892V2.07598H75.7678V0.0012207Z" fill="#044B85"/>
<path d="M72.6539 0.0012207H70.5754V2.07598H72.6539V0.0012207Z" fill="#044B85"/>
<path d="M46.5032 50.984C46.4522 50.7879 46.3825 50.6086 46.2944 50.4449C46.206 50.2812 46.0927 50.1386 45.9526 50.0184C45.814 49.8992 45.6515 49.8067 45.4645 49.74C45.278 49.6732 45.0623 49.6408 44.8156 49.6408C44.4561 49.6408 44.1445 49.7122 43.8829 49.8581C43.6198 50.0028 43.4062 50.1977 43.2423 50.4394C43.0784 50.6833 42.9564 50.9583 42.8775 51.2679C42.7992 51.5776 42.7594 51.8915 42.7594 52.2146C42.7594 52.5353 42.7992 52.8504 42.8775 53.16C42.9564 53.4686 43.0784 53.7448 43.2423 53.9875C43.4062 54.2314 43.6198 54.4251 43.8829 54.5688C44.1445 54.7137 44.4561 54.786 44.8156 54.786C45.081 54.786 45.3151 54.7425 45.5168 54.649C45.719 54.5577 45.8931 54.4318 46.0377 54.2714C46.184 54.11 46.297 53.9228 46.3793 53.708C46.4622 53.4941 46.5158 53.2647 46.5411 53.0175H47.6972C47.672 53.4217 47.5844 53.7905 47.4371 54.1245C47.288 54.4598 47.0876 54.747 46.8348 54.9909C46.582 55.2326 46.2844 55.4197 45.944 55.5534C45.602 55.6859 45.2259 55.7516 44.8156 55.7516C44.3097 55.7516 43.8573 55.6592 43.4558 55.472C43.0546 55.2871 42.715 55.0321 42.4365 54.7114C42.1585 54.3896 41.9463 54.0142 41.7977 53.5856C41.6491 53.1568 41.5741 52.7001 41.5741 52.2146C41.5741 51.7345 41.6491 51.2802 41.7977 50.8526C41.9463 50.4215 42.1585 50.0473 42.4365 49.7255C42.715 49.4048 43.0546 49.1486 43.4558 48.9593C43.8573 48.77 44.3097 48.6753 44.8156 48.6753C45.1952 48.6753 45.5526 48.7276 45.8868 48.8312C46.2221 48.9347 46.5167 49.0874 46.7738 49.2856C47.0287 49.4838 47.2362 49.7255 47.3935 50.0094C47.5512 50.2935 47.6493 50.6186 47.6872 50.984H46.5032Z" fill="#D7282F"/>
<path d="M51.6581 49.6408C51.2985 49.6408 50.9874 49.7132 50.7255 49.8591C50.4627 50.0028 50.249 50.1977 50.0847 50.4394C49.9213 50.6833 49.7993 50.9583 49.7204 51.2679C49.6402 51.5776 49.6023 51.8927 49.6023 52.2146C49.6023 52.5353 49.6402 52.8504 49.7204 53.1612C49.7993 53.4686 49.9213 53.7458 50.0847 53.9875C50.249 54.2314 50.4627 54.4251 50.7255 54.57C50.9874 54.7147 51.2985 54.7882 51.6581 54.7882C52.0177 54.7882 52.3293 54.7147 52.5921 54.57C52.8536 54.4251 53.0671 54.2314 53.2313 53.9875C53.3948 53.7458 53.5168 53.4686 53.5962 53.1612C53.6759 52.8504 53.7151 52.5353 53.7151 52.2146C53.7151 51.8927 53.6759 51.5776 53.5962 51.2679C53.5168 50.9583 53.3948 50.6833 53.2313 50.4394C53.0671 50.1977 52.8536 50.0028 52.5921 49.8591C52.3293 49.7132 52.0177 49.6408 51.6581 49.6408ZM51.6581 48.6753C52.164 48.6753 52.6174 48.77 53.0177 48.9593C53.4192 49.1486 53.7583 49.4048 54.0367 49.7255C54.3148 50.0484 54.5283 50.4227 54.6773 50.8526C54.8248 51.2814 54.8997 51.7345 54.8997 52.2146C54.8997 52.7001 54.8248 53.1568 54.6773 53.5856C54.5283 54.0154 54.3148 54.3896 54.0367 54.7114C53.7583 55.0344 53.4192 55.2872 53.0177 55.4732C52.6174 55.6591 52.164 55.7516 51.6581 55.7516C51.1525 55.7516 50.6989 55.6591 50.2982 55.4732C49.897 55.2872 49.5578 55.0344 49.2794 54.7114C49.0009 54.3896 48.7878 54.0154 48.6405 53.5856C48.4915 53.1568 48.4165 52.7001 48.4165 52.2146C48.4165 51.7345 48.4915 51.2814 48.6405 50.8526C48.7878 50.4227 49.0009 50.0484 49.2794 49.7255C49.5578 49.4048 49.897 49.1486 50.2982 48.9593C50.6989 48.77 51.1525 48.6753 51.6581 48.6753Z" fill="#D7282F"/>
<path d="M55.9604 48.8357H57.6288L59.4956 54.1234H59.5146L61.3343 48.8357H62.9832V55.5912H61.8552V50.3781H61.8352L59.9608 55.5912H58.9835L57.1067 50.3781H57.0889V55.5912H55.9604V48.8357Z" fill="#D7282F"/>
<path d="M64.387 48.8357H66.055L67.9227 54.1234H67.9417L69.7613 48.8357H71.4103V55.5912H70.2812V50.3781H70.2623L68.3879 55.5912H67.4106L65.534 50.3781H65.5161V55.5912H64.387V48.8357Z" fill="#D7282F"/>
<path d="M72.8311 48.8357H77.7022V49.8569H74.0148V51.6255H77.4266V52.591H74.0148V54.5678H77.768V55.5901H72.8311V48.8357Z" fill="#D7282F"/>
<path d="M79.9854 51.9118H81.9289C82.3071 51.9118 82.5961 51.8204 82.7913 51.6411C82.9877 51.4617 83.0859 51.1923 83.0859 50.8326C83.0859 50.6188 83.0535 50.444 82.9899 50.3081C82.9274 50.1722 82.8392 50.0652 82.7288 49.9907C82.6184 49.9148 82.4934 49.8637 82.3506 49.8392C82.2089 49.8146 82.0605 49.8025 81.9098 49.8025H79.9854V51.9118ZM78.8016 48.8369H82.0337C82.7791 48.8369 83.3379 48.9973 83.7107 49.319C84.0833 49.6409 84.2696 50.0887 84.2696 50.6633C84.2696 50.9841 84.2227 51.2501 84.1268 51.4618C84.033 51.6734 83.9226 51.8438 83.7953 51.9718C83.6694 52.101 83.5455 52.1945 83.4216 52.2525C83.299 52.3082 83.2085 52.3461 83.1517 52.3661V52.3839C83.2532 52.3972 83.3603 52.4284 83.4774 52.4798C83.5946 52.5288 83.704 52.61 83.8055 52.7203C83.9059 52.8305 83.9896 52.9742 84.0554 53.1501C84.1235 53.3261 84.1557 53.5477 84.1557 53.8127C84.1557 54.2103 84.1848 54.5712 84.2461 54.8953C84.3064 55.2204 84.3991 55.4521 84.5262 55.5901H83.2554C83.1672 55.4466 83.1148 55.2851 83.0992 55.109C83.0836 54.932 83.0747 54.7628 83.0747 54.5979C83.0747 54.2894 83.0568 54.0233 83.0189 53.7982C82.981 53.5755 82.9107 53.3885 82.8103 53.2403C82.7088 53.0922 82.5715 52.983 82.3975 52.914C82.2235 52.845 82.0013 52.8105 81.7291 52.8105H79.9854V55.5901H78.8016V48.8369Z" fill="#D7282F"/>
<path d="M90.0432 50.984C89.9931 50.7879 89.9228 50.6086 89.8346 50.4449C89.7464 50.2812 89.6327 50.1386 89.4932 50.0184C89.3548 49.8992 89.192 49.8067 89.0046 49.74C88.8182 49.6732 88.6029 49.6408 88.3563 49.6408C87.997 49.6408 87.6847 49.7122 87.4235 49.8581C87.1603 50.0028 86.946 50.1977 86.7832 50.4394C86.6192 50.6833 86.4965 50.9583 86.4183 51.2679C86.3391 51.5776 86.3001 51.8915 86.3001 52.2146C86.3001 52.5353 86.3391 52.8504 86.4183 53.16C86.4965 53.4686 86.6192 53.7448 86.7832 53.9875C86.946 54.2314 87.1603 54.4251 87.4235 54.5688C87.6847 54.7137 87.997 54.786 88.3563 54.786C88.6218 54.786 88.855 54.7425 89.057 54.649C89.2599 54.5577 89.433 54.4318 89.5779 54.2714C89.7242 54.11 89.8379 53.9228 89.9194 53.708C90.0031 53.4941 90.0566 53.2647 90.0811 53.0175H91.2381C91.2124 53.4217 91.1244 53.7905 90.9771 54.1245C90.8286 54.4598 90.6279 54.747 90.3757 54.9909C90.1224 55.2326 89.8246 55.4197 89.4842 55.5534C89.1417 55.6859 88.7679 55.7516 88.3563 55.7516C87.8497 55.7516 87.398 55.6592 86.9963 55.472C86.5947 55.2871 86.2555 55.0321 85.9766 54.7114C85.6987 54.3896 85.4867 54.0142 85.3384 53.5856C85.1888 53.1568 85.1141 52.7001 85.1141 52.2146C85.1141 51.7345 85.1888 51.2802 85.3384 50.8526C85.4867 50.4215 85.6987 50.0473 85.9766 49.7255C86.2555 49.4048 86.5947 49.1486 86.9963 48.9593C87.398 48.77 87.8497 48.6753 88.3563 48.6753C88.7357 48.6753 89.0926 48.7276 89.4273 48.8312C89.7621 48.9347 90.0566 49.0874 90.3144 49.2856C90.5688 49.4838 90.7762 49.7255 90.9335 50.0094C91.092 50.2935 91.1902 50.6186 91.2281 50.984H90.0432Z" fill="#D7282F"/>
<path d="M92.3182 48.8357H97.1904V49.8569H93.503V51.6265H96.9148V52.5921H93.503V54.5689H97.2563V55.5912H92.3182V48.8357Z" fill="#D7282F"/>
<path d="M106.311 48.3027C106.311 48.6479 106.015 48.943 105.682 48.943C105.337 48.943 105.04 48.6479 105.04 48.3027C105.04 47.9575 105.337 47.6746 105.682 47.6746C106.015 47.6746 106.311 47.9575 106.311 48.3027ZM106.212 52.7707C106.212 51.5646 105.756 50.961 104.856 50.961C103.968 50.961 103.524 51.5646 103.524 52.7707C103.524 53.9902 103.968 54.605 104.856 54.605C105.756 54.605 106.212 53.9902 106.212 52.7707ZM104.658 48.3027C104.658 48.6479 104.362 48.943 104.005 48.943C103.659 48.943 103.376 48.6479 103.376 48.3027C103.376 47.9575 103.659 47.6746 104.005 47.6746C104.362 47.6746 104.658 47.9575 104.658 48.3027ZM107.36 52.7707C107.36 53.5714 107.187 54.2119 106.841 54.6907C106.41 55.2955 105.743 55.5905 104.856 55.5905C103.968 55.5905 103.315 55.2955 102.883 54.6907C102.525 54.2119 102.353 53.5714 102.353 52.7707C102.353 51.9834 102.525 51.3431 102.883 50.863C103.315 50.2717 103.968 49.9766 104.856 49.9766C105.743 49.9766 106.41 50.2717 106.841 50.863C107.187 51.3431 107.36 51.9834 107.36 52.7707Z" fill="#D7282F"/>
<path d="M112.154 55.2226C112.154 56.0468 111.907 56.6994 111.402 57.205C110.909 57.7095 110.231 57.9555 109.379 57.9555C108.848 57.9555 108.418 57.8442 108.059 57.6238L107.505 56.4655C108.059 56.7741 108.676 56.9333 109.379 56.9333C110.379 56.9333 110.983 56.293 110.983 55.2594V50.0396H112.154V55.2226Z" fill="#D7282F"/>
<path d="M116.152 55.5895H114.844C113.795 55.5895 113.216 54.949 113.216 54.0013V47.6501H114.388V53.9658C114.388 54.3577 114.587 54.5559 114.993 54.5559H116.152V55.5895Z" fill="#D7282F"/>
<path d="M120.122 57.3155C120.122 57.6595 119.826 57.9558 119.48 57.9558C119.135 57.9558 118.84 57.6595 118.84 57.3155C118.84 56.9702 119.135 56.6873 119.48 56.6873C119.826 56.6873 120.122 56.9702 120.122 57.3155ZM124.106 55.5916H115.842V54.5825H121.38V54.1392C121.38 53.2027 121.293 52.5267 121.12 52.1091C120.85 51.4186 120.308 51.0734 119.493 51.0734C118.814 51.0734 118.198 51.3953 117.619 52.0222L116.78 51.2461C117.606 50.4452 118.507 50.0398 119.493 50.0398C120.738 50.0398 121.602 50.4954 122.083 51.3953C122.415 52.0222 122.577 52.9443 122.577 54.1392V54.558H124.106V55.5916Z" fill="#D7282F"/>
<path d="M127.852 48.3027C127.852 48.6479 127.556 48.943 127.21 48.943C126.878 48.943 126.581 48.6479 126.581 48.3027C126.581 47.9575 126.878 47.6746 127.21 47.6746C127.556 47.6746 127.852 47.9575 127.852 48.3027ZM126.199 48.3027C126.199 48.6479 125.903 48.943 125.559 48.943C125.2 48.943 124.93 48.6479 124.93 48.3027C124.93 47.9575 125.2 47.6746 125.559 47.6746C125.903 47.6746 126.199 47.9575 126.199 48.3027ZM128.901 55.5905H128.161C127.432 55.5905 126.867 55.369 126.447 54.9369C126.028 55.369 125.446 55.5905 124.694 55.5905H123.806V54.5805H124.621C125.446 54.5805 125.855 54.1617 125.855 53.3254V50.0389H127.014V53.362C127.014 54.1751 127.42 54.5805 128.234 54.5805H128.901V55.5905Z" fill="#D7282F"/>
<path d="M133.872 55.5897H133.059C132.344 55.5897 131.776 55.368 131.344 54.9248C130.937 55.368 130.358 55.5897 129.606 55.5897H128.607V54.5562H129.532C130.345 54.5562 130.753 54.1374 130.753 53.3V47.6504H131.924V53.3612C131.924 54.1619 132.331 54.5562 133.133 54.5562H133.872V55.5897Z" fill="#D7282F"/>
<path d="M136.67 53.4111C136.67 54.0381 136.46 54.5559 136.041 54.9747C135.621 55.3801 135.054 55.5895 134.352 55.5895H133.562V54.5559H134.29C135.092 54.5559 135.498 54.1372 135.498 53.2998V47.6501H136.67V53.4111Z" fill="#D7282F"/>
</g>
</svg>
