<svg width="52" height="52" viewBox="0 0 52 52" fill="none" xmlns="http://www.w3.org/2000/svg">
<path d="M51.3422 25.6711C51.3422 11.4934 39.8489 0 25.6711 0C11.4933 0 0 11.4934 0 25.6711C0 39.8489 11.4933 51.3423 25.6711 51.3423C39.8489 51.3423 51.3422 39.8489 51.3422 25.6711Z" fill="white"/>
<path d="M31.9264 29.6264L32.7364 24.341H27.6652V20.9116C27.6652 19.4653 28.3728 18.0563 30.6446 18.0563H32.9505V13.5561C32.9505 13.5561 30.8587 13.1992 28.8569 13.1992C24.6826 13.1992 21.9515 15.7286 21.9515 20.3126V24.341H17.3086V29.6264H21.9515V42.4006C22.8826 42.5465 23.8354 42.6241 24.8068 42.6241C25.7782 42.6241 26.731 42.5465 27.6621 42.4006V29.6264H31.9202H31.9264Z" fill="#1677F0"/>
</svg>
