<svg width="110" height="20" viewBox="0 0 110 20" fill="none" xmlns="http://www.w3.org/2000/svg">
<path d="M12.0634 0.823242V4.41974H4.5555V8.30378H10.1739V11.7953H4.5555V19.2507H0.0667114V0.823242H12.0634Z" fill="white"/>
<path d="M25.8967 15.9966H19.0186L17.9164 19.2507H13.2177L19.8858 0.823242H25.0843L31.7524 19.2507H27.0012L25.899 15.9966H25.8967ZM24.742 12.5301L22.4577 5.78441L20.2007 12.5301H24.742Z" fill="white"/>
<path d="M36.8175 18.7771C35.7495 18.339 34.896 17.6932 34.257 16.8351C33.6181 15.9771 33.2803 14.9456 33.2461 13.7384H38.0247C38.0954 14.4207 38.3305 14.941 38.7344 15.2993C39.136 15.6576 39.6609 15.8379 40.309 15.8379C40.9571 15.8379 41.498 15.685 41.8836 15.3792C42.2693 15.0734 42.461 14.6489 42.461 14.1058C42.461 13.6517 42.3081 13.2751 42.0023 12.9762C41.6965 12.6795 41.32 12.433 40.8727 12.2413C40.4254 12.0497 39.791 11.8306 38.9695 11.5841C37.7782 11.2167 36.8084 10.8493 36.0553 10.4819C35.3022 10.1145 34.6541 9.57136 34.1133 8.8548C33.5701 8.13824 33.2986 7.20032 33.2986 6.0456C33.2986 4.33179 33.9193 2.98766 35.163 2.01551C36.4044 1.04336 38.0247 0.55957 40.0192 0.55957C42.0137 0.55957 43.6842 1.04564 44.9279 2.01551C46.1693 2.98766 46.8357 4.33863 46.9224 6.0707H42.0662C42.032 5.47509 41.8129 5.00727 41.409 4.66725C41.0073 4.32494 40.4893 4.15607 39.8595 4.15607C39.3163 4.15607 38.8782 4.29984 38.5473 4.58966C38.2141 4.87948 38.0475 5.29481 38.0475 5.83565C38.0475 6.43127 38.3282 6.89452 38.8873 7.2277C39.4464 7.56088 40.3227 7.91916 41.5117 8.30482C42.7006 8.70875 43.6682 9.09213 44.4121 9.45954C45.1561 9.82695 45.7996 10.3609 46.3427 11.0615C46.8859 11.7621 47.1574 12.6635 47.1574 13.7658C47.1574 14.868 46.8904 15.7694 46.3564 16.6274C45.8224 17.4855 45.0488 18.1678 44.0333 18.6744C43.0178 19.181 41.8197 19.4366 40.4368 19.4366C39.0539 19.4366 37.8809 19.2176 36.8152 18.7794L36.8175 18.7771Z" fill="white"/>
<path d="M63.1729 0.823242V4.41974H58.2893V19.2507H53.8005V4.41974H48.9169V0.823242H63.1706H63.1729Z" fill="white"/>
<path d="M69.918 4.42007V8.14665H75.9289V11.6108H69.918V15.6523H76.7162V19.2488H65.4292V0.821289H76.7162V4.41779H69.918V4.42007Z" fill="white"/>
<path d="M82.6765 18.7771C81.6085 18.339 80.7551 17.6932 80.1184 16.8351C79.4794 15.9771 79.1417 14.9456 79.1074 13.7384H83.886C83.9568 14.4207 84.1918 14.941 84.5957 15.2993C84.9974 15.6576 85.5222 15.8379 86.1704 15.8379C86.8185 15.8379 87.3593 15.685 87.745 15.3792C88.1306 15.0734 88.3223 14.6489 88.3223 14.1058C88.3223 13.6517 88.1694 13.2751 87.8636 12.9762C87.5578 12.6795 87.1813 12.433 86.734 12.2413C86.2867 12.0497 85.6523 11.8306 84.8308 11.5841C83.6396 11.2167 82.6697 10.8493 81.9166 10.4819C81.1636 10.1145 80.5155 9.57136 79.9746 8.8548C79.4315 8.13824 79.1599 7.20032 79.1599 6.0456C79.1599 4.33179 79.7806 2.98766 81.0243 2.01551C82.2658 1.04336 83.886 0.55957 85.8805 0.55957C87.875 0.55957 89.5455 1.04564 90.7892 2.01551C92.0306 2.98766 92.697 4.33863 92.7837 6.0707H87.9275C87.891 5.47509 87.6742 5.00727 87.2703 4.66725C86.8687 4.32494 86.3506 4.15607 85.7208 4.15607C85.1777 4.15607 84.7395 4.29984 84.4086 4.58966C84.0754 4.87948 83.9089 5.29481 83.9089 5.83565C83.9089 6.43127 84.1895 6.89452 84.7486 7.2277C85.3077 7.56088 86.184 7.91916 87.373 8.30482C88.5619 8.70875 89.5295 9.09213 90.2735 9.45954C91.0174 9.82695 91.6609 10.3609 92.2041 11.0615C92.7472 11.7621 93.0188 12.6635 93.0188 13.7658C93.0188 14.868 92.7518 15.7694 92.2178 16.6274C91.6838 17.4855 90.9102 18.1678 89.8946 18.6744C88.8791 19.181 87.6811 19.4366 86.2981 19.4366C84.9152 19.4366 83.7423 19.2176 82.6743 18.7794L82.6765 18.7771Z" fill="white"/>
<path d="M109.033 0.823242V4.41974H104.149V19.2507H99.6604V4.41974H94.7768V0.823242H109.03H109.033Z" fill="white"/>
</svg>
