<svg width="96" height="62" viewBox="0 0 96 62" fill="none" xmlns="http://www.w3.org/2000/svg">
<path d="M89.1145 24.3696L88.4242 28.9048C87.5722 27.696 86.6573 26.8211 85.4492 26.8211C83.8773 26.8211 82.4467 28.1061 81.5104 29.9974C80.2064 29.7057 78.8575 29.2108 78.8575 29.2108L78.8568 29.2223C78.962 28.1651 79.0039 27.52 78.9946 27.3009H76.1334C75.7439 31.2515 75.0513 35.2531 74.5099 39.2085L74.3672 40.0663H77.4828C77.9037 37.119 78.2261 34.6718 78.4631 32.7311C79.5275 31.6938 80.0603 30.7888 81.1359 30.8491C80.6597 32.0913 80.3806 33.5218 80.3806 34.9893C80.3806 38.1807 81.8779 40.2859 84.1423 40.2859C85.2838 40.2859 86.1595 39.8615 87.0141 38.8775L86.8683 40.0642H89.8147L92.187 24.3696H89.1145ZM85.2192 37.1162C84.1588 37.1162 83.6235 36.27 83.6235 34.5999C83.6235 32.0912 84.6259 30.3118 86.039 30.3118C87.1092 30.3118 87.6886 31.1917 87.6886 32.8128C87.6888 35.3436 86.6706 37.1162 85.2192 37.1162Z" fill="black"/>
<path d="M57.3847 30.9893C57.3847 48.0803 44.5382 61.9327 28.6914 61.9327C12.8447 61.9327 -0.000244141 48.0796 -0.000244141 30.9893C-0.000244141 13.9001 12.845 0.0458984 28.6914 0.0458984C44.5377 0.0458984 57.3847 13.9006 57.3847 30.9893Z" fill="#D9222A"/>
<path d="M67.2121 0.0454102C59.7986 0.0454102 53.0432 3.07873 47.9511 8.05553C46.9137 9.07072 45.9454 10.165 45.0539 11.3302H50.8508C51.6446 12.3709 52.375 13.4657 53.0382 14.6078H42.8667C42.2549 15.663 41.703 16.7573 41.2137 17.8845H54.6903C55.1528 18.9507 55.5585 20.0445 55.9051 21.1605H39.9989C39.6647 22.2354 39.3864 23.3293 39.165 24.4374H56.7381C57.1679 26.5906 57.3845 28.7869 57.384 30.9895C57.384 34.4259 56.8639 37.7321 55.9048 40.819H39.9986C40.3445 41.9359 40.7499 43.0299 41.2126 44.0961H54.69C54.2003 45.2235 53.6479 46.318 53.0361 47.3737H42.8662C43.5302 48.5164 44.2616 49.6111 45.0536 50.6483H50.8492C49.9589 51.8157 48.9902 52.9111 47.9512 53.9257C53.0438 58.902 59.7984 61.9338 67.2122 61.9338C83.0587 61.9336 95.9055 48.0805 95.9055 30.9904C95.9055 13.9017 83.059 0.0469608 67.2122 0.0469608" fill="#EE9F2D"/>
<path d="M15.2186 39.1329H12.1031L13.8885 27.0679L9.90445 39.1329H7.78143L7.51897 27.1369L5.64354 39.1329H2.72754L5.16321 23.4385H9.64199L9.76795 33.1545L12.7896 23.4385H17.6275L15.2186 39.1329Z" fill="white"/>
<path d="M22.8872 33.4479C22.5608 33.4072 22.4163 33.3961 22.1925 33.3961C20.4269 33.3961 19.5337 34.0491 19.5337 35.3384C19.5337 36.1321 19.9701 36.6394 20.6494 36.6394C21.9194 36.6393 22.8338 35.3364 22.8872 33.4479ZM25.1536 39.1339H22.5728L22.6314 37.8129C21.8449 38.8565 20.7933 39.3557 19.3673 39.3557C17.6783 39.3557 16.5215 37.9335 16.5215 35.8685C16.5215 32.76 18.5341 30.9482 21.9906 30.9482C22.3437 30.9482 22.7966 30.9827 23.2595 31.0467C23.356 30.6257 23.3813 30.4456 23.3813 30.2178C23.3813 29.3718 22.8392 29.0577 21.3839 29.0577C19.8595 29.0391 18.6034 29.4493 18.0865 29.6304C18.1191 29.419 18.5181 26.7622 18.5181 26.7622C20.07 26.2695 21.0949 26.0847 22.2458 26.0847C24.9212 26.0847 26.3383 27.3807 26.3358 29.8264C26.3404 30.4849 26.2391 31.2937 26.0826 32.3561C25.8129 34.205 25.2322 38.1699 25.1536 39.1339ZM66.9331 23.8618L66.4229 27.2693C65.312 26.6667 64.5048 26.421 63.6406 26.421C61.3147 26.421 59.6845 28.8444 59.6845 32.3006C59.6845 34.6832 60.7805 36.1243 62.5909 36.1243C63.3581 36.1243 64.2046 35.8671 65.2369 35.3181L64.6902 38.8951C63.5419 39.2328 62.8015 39.3557 61.9368 39.3557C58.5839 39.3557 56.4942 36.7554 56.4942 32.5794C56.4942 26.9682 59.3808 23.0464 63.5093 23.0464C64.8691 23.0466 66.4763 23.6685 66.9331 23.8618ZM71.9589 33.4479C71.6327 33.4072 71.4888 33.3961 71.2642 33.3961C69.4992 33.3961 68.6054 34.0491 68.6054 35.3384C68.6054 36.1321 69.0416 36.6394 69.7218 36.6394C70.9904 36.6393 71.9055 35.3364 71.9589 33.4479ZM74.2253 39.1339H71.6439L71.703 37.8129C70.9159 38.8565 69.8648 39.3557 68.439 39.3557C66.7506 39.3557 65.5932 37.9335 65.5932 35.8685C65.5932 32.76 67.6064 30.9482 71.0617 30.9482C71.4154 30.9482 71.8676 30.9827 72.331 31.0467C72.4271 30.6257 72.453 30.4456 72.453 30.2178C72.453 29.3718 71.9108 29.0577 70.4556 29.0577C68.9318 29.0391 67.675 29.4493 67.1582 29.6304C67.1908 29.419 67.5904 26.7622 67.5904 26.7622C69.1423 26.2695 70.1664 26.0847 71.3173 26.0847C73.9934 26.0847 75.4099 27.3807 75.4065 29.8264C75.412 30.4849 75.3114 31.2937 75.1542 32.3561C74.8853 34.205 74.3031 38.1699 74.2253 39.1339ZM38.9977 38.9404C38.1445 39.2301 37.4798 39.3557 36.7599 39.3557C35.1674 39.3557 34.2983 38.3686 34.2983 36.5517C34.2763 35.9861 34.528 34.5036 34.7259 33.1491C34.9049 31.9552 36.0759 24.4379 36.0759 24.4379H39.1716L38.8105 26.3707H40.3997L39.9767 29.4371H38.3823C38.0227 31.8662 37.5091 34.8878 37.5038 35.2895C37.5038 35.9497 37.8302 36.2347 38.5701 36.2347C38.925 36.2347 39.1996 36.1973 39.4099 36.1154L38.9977 38.9404ZM48.491 38.8386C47.4281 39.189 46.4003 39.358 45.3134 39.3557C41.8474 39.3521 40.0407 37.3998 40.0407 33.6613C40.0407 29.2963 42.3392 26.0849 45.4593 26.0849C48.012 26.0849 49.6424 27.8827 49.6424 30.7048C49.6424 31.6414 49.5305 32.5551 49.2616 33.8443H43.0957C42.887 35.696 43.9859 36.4682 45.787 36.4682C46.8947 36.4682 47.895 36.221 49.0057 35.6622L48.491 38.8386ZM46.75 31.2687C46.7687 31.0036 47.0792 28.9903 45.3094 28.9903C44.3238 28.9903 43.6184 29.8034 43.3313 31.2687H46.75ZM27.0223 30.4061C27.0223 32.0205 27.7483 33.1326 29.3947 33.9702C30.656 34.6094 30.8512 34.7997 30.8512 35.3786C30.8512 36.1745 30.2944 36.5336 29.063 36.5336C28.1332 36.5336 27.2688 36.3771 26.2711 36.0302C26.2711 36.0302 25.8628 38.8436 25.8443 38.978C26.5508 39.1447 27.1828 39.2969 29.0849 39.3557C32.3724 39.3557 33.8896 38.0061 33.8896 35.0898C33.8896 33.3349 33.2549 32.3058 31.6937 31.5323C30.3883 30.8845 30.2372 30.7422 30.2372 30.1453C30.2372 29.4557 30.7559 29.101 31.7623 29.101C32.373 29.101 33.2082 29.1734 34.0007 29.2949L34.4436 26.3333C33.6379 26.1954 32.4151 26.0849 31.703 26.0849C28.2178 26.0849 27.0124 28.0465 27.0223 30.4061ZM90.7114 39.1339H87.7644L87.911 37.9456C87.0563 38.9311 86.1807 39.3557 85.0391 39.3557C82.7745 39.3557 81.278 37.2504 81.278 34.0591C81.278 29.8133 83.5991 26.234 86.3465 26.234C87.5545 26.234 88.4692 26.7663 89.3202 27.9744L90.0115 23.4393H93.0838L90.7114 39.1339ZM86.1168 36.1845C87.5673 36.1845 88.5863 34.4118 88.5863 31.8829C88.5863 30.2616 88.0061 29.3818 86.936 29.3818C85.5233 29.3818 84.5198 31.1603 84.5198 33.6699C84.5196 35.3396 85.0564 36.1845 86.1168 36.1845ZM77.0309 26.3707C76.641 30.3213 75.9482 34.3229 75.4065 38.2762L75.2641 39.1339H78.3796C79.4939 31.3291 79.7635 29.8048 81.5106 29.9958C81.789 28.3985 82.3069 26.9992 82.6933 26.2931C81.3885 26.0001 80.6599 26.7953 79.7061 28.3057C79.7814 27.6529 79.9194 27.0187 79.892 26.3707H77.0309ZM51.389 26.3707C50.998 30.3213 50.3052 34.3229 49.7639 38.2762L49.6221 39.1339H52.739C53.8518 31.3291 54.121 29.8048 55.867 29.9958C56.1467 28.3985 56.6649 26.9992 57.0498 26.2931C55.7464 26.0001 55.0172 26.7953 54.0643 28.3057C54.1394 27.6529 54.276 27.0187 54.25 26.3707H51.389ZM92.08 38.1347C92.08 37.5807 92.4949 37.1349 93.0064 37.1349C93.5175 37.1344 93.9323 37.5808 93.9327 38.1321V38.1347C93.9326 38.6863 93.5179 39.1335 93.0064 39.1339C92.4949 39.1335 92.0803 38.6863 92.08 38.1347ZM93.0064 38.8939C93.3952 38.8941 93.7102 38.5543 93.7102 38.1352V38.1349C93.7107 37.7155 93.3957 37.3753 93.0071 37.375H93.0064C92.6172 37.3752 92.3019 37.7153 92.3017 38.1349C92.3022 38.5541 92.6175 38.8939 93.0064 38.8939ZM92.8811 38.5715H92.6912V37.6951H93.0355C93.1068 37.6951 93.1807 37.6965 93.2427 37.7389C93.3092 37.7877 93.3472 37.8711 93.3472 37.9585C93.3472 38.0577 93.2932 38.1504 93.2053 38.1856L93.3557 38.571H93.1449L93.0202 38.2249H92.8811V38.571V38.5715ZM92.8811 38.0751H92.9857C93.0248 38.0751 93.0677 38.0782 93.1022 38.0578C93.1334 38.0363 93.1493 37.9956 93.1493 37.9566C93.1479 37.9204 93.131 37.887 93.1035 37.8663C93.0709 37.8461 93.0168 37.8516 92.9815 37.8516H92.881L92.8811 38.0751Z" fill="white"/>
</svg>
