<svg width="97" height="37" viewBox="0 0 97 37" fill="none" xmlns="http://www.w3.org/2000/svg">
<path d="M65.0878 36.3385H73.0874V11.8276H65.0878V36.3385ZM60.5628 11.4749C53.1692 11.7394 49.4118 15.3543 49.4118 22.5401V36.3385H57.4922V25.097C57.4922 20.7767 58.0174 18.9252 62.7041 18.7488V11.5631C62.1789 11.4749 61.6132 11.4308 61.0476 11.4308L60.5628 11.4749ZM0 13.5028C0 16.3242 1.13126 22.9809 11.4338 23.7744C12.3226 23.8185 14.6256 23.9949 14.6256 26.3754C14.6256 28.3151 12.7267 29.5054 9.5349 29.5054C6.46434 29.4172 3.43418 28.756 0.56563 27.5657V35.4127C4.04021 36.3385 7.636 36.7793 11.2318 36.7352C20.0395 36.7352 23.9989 31.3129 23.9989 25.9346C23.9989 19.8509 19.5546 15.8833 12.161 15.3543C11.151 15.2662 8.80766 15.1339 8.80766 12.7974C8.80766 10.0201 12.161 10.0201 13.4539 10.0201C15.676 10.0201 18.5446 10.7255 20.6051 11.4308C20.6051 11.4308 21.7363 11.8717 22.7464 12.3125L22.8272 12.3566V4.68592L22.706 4.64184C20.2819 3.71607 17.4537 2.83438 12.2418 2.83438C3.19177 2.83438 0 8.56535 0 13.5028ZM26.019 4.59775V36.3385H34.261V26.5077C36.6447 30.4312 37.8568 36.3385 37.8568 36.3385H47.7553C46.7857 31.886 42.503 23.7304 42.503 23.7304C45.0484 20.1595 46.9877 16.1479 48.3209 11.8276H38.8264C37.7356 14.9135 36.2003 17.8231 34.261 20.3799V2.83438L26.019 4.59775ZM76.4812 4.37733V36.3385H84.4808V2.83438L76.4812 4.37733ZM88.1574 4.37733V36.3385H96.1571V2.83438L88.1574 4.37733ZM69.0876 0.850586C66.9059 0.850586 65.1282 2.7903 65.1282 5.17085C65.1282 7.55141 66.9059 9.49112 69.0876 9.49112C71.2693 9.49112 73.047 7.55141 73.047 5.17085C73.0066 2.7903 71.2693 0.850586 69.0876 0.850586Z" fill="white"/>
<mask id="mask0_4378_4789" style="mask-type:luminance" maskUnits="userSpaceOnUse" x="0" y="0" width="97" height="37">
<path d="M65.0878 36.3385H73.0874V11.8276H65.0878V36.3385ZM60.5628 11.4749C53.1692 11.7394 49.4118 15.3543 49.4118 22.5401V36.3385H57.4922V25.097C57.4922 20.7767 58.0174 18.9252 62.7041 18.7488V11.5631C62.1789 11.4749 61.6132 11.4308 61.0476 11.4308L60.5628 11.4749ZM0 13.5028C0 16.3242 1.13126 22.9809 11.4338 23.7744C12.3226 23.8185 14.6256 23.9949 14.6256 26.3754C14.6256 28.3151 12.7267 29.5054 9.5349 29.5054C6.46434 29.4172 3.43418 28.756 0.56563 27.5657V35.4127C4.04021 36.3385 7.636 36.7793 11.2318 36.7352C20.0395 36.7352 23.9989 31.3129 23.9989 25.9346C23.9989 19.8509 19.5546 15.8833 12.161 15.3543C11.151 15.2662 8.80766 15.1339 8.80766 12.7974C8.80766 10.0201 12.161 10.0201 13.4539 10.0201C15.676 10.0201 18.5446 10.7255 20.6051 11.4308C20.6051 11.4308 21.7363 11.8717 22.7464 12.3125L22.8272 12.3566V4.68592L22.706 4.64184C20.2819 3.71607 17.4537 2.83438 12.2418 2.83438C3.19177 2.83438 0 8.56535 0 13.5028ZM26.019 4.59775V36.3385H34.261V26.5077C36.6447 30.4312 37.8568 36.3385 37.8568 36.3385H47.7553C46.7857 31.886 42.503 23.7304 42.503 23.7304C45.0484 20.1595 46.9877 16.1479 48.3209 11.8276H38.8264C37.7356 14.9135 36.2003 17.8231 34.261 20.3799V2.83438L26.019 4.59775ZM76.4812 4.37733V36.3385H84.4808V2.83438L76.4812 4.37733ZM88.1574 4.37733V36.3385H96.1571V2.83438L88.1574 4.37733ZM69.0876 0.850586C66.9059 0.850586 65.1282 2.7903 65.1282 5.17085C65.1282 7.55141 66.9059 9.49112 69.0876 9.49112C71.2693 9.49112 73.047 7.55141 73.047 5.17085C73.0066 2.7903 71.2693 0.850586 69.0876 0.850586Z" fill="white"/>
</mask>
<g mask="url(#mask0_4378_4789)">
<path d="M96.1571 0.850586H0V36.6912H96.1571V0.850586Z" fill="white"/>
</g>
</svg>
