<svg width="106" height="36" viewBox="0 0 106 36" fill="none" xmlns="http://www.w3.org/2000/svg">
<path d="M37.2437 34.844L42.5762 1.09761H51.1054L45.7691 34.844H37.2437ZM76.5825 1.82508C74.8929 1.14139 72.2448 0.407715 68.9385 0.407715C60.5108 0.407715 54.5743 4.98458 54.5239 11.5444C54.4761 16.3937 58.762 19.0987 61.9969 20.713C65.317 22.367 66.4328 23.4219 66.4172 24.899C66.3962 27.1609 63.766 28.1944 61.3147 28.1944C57.9009 28.1944 56.0874 27.6829 53.2863 26.4229L52.1872 25.8868L50.9901 33.4413C52.9823 34.3832 56.6661 35.1993 60.4908 35.2416C69.4564 35.2416 75.2762 30.7171 75.3427 23.712C75.3746 19.8731 73.1024 16.9517 68.1817 14.5431C65.2006 12.9821 63.3749 11.9402 63.3942 10.3596C63.3942 8.95689 64.9396 7.45678 68.2785 7.45678C71.0676 7.41024 73.0882 8.06617 74.6623 8.74968L75.4265 9.13928L76.5825 1.82508ZM98.5304 1.09709H91.9398C89.8981 1.09709 88.3702 1.6982 87.4736 3.89562L74.8071 34.8218H83.7632C83.7632 34.8218 85.2274 30.6633 85.5586 29.7505C86.5376 29.7505 95.2378 29.765 96.4819 29.765C96.737 30.9464 97.5192 34.8218 97.5192 34.8218H105.434L98.5304 1.09605V1.09709ZM88.0739 22.8885C88.7791 20.9442 91.4721 13.455 91.4721 13.455C91.4216 13.545 92.172 11.5011 92.6028 10.2341L93.179 13.1438C93.179 13.1438 94.8125 21.1993 95.1537 22.8885H88.0739ZM30.0032 1.09709L21.653 24.1107L20.7632 19.4339C19.2087 14.0428 14.3655 8.20201 8.95117 5.27781L16.5862 34.7904L25.6102 34.7794L39.0376 1.09674H30.0032" fill="white"/>
<path d="M13.8618 1.09591H0.108852L0 1.79804C10.6995 4.59139 17.7792 11.3419 20.7187 19.4522L17.7281 3.94425C17.2118 1.80752 15.7146 1.16986 13.8622 1.09521" fill="#F2AE14"/>
</svg>
