<svg width="149" height="20" viewBox="0 0 149 20" fill="none" xmlns="http://www.w3.org/2000/svg">
<path d="M10.2388 19.3265L6.41862 12.3914H5.34606V19.3265H0.870972V0.956055H8.38118C9.83028 0.956055 11.0626 1.20937 12.0849 1.71598C13.1073 2.22259 13.8695 2.91633 14.3738 3.79492C14.8804 4.67579 15.1337 5.65707 15.1337 6.73876C15.1337 7.95965 14.7892 9.05047 14.1 10.0089C13.4108 10.9674 12.3953 11.6497 11.0512 12.0491L15.2912 19.3242H10.241L10.2388 19.3265ZM5.34606 9.22619H8.12103C8.94028 9.22619 9.55643 9.02536 9.96491 8.62372C10.3734 8.22208 10.5788 7.65614 10.5788 6.9236C10.5788 6.19107 10.3734 5.67532 9.96491 5.27368C9.55415 4.87204 8.94028 4.67122 8.12103 4.67122H5.34606V9.2239V9.22619Z" fill="white"/>
<path d="M22.4086 4.54115V8.25632H28.4012V11.7113H22.4086V15.7414H29.1862V19.3265H17.9335V0.956055H29.1862V4.54115H22.4086Z" fill="white"/>
<path d="M44.2868 6.7671C43.9559 6.15552 43.4789 5.68998 42.8605 5.36593C42.2421 5.04416 41.5141 4.88213 40.6766 4.88213C39.2275 4.88213 38.0682 5.3568 37.1965 6.30841C36.3247 7.26002 35.8889 8.52884 35.8889 10.1149C35.8889 11.8081 36.3475 13.1294 37.2626 14.0788C38.1777 15.0304 39.4397 15.505 41.044 15.505C42.1439 15.505 43.0727 15.2266 43.8304 14.6675C44.588 14.1084 45.1425 13.3074 45.4917 12.26H39.814V8.96243H49.5492V13.1226C49.2183 14.2385 48.6546 15.2768 47.8605 16.2376C47.0663 17.1983 46.0599 17.9742 44.839 18.5676C43.6181 19.1609 42.2398 19.4575 40.704 19.4575C38.8897 19.4575 37.2718 19.0605 35.8501 18.2663C34.4284 17.4722 33.3193 16.3677 32.5274 14.9551C31.7333 13.5425 31.3362 11.9291 31.3362 10.1149C31.3362 8.30063 31.7333 6.68267 32.5274 5.26095C33.3216 3.83924 34.4238 2.73245 35.8386 1.9383C37.2512 1.14415 38.8646 0.74707 40.6789 0.74707C42.8765 0.74707 44.7318 1.27879 46.2402 2.3445C47.7486 3.41022 48.7482 4.88214 49.2365 6.7671H44.2913H44.2868Z" fill="white"/>
<path d="M56.4295 0.956379V11.9467C56.4295 13.0466 56.6988 13.891 57.2396 14.4843C57.7805 15.0777 58.5746 15.3743 59.6221 15.3743C60.6696 15.3743 61.4706 15.0777 62.0297 14.4843C62.5888 13.891 62.8672 13.0444 62.8672 11.9467V0.956379H67.3423V11.9216C67.3423 13.5624 66.9931 14.9476 66.2948 16.0818C65.5965 17.2159 64.6586 18.0717 63.481 18.6468C62.3035 19.2219 60.9913 19.5094 59.5422 19.5094C58.0931 19.5094 56.7992 19.2264 55.6559 18.6582C54.5126 18.0922 53.6112 17.2365 52.9471 16.0932C52.283 14.9522 51.9521 13.5601 51.9521 11.9193V0.954102H56.4272L56.4295 0.956379Z" fill="white"/>
<path d="M74.9545 15.8715H80.817V19.3265H70.4794V0.956055H74.9545V15.8715Z" fill="white"/>
<path d="M94.3973 16.0814H87.5398L86.4398 19.3265H81.7548L88.4024 0.956055H93.5849L100.232 19.3265H95.495L94.395 16.0814H94.3973ZM93.2471 12.6264L90.9697 5.90125L88.7196 12.6264H93.2471Z" fill="white"/>
<path d="M115.463 0.956055V4.54115H110.595V19.3265H106.12V4.54115H101.252V0.956055H115.463Z" fill="white"/>
<path d="M122.189 4.54115V8.25632H128.181V11.7113H122.189V15.7414H128.967V19.3265H117.714V0.956055H128.967V4.54115H122.189Z" fill="white"/>
<path d="M143.83 2.10914C145.279 2.8759 146.4 3.95303 147.194 5.34051C147.988 6.72799 148.385 8.3277 148.385 10.1419C148.385 11.9561 147.988 13.5353 147.194 14.9319C146.4 16.3286 145.275 17.4102 143.819 18.177C142.363 18.9461 140.674 19.3294 138.755 19.3294H131.872V0.958984H138.755C140.693 0.958984 142.384 1.34236 143.833 2.11141L143.83 2.10914ZM142.418 14.067C143.36 13.1428 143.83 11.8352 143.83 10.1419C143.83 8.44865 143.36 7.13192 142.418 6.18943C141.475 5.24695 140.159 4.77685 138.465 4.77685H136.345V15.4522H138.465C140.156 15.4522 141.475 14.9913 142.418 14.0648V14.067Z" fill="white"/>
</svg>
