<svg width="52" height="20" viewBox="0 0 52 20" fill="none" xmlns="http://www.w3.org/2000/svg">
<path d="M14.3216 0.720703V4.3058H9.45402V19.0912H4.97892V4.3058H0.111328V0.720703H14.3216Z" fill="white"/>
<path d="M20.5116 18.0679C19.0717 17.2646 17.9306 16.1441 17.084 14.7042C16.2374 13.2642 15.8152 11.6462 15.8152 9.85025C15.8152 8.05428 16.2374 6.44088 17.084 5.01004C17.9306 3.57919 19.0717 2.46328 20.5116 1.66C21.9516 0.856718 23.5331 0.455078 25.2606 0.455078C26.9881 0.455078 28.5695 0.856718 30.0095 1.66C31.4495 2.46328 32.5836 3.57919 33.412 5.01004C34.2404 6.44088 34.6557 8.05428 34.6557 9.85025C34.6557 11.6462 34.2381 13.2642 33.4006 14.7042C32.5631 16.1441 31.4289 17.2646 29.9981 18.0679C28.5673 18.8712 26.9881 19.2728 25.2629 19.2728C23.5376 19.2728 21.9516 18.8712 20.5139 18.0679H20.5116ZM28.7818 13.7252C29.6626 12.7485 30.1031 11.4568 30.1031 9.85253C30.1031 8.24826 29.6626 6.9338 28.7818 5.96621C27.9009 4.99863 26.7279 4.51483 25.2629 4.51483C23.7978 4.51483 22.5974 4.99406 21.7165 5.9548C20.8357 6.91554 20.3952 8.21403 20.3952 9.85482C20.3952 11.4956 20.8357 12.7735 21.7165 13.7411C22.5974 14.7087 23.7795 15.1925 25.2629 15.1925C26.7462 15.1925 27.9009 14.7042 28.7818 13.7274V13.7252Z" fill="white"/>
<path d="M50.41 9.55221C49.9216 10.4331 49.1709 11.1451 48.1599 11.6859C47.149 12.2268 45.8916 12.496 44.3923 12.496H41.6173V19.0912H37.1422V0.720703H44.3923C45.8573 0.720703 47.0965 0.97401 48.1074 1.48062C49.1184 1.98724 49.8783 2.68326 50.3849 3.57326C50.8915 4.46325 51.1448 5.48333 51.1448 6.63576C51.1448 7.70148 50.9006 8.67363 50.4123 9.5545L50.41 9.55221ZM45.96 8.33588C46.3776 7.93425 46.5876 7.3683 46.5876 6.63576C46.5876 5.90323 46.3776 5.33728 45.96 4.93564C45.5424 4.534 44.9034 4.33318 44.0499 4.33318H41.6173V8.93834H44.0499C44.9057 8.93834 45.5424 8.73752 45.96 8.33588Z" fill="white"/>
</svg>
