<svg width="41" height="45" viewBox="0 0 41 45" fill="none" xmlns="http://www.w3.org/2000/svg">
<path d="M15.8708 37.4873H10.4726C9.73034 37.4873 9.12305 38.1621 9.12305 38.9868C9.12305 39.8115 9.73034 40.4863 10.4726 40.4863H15.8708C16.613 40.4863 17.2203 39.8115 17.2203 38.9868C17.2203 38.1621 16.613 37.4873 15.8708 37.4873Z" fill="#006EFF"/>
<path d="M18.6904 20.0634H22.2262C22.9685 20.0634 23.5758 19.3887 23.5758 18.5639C23.5758 17.7392 22.9685 17.0644 22.2262 17.0644H20.9172V16.5996C20.9172 15.7749 20.3099 15.1001 19.5676 15.1001C18.8254 15.1001 18.2181 15.7749 18.2181 16.5996V17.1244C16.7201 17.3793 15.5594 18.8038 15.5594 20.5433C15.5594 22.4626 16.963 24.0071 18.6769 24.0071H20.4448C20.6742 24.0071 20.8632 24.2171 20.8632 24.472C20.8632 24.7269 20.6742 24.9368 20.4448 24.9368H16.909C16.1667 24.9368 15.5594 25.6116 15.5594 26.4363C15.5594 27.261 16.1667 27.9358 16.909 27.9358H18.2181V28.4007C18.2181 29.2254 18.8254 29.9002 19.5676 29.9002C20.3099 29.9002 20.9172 29.2254 20.9172 28.4007V27.8758C22.4152 27.6209 23.5758 26.1964 23.5758 24.457C23.5758 22.5376 22.1722 20.9931 20.4583 20.9931H18.6904C18.461 20.9931 18.272 20.7832 18.272 20.5283C18.272 20.2734 18.461 20.0634 18.6904 20.0634Z" fill="#006EFF"/>
<path d="M40.5 22.4925C40.5 20.1233 39.0695 18.144 37.1261 17.4842V16.3445C37.1261 15.5198 36.5188 14.845 35.7766 14.845C35.0343 14.845 34.427 15.5198 34.427 16.3445V17.4842C32.9155 17.994 31.7279 19.3136 31.2691 20.993H29.933C29.5956 18.054 28.2596 15.4598 26.3162 13.6305V4.54348C26.3162 2.03932 24.4808 0 22.2271 0H4.08913C1.83539 0 0 2.03932 0 4.54348V40.4415C0 42.9457 1.83539 44.985 4.08913 44.985H22.2271C24.4808 44.985 26.3162 42.9457 26.3162 40.4415V31.3546C28.2596 29.5252 29.5821 26.931 29.933 23.992H31.2691C31.7279 25.6714 32.9155 26.991 34.427 27.5008V28.6405C34.427 29.4652 35.0343 30.14 35.7766 30.14C36.5188 30.14 37.1261 29.4652 37.1261 28.6405V27.5008C39.0695 26.856 40.5 24.8617 40.5 22.4925ZM17.4497 2.999L17.0178 4.70843C16.9369 5.02332 16.6669 5.24825 16.37 5.24825H9.97317C9.67627 5.24825 9.40637 5.02332 9.3254 4.70843L8.89354 2.999H17.4632H17.4497ZM23.6306 40.4415C23.6306 41.2962 23.0098 41.986 22.2406 41.986H4.10263C3.33339 41.986 2.7126 41.2962 2.7126 40.4415V26.0613H5.4117C6.15395 26.0613 6.76125 25.3865 6.76125 24.5618C6.76125 23.7371 6.15395 23.0623 5.4117 23.0623H2.7126V20.0633H5.4117C6.15395 20.0633 6.76125 19.3885 6.76125 18.5638C6.76125 17.7391 6.15395 17.0643 5.4117 17.0643H2.7126V4.55847C2.7126 3.70376 3.33339 3.01399 4.10263 3.01399H6.08647L6.73426 5.54815C7.15262 7.15261 8.47517 8.26224 9.97317 8.26224H16.37C17.868 8.26224 19.2041 7.13762 19.609 5.54815L20.2567 3.01399H22.2406C23.0098 3.01399 23.6306 3.70376 23.6306 4.55847V11.7861C22.389 11.2013 21.0125 10.8864 19.582 10.8864C13.8194 10.8864 9.12296 16.1046 9.12296 22.5075C9.12296 28.9104 13.8194 34.1286 19.582 34.1286C21.0125 34.1286 22.389 33.7987 23.6306 33.2289V40.4565V40.4415ZM19.582 31.1146C15.3039 31.1146 11.8221 27.2459 11.8221 22.4925C11.8221 17.7391 15.3039 13.8704 19.582 13.8704C23.86 13.8704 27.3419 17.7391 27.3419 22.4925C27.3419 27.2459 23.86 31.1146 19.582 31.1146ZM35.7766 24.7418C34.6564 24.7418 33.7522 23.7371 33.7522 22.4925C33.7522 21.2479 34.6564 20.2433 35.7766 20.2433C36.8967 20.2433 37.8009 21.2479 37.8009 22.4925C37.8009 23.7371 36.8967 24.7418 35.7766 24.7418Z" fill="#006EFF"/>
<path d="M35.7764 14.1101C36.5187 14.1101 37.126 13.4353 37.126 12.6106V11.8608C37.126 11.0361 36.5187 10.3613 35.7764 10.3613C35.0342 10.3613 34.4269 11.0361 34.4269 11.8608V12.6106C34.4269 13.4353 35.0342 14.1101 35.7764 14.1101Z" fill="#006EFF"/>
<path d="M35.7764 30.875C35.0342 30.875 34.4269 31.5498 34.4269 32.3745V33.1243C34.4269 33.949 35.0342 34.6238 35.7764 34.6238C36.5187 34.6238 37.126 33.949 37.126 33.1243V32.3745C37.126 31.5498 36.5187 30.875 35.7764 30.875Z" fill="#006EFF"/>
<path d="M36.4518 35.9878C34.6974 35.9878 33.2129 37.2474 32.6461 38.9868H32.1603L31.2021 37.1574C30.9592 36.6926 30.5138 36.4077 30.0415 36.4077H29.0293V39.4067H29.2587L30.2169 41.236C30.4598 41.7009 30.9052 41.9858 31.3775 41.9858H32.6326C33.1859 43.7252 34.6704 44.9848 36.4383 44.9848C38.6651 44.9848 40.487 42.9605 40.487 40.4863C40.487 38.0121 38.6651 35.9878 36.4383 35.9878H36.4518Z" fill="#006EFF"/>
<path d="M31.2013 7.82739L32.1594 5.998H32.6453C33.1986 7.73742 34.6831 8.997 36.451 8.997C38.6778 8.997 40.4997 6.97268 40.4997 4.4985C40.4997 2.02433 38.6778 0 36.451 0C34.6966 0 33.2121 1.25958 32.6453 2.999H31.3902C30.9044 2.999 30.459 3.28391 30.2296 3.74875L29.2714 5.57814H29.042V8.57714H30.0542C30.54 8.57714 30.9853 8.29224 31.2148 7.82739H31.2013Z" fill="#006EFF"/>
</svg>
