<svg width="103" height="20" viewBox="0 0 103 20" fill="none" xmlns="http://www.w3.org/2000/svg">
<path d="M13.7336 10.9799C14.3817 11.8106 14.7058 12.7599 14.7058 13.8279C14.7058 15.3683 14.1672 16.5892 13.0924 17.4906C12.0153 18.392 10.516 18.8416 8.58991 18.8416H0.00714111V0.414062H8.30237C10.1736 0.414062 11.641 0.84309 12.6999 1.70114C13.7587 2.55919 14.2882 3.72303 14.2882 5.19266C14.2882 6.27892 14.0029 7.17804 13.4347 7.89689C12.8665 8.61573 12.1088 9.11321 11.1641 9.39391C12.2321 9.62211 13.0901 10.1515 13.7359 10.9822L13.7336 10.9799ZM4.49364 7.8695H7.43291C8.16773 7.8695 8.73139 7.70748 9.12619 7.38343C9.52098 7.05938 9.71724 6.58243 9.71724 5.95259C9.71724 5.32274 9.52098 4.84123 9.12619 4.50805C8.73139 4.17487 8.16773 4.00828 7.43291 4.00828H4.49364V7.86722V7.8695ZM9.54837 14.7065C9.95913 14.3642 10.1645 13.8713 10.1645 13.2232C10.1645 12.5751 9.95001 12.0685 9.52098 11.701C9.09196 11.3336 8.50091 11.1488 7.75011 11.1488H4.49592V15.2177H7.8026C8.55568 15.2177 9.1376 15.0465 9.54837 14.7065Z" fill="white"/>
<path d="M26.7023 18.8416L22.8707 11.8859H21.7936V18.8416H17.3048V0.414062H24.8378C26.2892 0.414062 27.5284 0.667369 28.553 1.17626C29.5776 1.68288 30.3421 2.3789 30.8487 3.26206C31.3554 4.14521 31.6109 5.13105 31.6109 6.21502C31.6109 7.44048 31.2641 8.53358 30.5749 9.4966C29.8834 10.4596 28.8634 11.1419 27.517 11.5436L31.7684 18.8416H26.7023ZM21.7936 8.70929H24.5754C25.3969 8.70929 26.0154 8.50847 26.4261 8.10455C26.8369 7.70291 27.0423 7.1324 27.0423 6.39758C27.0423 5.66276 26.8369 5.14702 26.4261 4.7431C26.0154 4.34146 25.3969 4.13836 24.5754 4.13836H21.7936V8.70701V8.70929Z" fill="white"/>
<path d="M38.3718 17.8157C36.9273 17.0101 35.7817 15.8874 34.9328 14.4428C34.0839 12.9983 33.6594 11.3758 33.6594 9.57295C33.6594 7.77014 34.0839 6.15217 34.9328 4.71676C35.7817 3.28136 36.9273 2.16087 38.3718 1.35759C39.8164 0.552032 41.4047 0.150391 43.1368 0.150391C44.8688 0.150391 46.4571 0.552032 47.9017 1.35759C49.3462 2.16315 50.4827 3.28364 51.3133 4.71676C52.144 6.15217 52.5593 7.77014 52.5593 9.57295C52.5593 11.3758 52.1394 12.9983 51.2996 14.4428C50.4598 15.8874 49.3211 17.0124 47.888 17.8157C46.4526 18.6213 44.8688 19.0229 43.1368 19.0229C41.4047 19.0229 39.8164 18.6213 38.3718 17.8157ZM46.6671 13.4593C47.5502 12.4803 47.9929 11.1841 47.9929 9.57523C47.9929 7.96639 47.5502 6.64737 46.6671 5.6775C45.7839 4.70535 44.6064 4.22156 43.1368 4.22156C41.6671 4.22156 40.4645 4.70307 39.579 5.66609C38.6959 6.62912 38.2532 7.93216 38.2532 9.57751C38.2532 11.2229 38.6959 12.5054 39.579 13.4752C40.4622 14.4474 41.6489 14.9312 43.1368 14.9312C44.6246 14.9312 45.7839 14.4406 46.6671 13.4616V13.4593Z" fill="white"/>
<path d="M65.7369 18.8416L59.5411 10.7038V18.8416H55.0524V0.414062H59.5411V8.49935L65.6844 0.414062H70.9605L63.82 9.44411L71.2229 18.8416H65.7369Z" fill="white"/>
<path d="M77.8359 4.00991V7.73649H83.8469V11.2006H77.8359V15.2421H84.6342V18.8386H73.3472V0.411133H84.6342V4.00763H77.8359V4.00991Z" fill="white"/>
<path d="M96.9463 18.8416L93.1148 11.8859H92.0377V18.8416H87.5489V0.414062H95.0819C96.5333 0.414062 97.7725 0.667369 98.7971 1.17626C99.8217 1.68288 100.586 2.3789 101.093 3.26206C101.599 4.14521 101.855 5.13105 101.855 6.21502C101.855 7.44048 101.51 8.53358 100.819 9.4966C100.128 10.4596 99.1074 11.1419 97.761 11.5436L102.012 18.8416H96.9463ZM92.0377 8.70929H94.8195C95.641 8.70929 96.2595 8.50847 96.6702 8.10455C97.081 7.70291 97.2864 7.1324 97.2864 6.39758C97.2864 5.66276 97.081 5.14702 96.6702 4.7431C96.2595 4.34146 95.641 4.13836 94.8195 4.13836H92.0377V8.70701V8.70929Z" fill="white"/>
</svg>
