<svg width="103" height="20" viewBox="0 0 103 20" fill="none" xmlns="http://www.w3.org/2000/svg">
<path d="M14.4687 11.657C15.1145 12.4853 15.4363 13.4324 15.4363 14.4958C15.4363 16.0316 14.9 17.248 13.8274 18.1471C12.7549 19.0462 11.2579 19.4935 9.33867 19.4935H0.781006V1.12305H9.05113C10.9178 1.12305 12.3784 1.54979 13.4349 2.40555C14.4892 3.26132 15.0187 4.4206 15.0187 5.88567C15.0187 6.96736 14.7357 7.86649 14.1675 8.58077C13.5992 9.29733 12.8462 9.79253 11.9037 10.0732C12.9671 10.3014 13.8229 10.8286 14.4687 11.657ZM5.25609 8.55566H8.18624C8.91878 8.55566 9.48244 8.39592 9.87495 8.07187C10.2675 7.7501 10.4637 7.27316 10.4637 6.6456C10.4637 6.01803 10.2675 5.5388 9.87495 5.20563C9.48244 4.87473 8.91878 4.70814 8.18624 4.70814H5.25609V8.55566ZM10.2948 15.3744C10.7056 15.0344 10.9087 14.5415 10.9087 13.8957C10.9087 13.2498 10.6942 12.7432 10.2675 12.3781C9.84072 12.013 9.25195 11.8281 8.50116 11.8281H5.25609V15.8833H8.55365C9.30444 15.8833 9.88408 15.7144 10.2926 15.3744H10.2948Z" fill="white"/>
<path d="M27.3935 19.4964L23.5734 12.5613H22.5008V19.4964H18.0258V1.12598H25.536C26.9851 1.12598 28.2174 1.37928 29.2397 1.88589C30.2621 2.39251 31.0243 3.08625 31.5286 3.96484C32.0352 4.84571 32.2885 5.82699 32.2885 6.90867C32.2885 8.12957 31.9439 9.22039 31.2548 10.1788C30.5656 11.1373 29.5501 11.8196 28.206 12.219L32.446 19.4941H27.3958L27.3935 19.4964ZM22.5008 9.39382H25.2758C26.0951 9.39382 26.7112 9.193 27.1197 8.79136C27.5282 8.38972 27.7336 7.82378 27.7336 7.09124C27.7336 6.35871 27.5282 5.84296 27.1197 5.44132C26.7089 5.03968 26.0951 4.83886 25.2758 4.83886H22.5008V9.39154V9.39382Z" fill="white"/>
<path d="M39.0257 18.4742C37.5857 17.6709 36.4447 16.5504 35.598 15.1104C34.7514 13.6704 34.3292 12.0525 34.3292 10.2565C34.3292 8.46054 34.7514 6.84713 35.598 5.41629C36.4447 3.98544 37.5857 2.86953 39.0257 2.06625C40.4656 1.26297 42.0471 0.861328 43.7746 0.861328C45.5021 0.861328 47.0836 1.26297 48.5235 2.06625C49.9635 2.86953 51.0977 3.98544 51.9261 5.41629C52.7544 6.84713 53.1698 8.46054 53.1698 10.2565C53.1698 12.0525 52.7522 13.6704 51.9147 15.1104C51.0771 16.5504 49.943 17.6709 48.5121 18.4742C47.0813 19.2774 45.5021 19.6791 43.7769 19.6791C42.0517 19.6791 40.4656 19.2774 39.028 18.4742H39.0257ZM47.2958 14.1314C48.1767 13.1547 48.6171 11.8631 48.6171 10.2588C48.6171 8.65451 48.1767 7.34005 47.2958 6.37246C46.4149 5.40488 45.242 4.92109 43.7769 4.92109C42.3118 4.92109 41.1115 5.40032 40.2306 6.36106C39.3497 7.3218 38.9093 8.62028 38.9093 10.2611C38.9093 11.9019 39.3497 13.1798 40.2306 14.1474C41.1115 15.115 42.2936 15.5988 43.7769 15.5988C45.2602 15.5988 46.4149 15.1104 47.2958 14.1337V14.1314Z" fill="white"/>
<path d="M66.3089 19.4964L60.1337 11.3838V19.4964H55.6586V1.12598H60.1337V9.18616L66.2564 1.12598H71.5165L64.3988 10.1286L71.7789 19.4964H66.3089Z" fill="white"/>
<path d="M78.3695 4.71107V8.42623H84.3621V11.8812H78.3695V15.9113H85.1472V19.4964H73.8944V1.12598H85.1472V4.71107H78.3695Z" fill="white"/>
<path d="M97.42 19.4964L93.5999 12.5613H92.5273V19.4964H88.0522V1.12598H95.5625C97.0116 1.12598 98.2439 1.37928 99.2662 1.88589C100.289 2.39251 101.051 3.08625 101.555 3.96484C102.062 4.84571 102.315 5.82699 102.315 6.90867C102.315 8.12957 101.97 9.22039 101.281 10.1788C100.592 11.1373 99.5766 11.8196 98.2324 12.219L102.472 19.4941H97.4223L97.42 19.4964ZM92.5273 9.39382H95.3023C96.1216 9.39382 96.7377 9.193 97.1462 8.79136C97.5547 8.38972 97.7601 7.82378 97.7601 7.09124C97.7601 6.35871 97.5547 5.84296 97.1462 5.44132C96.7354 5.03968 96.1216 4.83886 95.3023 4.83886H92.5273V9.39154V9.39382Z" fill="white"/>
</svg>
