<svg width="26" height="29" viewBox="0 0 26 29" fill="none" xmlns="http://www.w3.org/2000/svg">
<path d="M24.6385 15.8215L19.1038 19.0105L14.4141 14.3947L19.0521 9.76172L24.6471 12.9764C25.742 13.6039 25.742 15.1855 24.6471 15.8129L24.6385 15.8215Z" fill="#FED400"/>
<path d="M19.1064 19.0103L2.47662 28.5857C1.77833 28.9897 0.976576 28.8178 0.476562 28.3106L14.4166 14.3945L19.1064 19.0103Z" fill="#F83345"/>
<path d="M14.4142 14.3864L0.474154 28.3025C0.189663 28.0189 0 27.6149 0 27.1507V1.63928C0 1.22669 0.146553 0.857087 0.387939 0.582031L14.4056 14.395L14.4142 14.3864Z" fill="#00D7FE"/>
<path d="M19.0541 9.76181L14.4161 14.3948L0.398438 0.581816C0.881209 0.0145131 1.74331 -0.200374 2.47608 0.220805L19.0541 9.76181Z" fill="#00EF77"/>
</svg>
