<svg width="28" height="28" viewBox="0 0 28 28" fill="none" xmlns="http://www.w3.org/2000/svg">
<g filter="url(#filter0_d_4378_3486)">
<path d="M23.0124 10.7379C23.0124 15.4729 18.9491 19.3116 13.9368 19.3116C8.92462 19.3116 4.86133 15.4729 4.86133 10.7379C4.86133 6.00279 8.92462 2.16418 13.9368 2.16418C18.9491 2.16418 23.0124 6.00279 23.0124 10.7379Z" fill="white"/>
<mask id="mask0_4378_3486" style="mask-type:luminance" maskUnits="userSpaceOnUse" x="5" y="2" width="18" height="17">
<path d="M17.7266 17.899C21.9123 15.9222 23.6093 11.1142 21.5169 7.1599C19.4245 3.2056 14.335 1.60246 10.1493 3.57917C5.96353 5.55588 4.26655 10.3639 6.35896 14.3182C8.45138 18.2725 13.5408 19.8757 17.7266 17.899Z" fill="white"/>
</mask>
<g mask="url(#mask0_4378_3486)">
<path d="M11.7934 2.38672H1V7.84024H11.7934V2.38672Z" fill="#00237C"/>
<path d="M3.96292 2.38672H1V4.10177L15.4529 13.1173L18.971 11.7488L3.96292 2.38672Z" fill="white"/>
<path d="M1 2.52979V3.70759L15.6447 12.844L16.2184 12.0222L1 2.52979Z" fill="#CF142B"/>
<path d="M27.0004 2.38672H16.207V7.84024H27.0004V2.38672Z" fill="#00237C"/>
<path d="M24.0391 2.38672H27.0003V4.10177L12.5474 13.1173L9.0293 11.7488L24.0391 2.38672Z" fill="white"/>
<path d="M26.9997 2.52975V3.70756L12.355 12.8439L11.7812 12.0222L26.9997 2.52975Z" fill="#CF142B"/>
<path d="M27.0004 13.3764H16.207V18.8299H27.0004V13.3764Z" fill="#00237C"/>
<path d="M24.0391 18.8299H27.0003V17.1149L12.5474 8.09933L9.0293 9.46788L24.0391 18.8299Z" fill="white"/>
<path d="M26.9997 18.6869V17.5075L12.355 8.37271L11.7812 9.19447L26.9997 18.6869Z" fill="#CF142B"/>
<path d="M11.7934 13.3764H1V18.83H11.7934V13.3764Z" fill="#00237C"/>
<path d="M3.96292 18.8299H1V17.1149L15.4529 8.09933L18.971 9.46788L3.96292 18.8299Z" fill="white"/>
<path d="M1 18.6869V17.5075L15.6447 8.37271L16.2184 9.19447L1 18.6869Z" fill="#CF142B"/>
<path d="M27 7.84024H16.2285V2.38672H11.7278V7.84024H1V13.2524H11.7278V18.8299H16.2285V13.2524H27V7.84024Z" fill="white"/>
<path d="M27 8.94652H15.2728V2.38672H12.6834V8.94652H1V12.1462H12.6834V18.8299H15.2728V12.1462H27V8.94652Z" fill="#CF142B"/>
</g>
</g>
<defs>
<filter id="filter0_d_4378_3486" x="0.861328" y="2.16418" width="26.151" height="25.1474" filterUnits="userSpaceOnUse" color-interpolation-filters="sRGB">
<feFlood flood-opacity="0" result="BackgroundImageFix"/>
<feColorMatrix in="SourceAlpha" type="matrix" values="0 0 0 0 0 0 0 0 0 0 0 0 0 0 0 0 0 0 127 0" result="hardAlpha"/>
<feOffset dy="4"/>
<feGaussianBlur stdDeviation="2"/>
<feComposite in2="hardAlpha" operator="out"/>
<feColorMatrix type="matrix" values="0 0 0 0 0 0 0 0 0 0 0 0 0 0 0 0 0 0 0.25 0"/>
<feBlend mode="normal" in2="BackgroundImageFix" result="effect1_dropShadow_4378_3486"/>
<feBlend mode="normal" in="SourceGraphic" in2="effect1_dropShadow_4378_3486" result="shape"/>
</filter>
</defs>
</svg>
