<svg width="52" height="52" viewBox="0 0 52 52" fill="none" xmlns="http://www.w3.org/2000/svg">
<path d="M25.9241 0C39.9553 0 51.3454 11.3901 51.3454 25.4213V25.9241C51.3454 39.9553 39.9553 51.3454 25.9241 51.3454H25.4213C11.3901 51.3454 0 39.9553 0 25.9241C0 11.6166 11.6166 0 25.9241 0Z" fill="white"/>
<path d="M37.9876 18.2178H13.3608C11.9261 18.2178 10.7631 19.3808 10.7631 20.8155V31.7462C10.7631 33.1809 11.9261 34.3439 13.3608 34.3439H37.9876C39.4222 34.3439 40.5852 33.1809 40.5852 31.7462V20.8155C40.5852 19.3808 39.4222 18.2178 37.9876 18.2178Z" fill="#FF0109"/>
<path d="M31.3553 25.6722C31.7215 25.8739 31.7308 26.3953 31.3708 26.6094L27.6683 28.8378L23.9657 31.0661C23.6088 31.2803 23.1526 31.0289 23.1433 30.613L23.0657 26.2898L22.9881 21.9665C22.9819 21.5506 23.4288 21.2806 23.7919 21.4824L27.5752 23.5773L31.3584 25.6722H31.3553Z" fill="white"/>
</svg>
