<svg width="106" height="36" viewBox="0 0 106 36" fill="none" xmlns="http://www.w3.org/2000/svg">
<path d="M37.2434 34.9797L42.5758 0.837149H51.105L45.7687 34.9797H37.2434ZM76.5821 1.57316C74.8926 0.881449 72.2445 0.13916 68.9381 0.13916C60.5105 0.13916 54.5739 4.76975 54.5236 11.4066C54.4758 16.3127 58.7616 19.0496 61.9965 20.6827C65.3166 22.3562 66.4325 23.4234 66.4168 24.9179C66.3958 27.2064 63.7656 28.252 61.3143 28.252C57.9006 28.252 56.087 27.7345 53.2859 26.4597L52.1868 25.9173L50.9898 33.5605C52.9819 34.5135 56.6658 35.3391 60.4905 35.3819C69.456 35.3819 75.2759 30.8043 75.3424 23.717C75.3742 19.833 73.102 16.8773 68.1813 14.4404C65.2002 12.8612 63.3745 11.807 63.3939 10.2079C63.3939 8.78868 64.9392 7.27096 68.2782 7.27096C71.0672 7.22387 73.0878 7.8875 74.6619 8.57904L75.4261 8.9732L76.5821 1.57316ZM98.53 0.836625H91.9394C89.8978 0.836625 88.3698 1.44479 87.4733 3.668L74.8067 34.9572H83.7629C83.7629 34.9572 85.227 30.7499 85.5582 29.8264C86.5372 29.8264 95.2374 29.841 96.4815 29.841C96.7366 31.0363 97.5189 34.9572 97.5189 34.9572H105.433L98.53 0.835579V0.836625ZM88.0735 22.8838C88.7787 20.9166 91.4717 13.3396 91.4717 13.3396C91.4212 13.4306 92.1717 11.3628 92.6024 10.0809L93.1787 13.0247C93.1787 13.0247 94.8121 21.1748 95.1534 22.8838H88.0735ZM30.0028 0.836625L21.6527 24.1204L20.7628 19.3886C19.2084 13.9343 14.3651 8.02494 8.95081 5.06642L16.5858 34.9254L25.6099 34.9143L39.0373 0.836276H30.0028" fill="white"/>
<path d="M13.8618 0.835661H0.108852L0 1.54603C10.6995 4.37217 17.7792 11.2019 20.7187 19.4074L17.7281 3.71744C17.2118 1.55562 15.7146 0.91048 13.8622 0.834961" fill="#F2AE14"/>
</svg>
