<svg width="96" height="64" viewBox="0 0 96 64" fill="none" xmlns="http://www.w3.org/2000/svg">
<path d="M89.115 25.4199L88.4247 30.0083C87.5727 28.7853 86.6578 27.9002 85.4497 27.9002C83.8778 27.9002 82.4472 29.2003 81.5109 31.1137C80.2069 30.8186 78.858 30.3179 78.858 30.3179L78.8573 30.3296C78.9625 29.2599 79.0044 28.6073 78.9951 28.3856H76.1339C75.7444 32.3825 75.0518 36.4311 74.5104 40.433L74.3677 41.3008H77.4833C77.9042 38.3189 78.2266 35.843 78.4636 33.8795C79.528 32.8301 80.0608 31.9144 81.1364 31.9755C80.6602 33.2323 80.3811 34.6795 80.3811 36.1643C80.3811 39.3931 81.8783 41.523 84.1428 41.523C85.2843 41.523 86.16 41.0936 87.0146 40.0981L86.8688 41.2987H89.8151L92.1875 25.4199H89.115ZM85.2197 38.3161C84.1593 38.3161 83.624 37.46 83.624 35.7703C83.624 33.2321 84.6263 31.4318 86.0395 31.4318C87.1097 31.4318 87.6891 32.322 87.6891 33.9622C87.6892 36.5227 86.6711 38.3161 85.2197 38.3161Z" fill="black"/>
<path d="M57.3847 32.1172C57.3847 49.4087 44.5382 63.4238 28.6914 63.4238C12.8447 63.4238 -0.000244141 49.408 -0.000244141 32.1172C-0.000244141 14.8274 12.845 0.810547 28.6914 0.810547C44.5377 0.810547 57.3847 14.8279 57.3847 32.1172Z" fill="#D9222A"/>
<path d="M67.2121 0.810059C59.7986 0.810059 53.0432 3.87898 47.9511 8.9142C46.9137 9.9413 45.9454 11.0485 45.0539 12.2273H50.8508C51.6446 13.2802 52.375 14.3879 53.0382 15.5433H42.8667C42.2549 16.6109 41.703 17.7181 41.2137 18.8585H54.6903C55.1528 19.9373 55.5585 21.0439 55.9051 22.173H39.9989C39.6647 23.2605 39.3864 24.3673 39.165 25.4884H56.7381C57.1679 27.6668 57.3845 29.8889 57.384 32.1174C57.384 35.5941 56.8639 38.9391 55.9048 42.0622H39.9986C40.3445 43.1922 40.7499 44.299 41.2126 45.3778H54.69C54.2003 46.5184 53.6479 47.6257 53.0361 48.6938H42.8662C43.5302 49.85 44.2616 50.9575 45.0536 52.0069H50.8492C49.9589 53.188 48.9902 54.2962 47.9512 55.3228C53.0438 60.3575 59.7984 63.4248 67.2122 63.4248C83.0587 63.4247 95.9055 49.4089 95.9055 32.1182C95.9055 14.829 83.059 0.811627 67.2122 0.811627" fill="#EE9F2D"/>
<path d="M15.2186 40.3567H12.1031L13.8885 28.1501L9.90445 40.3567H7.78143L7.51897 28.2198L5.64354 40.3567H2.72754L5.16321 24.478H9.64199L9.76795 34.3081L12.7896 24.478H17.6275L15.2186 40.3567Z" fill="white"/>
<path d="M22.8877 34.6046C22.5613 34.5635 22.4168 34.5523 22.193 34.5523C20.4274 34.5523 19.5342 35.2129 19.5342 36.5174C19.5342 37.3203 19.9706 37.8336 20.6499 37.8336C21.9198 37.8335 22.8343 36.5153 22.8877 34.6046ZM25.1541 40.3573H22.5733L22.6319 39.0208C21.8454 40.0767 20.7938 40.5818 19.3678 40.5818C17.6788 40.5818 16.522 39.1429 16.522 37.0537C16.522 33.9087 18.5345 32.0757 21.9911 32.0757C22.3442 32.0757 22.7971 32.1105 23.26 32.1753C23.3565 31.7493 23.3818 31.5671 23.3818 31.3367C23.3818 30.4807 22.8397 30.1629 21.3844 30.1629C19.86 30.1441 18.6039 30.5592 18.087 30.7423C18.1196 30.5285 18.5186 27.8405 18.5186 27.8405C20.0705 27.342 21.0954 27.155 22.2462 27.155C24.9217 27.155 26.3388 28.4662 26.3363 30.9406C26.3409 31.6068 26.2396 32.4252 26.0831 33.5001C25.8134 35.3706 25.2327 39.382 25.1541 40.3573ZM66.9336 24.906L66.4234 28.3536C65.3125 27.7438 64.5053 27.4953 63.641 27.4953C61.3152 27.4953 59.6849 29.9472 59.6849 33.4439C59.6849 35.8544 60.781 37.3125 62.5914 37.3125C63.3586 37.3125 64.2051 37.0523 65.2374 36.4968L64.6907 40.1158C63.5424 40.4575 62.802 40.5818 61.9373 40.5818C58.5844 40.5818 56.4947 37.951 56.4947 33.7259C56.4947 28.0489 59.3812 24.0811 63.5098 24.0811C64.8696 24.0812 66.4768 24.7105 66.9336 24.906ZM71.9594 34.6046C71.6332 34.5635 71.4893 34.5523 71.2647 34.5523C69.4997 34.5523 68.6059 35.2129 68.6059 36.5174C68.6059 37.3203 69.0421 37.8336 69.7222 37.8336C70.9909 37.8335 71.906 36.5153 71.9594 34.6046ZM74.2258 40.3573H71.6443L71.7035 39.0208C70.9164 40.0767 69.8653 40.5818 68.4395 40.5818C66.7511 40.5818 65.5937 39.1429 65.5937 37.0537C65.5937 33.9087 67.6069 32.0757 71.0622 32.0757C71.4159 32.0757 71.8681 32.1105 72.3315 32.1753C72.4276 31.7493 72.4535 31.5671 72.4535 31.3367C72.4535 30.4807 71.9113 30.1629 70.4561 30.1629C68.9323 30.1441 67.6755 30.5592 67.1587 30.7423C67.1913 30.5285 67.5909 27.8405 67.5909 27.8405C69.1428 27.342 70.1669 27.155 71.3178 27.155C73.9939 27.155 75.4104 28.4662 75.407 30.9406C75.4125 31.6068 75.3119 32.4252 75.1546 33.5001C74.8858 35.3706 74.3036 39.382 74.2258 40.3573ZM38.9982 40.1617C38.1449 40.4547 37.4803 40.5818 36.7604 40.5818C35.1679 40.5818 34.2988 39.5831 34.2988 37.7449C34.2768 37.1726 34.5285 35.6727 34.7264 34.3024C34.9054 33.0944 36.0764 25.4889 36.0764 25.4889H39.1721L38.811 27.4444H40.4002L39.9772 30.5468H38.3828C38.0231 33.0044 37.5096 36.0615 37.5043 36.4678C37.5043 37.1358 37.8307 37.4241 38.5706 37.4241C38.9254 37.4241 39.2001 37.3863 39.4104 37.3034L38.9982 40.1617ZM48.4915 40.0586C47.4286 40.4132 46.4008 40.5841 45.3139 40.5818C41.8478 40.5782 40.0411 38.603 40.0411 34.8205C40.0411 30.4043 42.3397 27.1552 45.4598 27.1552C48.0125 27.1552 49.6429 28.9741 49.6429 31.8294C49.6429 32.777 49.531 33.7013 49.2621 35.0058H43.0962C42.8875 36.8791 43.9864 37.6604 45.7875 37.6604C46.8952 37.6604 47.8955 37.4103 49.0062 36.8449L48.4915 40.0586ZM46.7505 32.3999C46.7692 32.1316 47.0796 30.0947 45.3099 30.0947C44.3243 30.0947 43.6189 30.9174 43.3318 32.3999H46.7505ZM27.0228 31.5271C27.0228 33.1605 27.7488 34.2856 29.3952 35.1331C30.6565 35.7798 30.8517 35.9723 30.8517 36.558C30.8517 37.3633 30.2949 37.7266 29.0635 37.7266C28.1337 37.7266 27.2693 37.5682 26.2715 37.2173C26.2715 37.2173 25.8633 40.0636 25.8448 40.1997C26.5513 40.3683 27.1833 40.5223 29.0854 40.5818C32.3729 40.5818 33.8901 39.2164 33.8901 36.2659C33.8901 34.4904 33.2554 33.4491 31.6942 32.6666C30.3888 32.0111 30.2377 31.8672 30.2377 31.2633C30.2377 30.5656 30.7564 30.2067 31.7628 30.2067C32.3735 30.2067 33.2087 30.2799 34.0012 30.4029L34.4441 27.4065C33.6384 27.267 32.4156 27.1552 31.7035 27.1552C28.2183 27.1552 27.0129 29.1398 27.0228 31.5271ZM90.7119 40.3573H87.7649L87.9115 39.1551C87.0568 40.1522 86.1812 40.5818 85.0396 40.5818C82.775 40.5818 81.2785 38.4517 81.2785 35.2231C81.2785 30.9273 83.5996 27.3061 86.3469 27.3061C87.555 27.3061 88.4697 27.8447 89.3207 29.0669L90.012 24.4785H93.0843L90.7119 40.3573ZM86.1173 37.3734C87.5678 37.3734 88.5868 35.5799 88.5868 33.0213C88.5868 31.381 88.0066 30.4908 86.9364 30.4908C85.5238 30.4908 84.5203 32.2902 84.5203 34.8293C84.5201 36.5186 85.0569 37.3734 86.1173 37.3734ZM77.0313 27.4444C76.6415 31.4413 75.9487 35.4899 75.407 39.4897L75.2646 40.3573H78.3801C79.4943 32.4609 79.764 30.9188 81.5111 31.112C81.7895 29.496 82.3074 28.0803 82.6938 27.3659C81.389 27.0694 80.6604 27.874 79.7066 29.4021C79.7819 28.7416 79.9199 28.1 79.8925 27.4444H77.0313ZM51.3895 27.4444C50.9985 31.4413 50.3057 35.4899 49.7643 39.4897L49.6226 40.3573H52.7395C53.8523 32.4609 54.1215 30.9188 55.8674 31.112C56.1472 29.496 56.6654 28.0803 57.0503 27.3659C55.7469 27.0694 55.0177 27.874 54.0647 29.4021C54.1399 28.7416 54.2765 28.1 54.2505 27.4444H51.3895ZM92.0805 39.3465C92.0805 38.7859 92.4954 38.3349 93.0069 38.3349C93.5179 38.3344 93.9327 38.7861 93.9332 39.3439V39.3465C93.9331 39.9046 93.5184 40.357 93.0069 40.3573C92.4954 40.357 92.0808 39.9046 92.0805 39.3465ZM93.0069 40.1146C93.3957 40.1147 93.7107 39.771 93.7107 39.347V39.3466C93.7112 38.9223 93.3961 38.5782 93.0076 38.5778H93.0069C92.6177 38.578 92.3023 38.9221 92.3022 39.3466C92.3027 39.7708 92.618 40.1146 93.0069 40.1146ZM92.8816 39.7884H92.6917V38.9017H93.036C93.1073 38.9017 93.1812 38.9031 93.2432 38.946C93.3097 38.9954 93.3477 39.0798 93.3477 39.1682C93.3477 39.2685 93.2937 39.3623 93.2058 39.3979L93.3562 39.7879H93.1454L93.0207 39.4377H92.8816V39.7879V39.7884ZM92.8816 39.2861H92.9861C93.0253 39.2861 93.0681 39.2893 93.1027 39.2687C93.1338 39.2469 93.1498 39.2057 93.1498 39.1663C93.1484 39.1297 93.1314 39.0958 93.1039 39.0749C93.0713 39.0545 93.0173 39.0601 92.982 39.0601H92.8815L92.8816 39.2861Z" fill="white"/>
</svg>
