<svg width="56" height="50" viewBox="0 0 56 50" fill="none" xmlns="http://www.w3.org/2000/svg">
<path fill-rule="evenodd" clip-rule="evenodd" d="M21.0017 11.2151V25.0561L18.415 19.2802H12.5825V15.5476L21.0017 11.2151Z" fill="#00DAFF"/>
<path fill-rule="evenodd" clip-rule="evenodd" d="M31.8945 5.60629V30.7164L30.9134 32.9196L28.2283 38.9439C28.0685 39.4775 27.9111 40.011 27.7513 40.5446L23.4777 30.5861V9.94131L31.8945 5.60875V5.60629Z" fill="#00DAFF"/>
<path fill-rule="evenodd" clip-rule="evenodd" d="M42.7898 0V19.2801H36.9942L34.3706 25.1643V4.33256L42.7898 0Z" fill="#00DAFF"/>
<path fill-rule="evenodd" clip-rule="evenodd" d="M42.8636 23.6619V46.3992C42.8636 47.4737 42.9201 48.1475 43.0333 48.4155C43.1464 48.686 43.38 48.9196 43.7316 49.1212C44.0832 49.3228 44.5553 49.4236 45.1454 49.4236H45.829V49.9966H34.8427V49.4236H35.5263C36.1459 49.4236 36.6426 49.3155 37.0164 49.0966C37.2745 48.9515 37.4811 48.7032 37.6385 48.3516C37.7516 48.1032 37.8081 47.4516 37.8081 46.3968V29.6247L30.5962 40.7143C30.3602 40.7438 30.1216 40.7684 29.8831 40.788C29.6692 40.8077 29.4528 40.8225 29.2364 40.8323L28.9586 40.1856L31.5503 33.9548L31.5552 33.9646L37.2647 20.0916H45.8315V20.6645H45.1479C44.5283 20.6645 44.0291 20.7727 43.6578 20.9915C43.3996 21.1366 43.1931 21.38 43.0382 21.7218C42.9251 21.9702 42.8685 22.6169 42.8685 23.6619" fill="#006EFF"/>
<path fill-rule="evenodd" clip-rule="evenodd" d="M12.5185 23.6619V46.3992C12.5185 47.4737 12.4619 48.1475 12.3488 48.4155C12.2357 48.686 12.0021 48.9196 11.6505 49.1212C11.2989 49.3228 10.8268 49.4236 10.2391 49.4236H9.55551V49.9966H20.5418V49.4236H19.8582C19.2386 49.4236 18.7419 49.3155 18.3682 49.0966C18.11 48.9515 17.9034 48.7032 17.7485 48.3516C17.6354 48.1032 17.5764 47.4516 17.5764 46.3968V29.6247C20.0722 33.4704 22.5679 37.3161 25.0637 41.1593C25.1498 41.1864 25.3883 41.2454 25.6711 41.1544C25.9342 41.0708 26.0891 40.9036 26.1481 40.8323C26.3374 40.7856 26.5267 40.7389 26.7185 40.6897C25.7571 38.4447 24.7957 36.1998 23.8367 33.9548V33.9646L18.1223 20.0916H9.55551V20.6645H10.2391C10.8587 20.6645 11.3579 20.7727 11.7292 20.9915C11.9874 21.1366 12.1939 21.38 12.3488 21.7218C12.4619 21.9702 12.5185 22.6169 12.5185 23.6619Z" fill="#006EFF"/>
<path fill-rule="evenodd" clip-rule="evenodd" d="M6.39583 27.9206C6.39583 27.9206 -7.56081 46.1655 20.1361 41.9756C48.1453 37.7389 52.4385 21.4832 52.1139 19.4301C51.7967 17.4261 50.2943 13.1427 42.453 12.9484C42.453 12.9484 64.6862 11.8862 51.8139 27.9058C38.9417 43.9255 13.9963 46.0328 7.85641 46.1852C1.71411 46.3377 -5.50026 38.4397 6.39583 27.9206Z" fill="#00DAFF"/>
</svg>
