<svg width="52" height="52" viewBox="0 0 52 52" fill="none" xmlns="http://www.w3.org/2000/svg">
<path d="M51.3423 25.6711C51.3423 11.4934 39.8489 0 25.6711 0C11.4934 0 0 11.4934 0 25.6711C0 39.8489 11.4934 51.3423 25.6711 51.3423C39.8489 51.3423 51.3423 39.8489 51.3423 25.6711Z" fill="white"/>
<path d="M36.6158 33.6016C33.956 30.405 31.2932 27.2083 28.6334 24.0085C28.6024 23.9713 28.5714 23.934 28.5403 23.8968L37.5065 13.0809L35.1106 12.8574L27.1934 22.2767L19.7417 13.323L19.1924 13.3695C17.5196 13.5123 15.8468 13.6519 14.1739 13.7916L12.1566 13.9623L16.4582 19.1732C18.6306 21.8081 20.8062 24.4399 22.9787 27.0748C23.0098 27.1121 23.0377 27.1493 23.0687 27.1835L13.845 38.1545L16.4519 38.4866L24.4436 28.8439L26.4175 31.2398C27.9941 33.1516 29.5707 35.0634 31.1473 36.9721L31.5042 37.4035L39.1918 36.6897L36.6189 33.5985L36.6158 33.6016ZM32.4229 35.1938C30.9642 33.4278 29.5086 31.6588 28.05 29.8929L25.9116 27.3014C25.4771 26.7769 25.0426 26.2524 24.6112 25.7248C22.4387 23.0899 20.2662 20.4549 18.0906 17.8231L16.365 15.7313C17.1844 15.663 18.0006 15.5948 18.82 15.5234L25.7192 23.8161C26.1475 24.3313 26.5789 24.8465 27.0072 25.3617C29.6669 28.5583 32.3267 31.755 34.9864 34.9517L32.4229 35.1907V35.1938Z" fill="black"/>
</svg>
