<svg width="106" height="20" viewBox="0 0 106 20" fill="none" xmlns="http://www.w3.org/2000/svg">
<path d="M13.5804 10.0109C13.0898 10.8941 12.3367 11.6083 11.3235 12.1515C10.3079 12.6946 9.04826 12.9662 7.54439 12.9662H4.76258V19.5818H0.273804V1.1543H7.54439C9.01403 1.1543 10.2577 1.4076 11.271 1.9165C12.2865 2.42311 13.0464 3.1237 13.5553 4.01597C14.0619 4.90825 14.3175 5.9329 14.3175 7.08761C14.3175 8.15561 14.0733 9.13004 13.5827 10.0155L13.5804 10.0109ZM9.11901 8.79001C9.5389 8.38837 9.74885 7.81786 9.74885 7.08304C9.74885 6.34822 9.5389 5.78 9.11901 5.37608C8.69911 4.97444 8.06013 4.77133 7.20209 4.77133H4.7603V9.39247H7.20209C8.06013 9.39247 8.69911 9.19165 9.11901 8.78773V8.79001Z" fill="white"/>
<path d="M28.1234 16.3266H21.2453L20.1431 19.5808H15.4443L22.1125 1.15332H27.311L33.9791 19.5808H29.2279L28.1256 16.3266H28.1234ZM26.9687 12.8602L24.6843 6.11448L22.4274 12.8602H26.9687Z" fill="white"/>
<path d="M51.8023 1.15332L45.424 13.49V19.5808H40.9352V13.49L34.5569 1.15332H39.6504L43.2195 8.87119L46.7635 1.15332H51.8046H51.8023Z" fill="white"/>
<path d="M57.5621 18.555C56.1176 17.7494 54.972 16.6266 54.1231 15.1821C53.2741 13.7376 52.8497 12.115 52.8497 10.3122C52.8497 8.50939 53.2741 6.89142 54.1231 5.45601C54.972 4.02061 56.1176 2.90012 57.5621 2.09684C59.0066 1.29128 60.5949 0.889648 62.327 0.889648C64.0591 0.889648 65.6474 1.29128 67.0919 2.09684C68.5364 2.90241 69.6729 4.02289 70.5036 5.45601C71.3342 6.89142 71.7496 8.50939 71.7496 10.3122C71.7496 12.115 71.3297 13.7376 70.4899 15.1821C69.6501 16.6266 68.5113 17.7494 67.0782 18.555C65.6428 19.3605 64.0591 19.7621 62.327 19.7621C60.5949 19.7621 59.0066 19.3605 57.5621 18.555ZM65.8573 14.1985C66.7405 13.2195 67.1832 11.9233 67.1832 10.3145C67.1832 8.70565 66.7405 7.38663 65.8573 6.41676C64.9742 5.44461 63.7966 4.96081 62.327 4.96081C60.8574 4.96081 59.6547 5.44232 58.7693 6.40535C57.8861 7.36837 57.4434 8.67142 57.4434 10.3168C57.4434 11.9621 57.8861 13.2446 58.7693 14.2145C59.6524 15.1867 60.8391 15.6704 62.327 15.6704C63.8149 15.6704 64.9742 15.1798 65.8573 14.2008V14.1985Z" fill="white"/>
<path d="M78.6555 1.15332V12.1779C78.6555 13.2801 78.9271 14.129 79.4702 14.7246C80.0133 15.3202 80.8098 15.6169 81.8595 15.6169C82.9092 15.6169 83.7148 15.3202 84.2739 14.7246C84.833 14.129 85.1137 13.2801 85.1137 12.1779V1.15332H89.6025V12.1528C89.6025 13.7981 89.2533 15.1902 88.5527 16.3266C87.8522 17.4654 86.912 18.3211 85.7299 18.8985C84.5478 19.4759 83.231 19.7657 81.7796 19.7657C80.3283 19.7657 79.0275 19.4804 77.8819 18.9122C76.7363 18.344 75.8304 17.4859 75.164 16.3403C74.4976 15.1947 74.1667 13.7981 74.1667 12.1528V1.15332H78.6555Z" fill="white"/>
<path d="M106.009 1.15332V4.74982H101.125V19.5808H96.6365V4.74982H91.7529V1.15332H106.007H106.009Z" fill="white"/>
</svg>
