<svg width="41" height="45" viewBox="0 0 41 45" fill="none" xmlns="http://www.w3.org/2000/svg">
<path d="M36.45 0H4.05C1.8225 0 0 2.025 0 4.50001V36.09C0 38.565 1.8225 40.59 4.05 40.59H8.1C8.8425 40.59 9.45 39.915 9.45 39.09C9.45 38.265 8.8425 37.59 8.1 37.59H4.05C3.3075 37.59 2.7 36.915 2.7 36.09V12H37.8V36.09C37.8 36.915 37.1925 37.59 36.45 37.59H32.4C31.6575 37.59 31.05 38.265 31.05 39.09C31.05 39.915 31.6575 40.59 32.4 40.59H36.45C38.6775 40.59 40.5 38.565 40.5 36.09V4.50001C40.5 2.025 38.6775 0 36.45 0ZM2.7 9.00001V4.50001C2.7 3.675 3.3075 3 4.05 3H36.45C37.1925 3 37.8 3.675 37.8 4.50001V9.00001H2.7Z" fill="#006EFF"/>
<path d="M6.07534 32.3398C5.33284 32.3398 4.72534 33.0148 4.72534 33.8398C4.72534 34.6648 5.33284 35.3398 6.07534 35.3398H8.10034C8.84284 35.3398 9.45034 34.6648 9.45034 33.8398C9.45034 33.0148 8.84284 32.3398 8.10034 32.3398H6.07534Z" fill="#006EFF"/>
<path d="M32.4005 32.3398C31.658 32.3398 31.0505 33.0148 31.0505 33.8398C31.0505 34.6648 31.658 35.3398 32.4005 35.3398H34.4255C35.168 35.3398 35.7755 34.6648 35.7755 33.8398C35.7755 33.0148 35.168 32.3398 34.4255 32.3398H32.4005Z" fill="#006EFF"/>
<path d="M24.9751 14.25H20.2501C19.5076 14.25 18.9001 14.925 18.9001 15.75C18.9001 16.575 19.5076 17.25 20.2501 17.25H24.9751C25.7176 17.25 26.3251 16.575 26.3251 15.75C26.3251 14.925 25.7176 14.25 24.9751 14.25Z" fill="#006EFF"/>
<path d="M15.5255 17.25H16.2005C16.943 17.25 17.5505 16.575 17.5505 15.75C17.5505 14.925 16.943 14.25 16.2005 14.25H15.5255C14.783 14.25 14.1755 14.925 14.1755 15.75C14.1755 16.575 14.783 17.25 15.5255 17.25Z" fill="#006EFF"/>
<path d="M24.9755 20.25H15.5255C14.783 20.25 14.1755 20.925 14.1755 21.75C14.1755 22.575 14.783 23.25 15.5255 23.25H24.9755C25.718 23.25 26.3255 22.575 26.3255 21.75C26.3255 20.925 25.718 20.25 24.9755 20.25Z" fill="#006EFF"/>
<path d="M6.88534 4.5H6.07534C5.33284 4.5 4.72534 5.175 4.72534 6C4.72534 6.825 5.33284 7.5 6.07534 7.5H6.88534C7.62784 7.5 8.23534 6.825 8.23534 6C8.23534 5.175 7.62784 4.5 6.88534 4.5Z" fill="#006EFF"/>
<path d="M12.2859 4.5H11.4759C10.7334 4.5 10.1259 5.175 10.1259 6C10.1259 6.825 10.7334 7.5 11.4759 7.5H12.2859C13.0284 7.5 13.6359 6.825 13.6359 6C13.6359 5.175 13.0284 4.5 12.2859 4.5Z" fill="#006EFF"/>
<path d="M17.6849 4.5H16.8749C16.1324 4.5 15.5249 5.175 15.5249 6C15.5249 6.825 16.1324 7.5 16.8749 7.5H17.6849C18.4274 7.5 19.0349 6.825 19.0349 6C19.0349 5.175 18.4274 4.5 17.6849 4.5Z" fill="#006EFF"/>
<path d="M7.69534 19.05H10.9353C11.6778 19.05 12.2853 18.375 12.2853 17.55C12.2853 16.725 11.6778 16.05 10.9353 16.05H9.85534V15.75C9.85534 14.925 9.24784 14.25 8.50534 14.25C7.76284 14.25 7.15534 14.925 7.15534 15.75V16.11C5.77834 16.395 4.72534 17.73 4.72534 19.35C4.72534 21.165 6.06184 22.65 7.69534 22.65H9.31534C9.46384 22.65 9.58534 22.785 9.58534 22.95C9.58534 23.115 9.46384 23.25 9.31534 23.25H6.07534C5.33284 23.25 4.72534 23.925 4.72534 24.75C4.72534 25.575 5.33284 26.25 6.07534 26.25H7.15534V26.55C7.15534 27.375 7.76284 28.05 8.50534 28.05C9.24784 28.05 9.85534 27.375 9.85534 26.55V26.19C11.2323 25.905 12.2853 24.57 12.2853 22.95C12.2853 21.135 10.9488 19.65 9.31534 19.65H7.69534C7.54684 19.65 7.42534 19.515 7.42534 19.35C7.42534 19.185 7.54684 19.05 7.69534 19.05Z" fill="#006EFF"/>
<path d="M33.3463 26.55V26.19C34.7233 25.905 35.7763 24.57 35.7763 22.95C35.7763 21.135 34.4398 19.65 32.8063 19.65H31.1863C31.0378 19.65 30.9163 19.515 30.9163 19.35C30.9163 19.185 31.0378 19.05 31.1863 19.05H34.4263C35.1688 19.05 35.7763 18.375 35.7763 17.55C35.7763 16.725 35.1688 16.05 34.4263 16.05H33.3463V15.75C33.3463 14.925 32.7388 14.25 31.9963 14.25C31.2538 14.25 30.6463 14.925 30.6463 15.75V16.11C29.2693 16.395 28.2163 17.73 28.2163 19.35C28.2163 21.165 29.5528 22.65 31.1863 22.65H32.8063C32.9548 22.65 33.0763 22.785 33.0763 22.95C33.0763 23.115 32.9548 23.25 32.8063 23.25H29.5663C28.8238 23.25 28.2163 23.925 28.2163 24.75C28.2163 25.575 28.8238 26.25 29.5663 26.25H30.6463V26.55C30.6463 27.375 31.2538 28.05 31.9963 28.05C32.7388 28.05 33.3463 27.375 33.3463 26.55Z" fill="#006EFF"/>
<path d="M27.0007 27.855H13.5007C12.0157 27.855 10.8007 29.205 10.8007 30.855V42C10.8007 43.65 12.0157 45 13.5007 45H27.0007C28.4857 45 29.7007 43.65 29.7007 42V30.855C29.7007 29.205 28.4857 27.855 27.0007 27.855ZM24.9757 41.685H15.5257C14.7832 41.685 14.1757 41.01 14.1757 40.185C14.1757 39.36 14.7832 38.685 15.5257 38.685H16.2007V32.685C16.2007 31.86 16.8082 31.185 17.5507 31.185C18.2932 31.185 18.9007 31.86 18.9007 32.685V38.685H21.6007V34.935C21.6007 34.11 22.2082 33.435 22.9507 33.435C23.6932 33.435 24.3007 34.11 24.3007 34.935V38.685H24.9757C25.7182 38.685 26.3257 39.36 26.3257 40.185C26.3257 41.01 25.7182 41.685 24.9757 41.685Z" fill="#006EFF"/>
</svg>
