<svg width="121" height="36" viewBox="0 0 121 36" fill="none" xmlns="http://www.w3.org/2000/svg">
<path d="M20.3761 2.34796C18.8673 1.21618 16.8985 0.648926 14.4696 0.648926H5.06615C4.32154 0.648926 3.91017 1.05526 3.83202 1.86694L0.0119904 28.0306C-0.0277099 28.2876 0.0312117 28.5226 0.188217 28.7362C0.344323 28.9505 0.540669 29.0569 0.775818 29.0569H5.24238C6.02578 29.0569 6.45638 28.6515 6.53542 27.8385L7.59314 20.785C7.63176 20.4432 7.76954 20.1652 8.00469 19.9512C8.23966 19.7375 8.53355 19.5976 8.88618 19.5337C9.23882 19.4702 9.57133 19.4382 9.88534 19.4382C10.1985 19.4382 10.5705 19.4598 11.0022 19.5023C11.4328 19.545 11.7072 19.5658 11.8249 19.5658C15.1942 19.5658 17.8389 18.5299 19.759 16.4559C21.6783 14.3827 22.639 11.5078 22.639 7.8306C22.639 5.30832 21.8842 3.4807 20.3761 2.34717V2.34796ZM15.5276 10.2041C15.3311 11.7007 14.8224 12.6835 13.9996 13.1539C13.1767 13.6249 12.0013 13.8589 10.4735 13.8589L8.53391 13.9232L9.53325 7.06145C9.61121 6.59161 9.86576 6.35639 10.2971 6.35639H11.4141C12.9805 6.35639 14.1175 6.60278 14.8227 7.09359C15.5276 7.58558 15.7628 8.62288 15.5276 10.2041Z" fill="white"/>
<path d="M119.611 0.647949H115.262C114.83 0.647949 114.576 0.883166 114.498 1.3534L110.678 28.0306L110.619 28.1588C110.619 28.3736 110.697 28.5757 110.854 28.7682C111.01 28.9601 111.207 29.0565 111.442 29.0565H115.321C116.065 29.0565 116.476 28.6512 116.556 27.8383L120.376 1.60998V1.54627C120.375 0.947849 120.12 0.648538 119.611 0.648538V0.647949Z" fill="white"/>
<path d="M67.0699 10.9739C67.0699 10.7606 66.9912 10.5572 66.8353 10.3651C66.6781 10.1728 66.5017 10.0762 66.3063 10.0762H61.781C61.3491 10.0762 60.9967 10.291 60.7229 10.7173L54.4932 20.7218L51.9074 11.1025C51.7105 10.4188 51.28 10.0762 50.6144 10.0762H46.206C46.0097 10.0762 45.8333 10.1726 45.6775 10.3651C45.5204 10.5572 45.4424 10.7608 45.4424 10.9739C45.4424 11.0602 45.8245 12.3207 46.5883 14.7575C47.3521 17.1947 48.1751 19.824 49.0567 22.6458C49.9384 25.4672 50.3983 26.9641 50.4378 27.1341C47.2248 31.9227 45.6188 34.4881 45.6188 34.8295C45.6188 35.3858 45.8733 35.6633 46.3828 35.6633H50.9081C51.3391 35.6633 51.6915 35.4501 51.9662 35.0222L66.953 11.4224C67.0307 11.3375 67.0699 11.1885 67.0699 10.9737V10.9739Z" fill="white"/>
<path d="M109.209 10.0765H104.743C104.194 10.0765 103.862 10.782 103.744 12.1928C102.724 10.4836 100.864 9.62744 98.1604 9.62744C95.3393 9.62744 92.9392 10.782 90.961 13.0906C88.9821 15.3994 87.9932 18.1146 87.9932 21.2351C87.9932 23.7579 88.6688 25.767 90.0204 27.2628C91.372 28.7601 93.184 29.5073 95.4574 29.5073C96.5932 29.5073 97.749 29.2504 98.9244 28.7378C100.1 28.2248 101.02 27.5411 101.687 26.6858C101.687 26.7287 101.647 26.9206 101.57 27.2624C101.491 27.6051 101.452 27.8622 101.452 28.032C101.452 28.7168 101.706 29.0579 102.216 29.0579H106.272C107.015 29.0579 107.447 28.6525 107.564 27.8395L109.974 11.1022C110.012 10.8457 109.954 10.6108 109.797 10.3968C109.64 10.1837 109.445 10.0765 109.209 10.0765ZM101.54 22.7099C100.541 23.7787 99.336 24.313 97.9256 24.313C96.7889 24.313 95.8689 23.9716 95.1633 23.2871C94.4577 22.6044 94.105 21.6637 94.105 20.4653C94.105 18.8847 94.5949 17.5479 95.5747 16.4577C96.553 15.3675 97.7688 14.8223 99.2185 14.8223C100.315 14.8223 101.226 15.1752 101.951 15.8802C102.675 16.5857 103.039 17.5587 103.039 18.7984C103.039 20.3373 102.539 21.6416 101.54 22.7099Z" fill="white"/>
<path d="M42.4452 10.0765H37.9786C37.4293 10.0765 37.097 10.782 36.9793 12.1928C35.9214 10.4836 34.0602 9.62744 31.3959 9.62744C28.5749 9.62744 26.1747 10.782 24.1963 13.0906C22.2174 15.3994 21.2285 18.1146 21.2285 21.2351C21.2285 23.7579 21.9045 25.767 23.2563 27.2628C24.6081 28.7601 26.4197 29.5073 28.6925 29.5073C29.7891 29.5073 30.926 29.2504 32.1012 28.7378C33.2766 28.2248 34.217 27.5411 34.9223 26.6858C34.7651 27.1985 34.6871 27.6476 34.6871 28.032C34.6871 28.7168 34.9417 29.0579 35.4511 29.0579H39.5063C40.2502 29.0579 40.6817 28.6525 40.7993 27.8395L43.2088 11.1022C43.2475 10.8457 43.1887 10.6108 43.0326 10.3968C42.8758 10.1837 42.6802 10.0765 42.4452 10.0765ZM34.7755 22.7416C33.7762 23.7905 32.5512 24.313 31.1024 24.313C29.9655 24.313 29.0545 23.9716 28.3694 23.2871C27.6833 22.6044 27.3407 21.6637 27.3407 20.4653C27.3407 18.8847 27.8303 17.5479 28.8102 16.4577C29.7891 15.3675 31.0038 14.8223 32.454 14.8223C33.5505 14.8223 34.4615 15.1752 35.187 15.8804C35.9114 16.5859 36.2742 17.5589 36.2742 18.7986C36.2742 20.3803 35.7746 21.6953 34.7755 22.7416Z" fill="white"/>
<path d="M87.1408 2.34747C85.6322 1.2157 83.6637 0.648438 81.2345 0.648438H71.8896C71.1057 0.648438 70.6744 1.05477 70.5967 1.86645L66.7765 28.0301C66.7368 28.2873 66.7956 28.5223 66.9528 28.7359C67.1081 28.95 67.3052 29.0564 67.5404 29.0564H72.3594C72.8295 29.0564 73.1428 28.7789 73.2998 28.223L74.3579 20.7845C74.3967 20.4427 74.5339 20.1647 74.7692 19.9507C75.0044 19.737 75.2979 19.5973 75.6509 19.5332C76.0034 19.4697 76.3357 19.4377 76.6501 19.4377C76.9632 19.4377 77.3352 19.4593 77.7663 19.5018C78.1973 19.5446 78.4725 19.5653 78.5891 19.5653C81.9591 19.5653 84.6032 18.5294 86.5234 16.4554C88.4434 14.3822 89.4032 11.5073 89.4032 7.83011C89.4036 5.30803 88.6489 3.48041 87.1408 2.34688V2.34747ZM81.1168 12.8968C80.2547 13.538 78.9617 13.8584 77.238 13.8584L75.3572 13.9227L76.3564 7.06096C76.434 6.59112 76.6885 6.35591 77.1202 6.35591H78.1777C79.0396 6.35591 79.7251 6.39864 80.2353 6.4839C80.7439 6.57015 81.2345 6.83653 81.7046 7.28539C82.1749 7.73446 82.4098 8.38659 82.4098 9.24159C82.4098 11.0371 81.9784 12.2553 81.1168 12.8968Z" fill="white"/>
</svg>
