<svg width="52" height="52" viewBox="0 0 52 52" fill="none" xmlns="http://www.w3.org/2000/svg">
<path d="M51.3422 25.6711C51.3422 11.4934 39.8489 0 25.6711 0C11.4934 0 0 11.4934 0 25.6711C0 39.8489 11.4934 51.3422 25.6711 51.3422C39.8489 51.3422 51.3422 39.8489 51.3422 25.6711Z" fill="white"/>
<path d="M27.2679 22.8884C27.6248 22.488 27.9165 22.0846 28.2827 21.7401C29.4062 20.6818 30.7346 20.148 32.2832 20.1604C33.1336 20.1666 33.9778 20.2286 34.8002 20.4676C36.6779 21.0107 37.7703 22.3049 38.2917 24.1391C38.6828 25.514 38.7542 26.9292 38.7573 28.3476C38.7635 31.3363 38.748 34.3281 38.7573 37.3169C38.7573 37.5962 38.6797 37.6707 38.4035 37.6676C36.8641 37.6551 35.3216 37.6551 33.7823 37.6676C33.5122 37.6676 33.4533 37.5869 33.4533 37.3293C33.4626 34.4833 33.4626 31.6373 33.4533 28.7945C33.4533 28.0807 33.4067 27.3699 33.205 26.6747C32.8357 25.3992 31.9232 24.7474 30.5856 24.8188C28.7576 24.915 27.8079 25.8213 27.5751 27.6772C27.5193 28.121 27.4944 28.5648 27.4944 29.0117C27.4944 31.7801 27.4944 34.5454 27.5006 37.3137C27.5006 37.59 27.4324 37.6707 27.1499 37.6676C25.5982 37.6551 24.0464 37.6551 22.4946 37.6676C22.2463 37.6676 22.1749 37.6024 22.1749 37.351C22.1811 31.8732 22.1811 26.3954 22.1749 20.9145C22.1749 20.6445 22.2649 20.5793 22.5194 20.5824C23.9936 20.5949 25.4678 20.5949 26.9389 20.5824C27.2089 20.5824 27.2803 20.6662 27.2741 20.9238C27.2586 21.5787 27.2679 22.2335 27.2679 22.8884Z" fill="#2967B0"/>
<path d="M18.8293 29.1481C18.8293 31.8576 18.8262 34.5701 18.8355 37.2795C18.8355 37.5805 18.761 37.6705 18.4506 37.6674C16.9113 37.6519 15.3719 37.655 13.8325 37.6674C13.5843 37.6674 13.5129 37.6085 13.5129 37.3509C13.5191 31.8638 13.5191 26.3767 13.5129 20.8896C13.5129 20.4768 13.696 20.5482 14.8505 20.7189C15.8499 20.8678 16.8709 20.8523 17.8641 20.6661C18.7455 20.5016 18.8355 20.573 18.8355 20.9547C18.8293 23.6859 18.8324 26.4201 18.8324 29.1512L18.8293 29.1481Z" fill="#2967B0"/>
<path d="M19.2545 15.1451C19.2545 17.5534 16.4923 19.3287 13.9784 17.4448C11.9518 14.9433 13.7581 12.085 16.182 12.085C17.8641 12.085 19.2514 13.4691 19.2514 15.1451H19.2545Z" fill="#2967B0"/>
</svg>
