<svg width="23" height="29" viewBox="0 0 23 29" fill="none" xmlns="http://www.w3.org/2000/svg">
<path d="M19.1539 14.9373C19.1194 11.3874 22.0677 9.6597 22.2057 9.58234C20.5332 7.15841 17.9469 6.82319 17.0417 6.7974C14.8693 6.56532 12.7571 8.09532 11.6537 8.09532C10.5502 8.09532 8.81737 6.82319 6.98111 6.85757C4.61897 6.89195 2.4034 8.25864 1.18784 10.3817C-1.31222 14.7053 0.549896 21.0573 2.94651 24.5471C4.14482 26.2576 5.55003 28.1744 7.38629 28.097C9.17944 28.0283 9.85188 26.9538 12.0244 26.9538C14.1968 26.9538 14.8003 28.097 16.671 28.0541C18.5935 28.0197 19.8091 26.335 20.9643 24.6073C22.3522 22.6475 22.904 20.7135 22.9298 20.619C22.8867 20.6018 19.1883 19.1921 19.1539 14.9373Z" fill="url(#paint0_linear_4833_82)"/>
<path d="M15.6183 4.50404C16.5838 3.30067 17.2476 1.65893 17.058 0C15.6614 0.0601685 13.9113 0.962695 12.9027 2.14028C12.0061 3.18033 11.213 4.88224 11.4199 6.481C12.9889 6.60134 14.601 5.69022 15.6097 4.50404" fill="url(#paint1_linear_4833_82)"/>
<defs>
<linearGradient id="paint0_linear_4833_82" x1="11.4649" y1="12.3202" x2="11.4649" y2="22.5526" gradientUnits="userSpaceOnUse">
<stop stop-color="#5CE9FF"/>
<stop offset="1" stop-color="#277BF0"/>
</linearGradient>
<linearGradient id="paint1_linear_4833_82" x1="14.2386" y1="1.68844" x2="14.2386" y2="4.80324" gradientUnits="userSpaceOnUse">
<stop stop-color="#5CE9FF"/>
<stop offset="1" stop-color="#277BF0"/>
</linearGradient>
</defs>
</svg>
