<svg width="151" height="78" viewBox="0 0 151 78" fill="none" xmlns="http://www.w3.org/2000/svg">
<circle cx="38.728" cy="38.728" r="27" transform="rotate(-129.755 38.728 38.728)" stroke="#0F3D62"/>
<path d="M24.0331 38.0246C23.578 38.4032 23.4732 39.0276 23.799 39.4193L29.1083 45.8019C29.4341 46.1936 30.0672 46.2042 30.5223 45.8256C30.9775 45.447 31.0823 44.8226 30.7565 44.4309L26.0371 38.7574L32.6298 33.2733C33.0849 32.8947 33.1897 32.2703 32.8639 31.8786C32.5381 31.487 31.905 31.4764 31.4499 31.855L24.0331 38.0246ZM53.7719 39.2217L53.9374 38.2355L24.7886 37.7476L24.6231 38.7338L24.4575 39.72L53.6063 40.2079L53.7719 39.2217Z" fill="#0F3D62"/>
<circle cx="27.5" cy="27.5" r="27" transform="matrix(0.639509 -0.768784 -0.768784 -0.639509 115.511 77.4561)" stroke="#0F3D62"/>
<path d="M126.651 38.0246C127.106 38.4032 127.211 39.0276 126.885 39.4193L121.576 45.8019C121.25 46.1936 120.617 46.2042 120.162 45.8256C119.707 45.447 119.602 44.8226 119.928 44.4309L124.647 38.7574L118.054 33.2733C117.599 32.8947 117.494 32.2703 117.82 31.8786C118.146 31.487 118.779 31.4764 119.234 31.855L126.651 38.0246ZM96.9122 39.2217L96.7467 38.2355L125.895 37.7476L126.061 38.7338L126.227 39.72L97.0778 40.2079L96.9122 39.2217Z" fill="#0F3D62"/>
</svg>
