<svg width="121" height="36" viewBox="0 0 121 36" fill="none" xmlns="http://www.w3.org/2000/svg">
<path d="M20.376 2.16076C18.8672 1.04212 16.8983 0.481445 14.4694 0.481445H5.06603C4.32142 0.481445 3.91005 0.883062 3.8319 1.68533L0.0118684 27.5455C-0.027832 27.7994 0.0310896 28.0317 0.188095 28.2429C0.344201 28.4547 0.540547 28.5599 0.775695 28.5599H5.24225C6.02566 28.5599 6.45626 28.1592 6.5353 27.3556L7.59302 20.3839C7.63164 20.0461 7.76942 19.7713 8.00457 19.5598C8.23954 19.3486 8.53343 19.2103 8.88606 19.1471C9.23869 19.0843 9.57121 19.0528 9.88522 19.0528C10.1983 19.0528 10.5704 19.0741 11.002 19.1161C11.4326 19.1583 11.7071 19.1789 11.8248 19.1789C15.1941 19.1789 17.8388 18.155 19.7589 16.105C21.6782 14.0559 22.6389 11.2143 22.6389 7.5798C22.6389 5.08678 21.8841 3.28037 20.376 2.15999V2.16076ZM15.5275 9.92577C15.331 11.405 14.8222 12.3764 13.9995 12.8413C13.1766 13.3069 12.0012 13.5382 10.4734 13.5382L8.53379 13.6018L9.53312 6.81958C9.61109 6.35519 9.86564 6.1227 10.297 6.1227H11.4139C12.9804 6.1227 14.1173 6.36623 14.8226 6.85135C15.5275 7.33763 15.7627 8.36289 15.5275 9.92577Z" fill="white"/>
<path d="M119.611 0.480957H115.262C114.83 0.480957 114.576 0.713445 114.498 1.17822L110.678 27.5459L110.619 27.6726C110.619 27.885 110.698 28.0847 110.855 28.275C111.011 28.4646 111.207 28.56 111.442 28.56H115.322C116.065 28.56 116.476 28.1593 116.556 27.3559L120.376 1.43182V1.36886C120.376 0.777377 120.12 0.481539 119.611 0.481539V0.480957Z" fill="white"/>
<path d="M67.0699 10.6871C67.0699 10.4763 66.9912 10.2752 66.8353 10.0854C66.6781 9.89532 66.5017 9.7998 66.3063 9.7998H61.781C61.3491 9.7998 60.9967 10.0121 60.7229 10.4335L54.4932 20.3219L51.9074 10.8142C51.7105 10.1385 51.28 9.7998 50.6144 9.7998H46.206C46.0097 9.7998 45.8333 9.89512 45.6775 10.0854C45.5204 10.2752 45.4424 10.4765 45.4424 10.6871C45.4424 10.7724 45.8245 12.0183 46.5883 14.4268C47.3521 16.8358 48.1751 19.4346 49.0567 22.2236C49.9384 25.0123 50.3983 26.4919 50.4378 26.6598C47.2248 31.3929 45.6188 33.9285 45.6188 34.266C45.6188 34.8158 45.8733 35.0901 46.3828 35.0901H50.9081C51.3391 35.0901 51.6915 34.8794 51.9662 34.4564L66.953 11.1304C67.0307 11.0465 67.0699 10.8993 67.0699 10.6869V10.6871Z" fill="white"/>
<path d="M109.209 9.8003H104.743C104.194 9.8003 103.862 10.4976 103.744 11.8921C102.724 10.2027 100.864 9.35645 98.1604 9.35645C95.3393 9.35645 92.9392 10.4976 90.961 12.7794C88.9821 15.0614 87.9932 17.7451 87.9932 20.8294C87.9932 23.323 88.6688 25.3088 90.0204 26.7872C91.372 28.2672 93.184 29.0057 95.4574 29.0057C96.5932 29.0057 97.749 28.7517 98.9244 28.2451C100.1 27.7381 101.02 27.0623 101.687 26.2169C101.687 26.2593 101.647 26.449 101.57 26.7868C101.491 27.1255 101.452 27.3797 101.452 27.5475C101.452 28.2244 101.706 28.5615 102.216 28.5615H106.272C107.015 28.5615 107.447 28.1608 107.564 27.3572L109.974 10.8141C110.012 10.5605 109.954 10.3284 109.797 10.1169C109.64 9.90627 109.445 9.8003 109.209 9.8003ZM101.54 22.2871C100.541 23.3435 99.336 23.8717 97.9256 23.8717C96.7889 23.8717 95.8689 23.5342 95.1633 22.8576C94.4577 22.1829 94.105 21.2531 94.105 20.0686C94.105 18.5063 94.5949 17.185 95.5747 16.1074C96.553 15.0299 97.7688 14.4911 99.2185 14.4911C100.315 14.4911 101.226 14.8398 101.951 15.5367C102.675 16.2339 103.039 17.1957 103.039 18.421C103.039 19.9421 102.539 21.2312 101.54 22.2871Z" fill="white"/>
<path d="M42.4452 9.8003H37.9786C37.4293 9.8003 37.097 10.4976 36.9793 11.8921C35.9214 10.2027 34.0602 9.35645 31.3959 9.35645C28.5749 9.35645 26.1747 10.4976 24.1963 12.7794C22.2174 15.0614 21.2285 17.7451 21.2285 20.8294C21.2285 23.323 21.9045 25.3088 23.2563 26.7872C24.6081 28.2672 26.4197 29.0057 28.6925 29.0057C29.7891 29.0057 30.926 28.7517 32.1012 28.2451C33.2766 27.7381 34.217 27.0623 34.9223 26.2169C34.7651 26.7237 34.6871 27.1675 34.6871 27.5475C34.6871 28.2244 34.9417 28.5615 35.4511 28.5615H39.5063C40.2502 28.5615 40.6817 28.1608 40.7993 27.3572L43.2088 10.8141C43.2475 10.5605 43.1887 10.3284 43.0326 10.1169C42.8758 9.90627 42.6802 9.8003 42.4452 9.8003ZM34.7755 22.3185C33.7762 23.3552 32.5512 23.8717 31.1024 23.8717C29.9655 23.8717 29.0545 23.5342 28.3694 22.8576C27.6833 22.1829 27.3407 21.2531 27.3407 20.0686C27.3407 18.5063 27.8303 17.185 28.8102 16.1074C29.7891 15.0299 31.0038 14.4911 32.454 14.4911C33.5505 14.4911 34.4615 14.8398 35.187 15.5369C35.9114 16.2341 36.2742 17.1959 36.2742 18.4212C36.2742 19.9845 35.7746 21.2843 34.7755 22.3185Z" fill="white"/>
<path d="M87.1408 2.16076C85.6322 1.04212 83.6637 0.481445 81.2345 0.481445H71.8896C71.1057 0.481445 70.6744 0.883062 70.5967 1.68533L66.7765 27.5455C66.7368 27.7996 66.7956 28.0319 66.9528 28.2431C67.1081 28.4547 67.3052 28.5599 67.5404 28.5599H72.3594C72.8295 28.5599 73.1428 28.2855 73.2998 27.7361L74.3579 20.3839C74.3967 20.0461 74.5339 19.7713 74.7692 19.5598C75.0044 19.3486 75.2979 19.2105 75.6509 19.1471C76.0034 19.0843 76.3357 19.0528 76.6501 19.0528C76.9632 19.0528 77.3352 19.0741 77.7663 19.1161C78.1973 19.1583 78.4725 19.1789 78.5891 19.1789C81.9591 19.1789 84.6032 18.155 86.5234 16.105C88.4434 14.0559 89.4032 11.2143 89.4032 7.5798C89.4036 5.08698 88.6489 3.28057 87.1408 2.16018V2.16076ZM81.1168 12.5877C80.2547 13.2214 78.9617 13.5382 77.238 13.5382L75.3572 13.6018L76.3564 6.81958C76.434 6.35519 76.6885 6.1227 77.1202 6.1227H78.1777C79.0396 6.1227 79.7251 6.16494 80.2353 6.24921C80.7439 6.33446 81.2345 6.59775 81.7046 7.04141C82.1749 7.48526 82.4098 8.12983 82.4098 8.97491C82.4098 10.7495 81.9784 11.9536 81.1168 12.5877Z" fill="white"/>
</svg>
