<svg width="92" height="63" viewBox="0 0 92 63" fill="none" xmlns="http://www.w3.org/2000/svg">
<path d="M17.872 0.0605469H40.6319C43.808 0.0605469 45.7928 2.88872 45.0484 6.34749L34.4456 55.9052C33.7013 59.3638 30.5088 62.1922 27.3329 62.1922H4.57298C1.39692 62.1922 -0.587843 59.364 0.156542 55.9052L10.759 6.34749C11.5034 2.8708 14.6793 0.0605469 17.8552 0.0605469H17.872Z" fill="#D10429"/>
<path d="M38.6412 0.0605469H64.8266C68.0023 0.0605469 66.5633 2.88872 65.8191 6.34749L55.2161 55.9052C54.4717 59.3638 54.7033 62.1922 51.5274 62.1922H25.3437C22.1513 62.1922 20.1828 59.364 20.9437 55.9052L31.5466 6.34749C32.2909 2.8708 35.4666 0.0605469 38.6593 0.0605469H38.6427H38.6412Z" fill="#022E64"/>
<path d="M63.9074 0.0605469H86.669C89.8449 0.0605469 91.8298 2.88872 91.0853 6.34749L80.4826 55.9052C79.738 59.3638 76.5455 62.1922 73.3698 62.1922H50.6098C47.4173 62.1922 45.449 59.364 46.1934 55.9052L56.7962 6.34749C57.5404 2.8708 60.7164 0.0605469 63.8923 0.0605469H63.9089H63.9074Z" fill="#076F74"/>
<path d="M60.0867 46.7806H62.237L62.849 44.5287H60.715L60.0867 46.7806ZM61.8069 40.5833L61.0625 43.2496C61.0625 43.2496 61.873 42.7991 62.3196 42.655C62.7662 42.5469 63.4278 42.4568 63.4278 42.4568L63.9406 40.6014H61.7906L61.8069 40.5833ZM62.882 36.7644L62.1708 39.3225C62.1708 39.3225 62.9648 38.926 63.4114 38.8003C63.858 38.6741 64.5196 38.6381 64.5196 38.6381L65.0323 36.7825H62.8986L62.882 36.7644ZM67.6294 36.7644L64.8504 46.7623H65.5948L65.0159 48.8341H64.2715L64.0896 49.4645H61.4428L61.625 48.8341H56.2656L56.7949 46.9247H57.3407L60.153 36.7646L60.7153 34.7109H63.4115L63.1302 35.7377C63.1302 35.7377 63.8413 35.1793 64.5363 34.9809C65.2146 34.783 69.1182 34.7109 69.1182 34.7109L68.5393 36.7467H67.613L67.6294 36.7644Z" fill="#FEFEFE"/>
<path d="M68.7325 34.7101H71.6107L71.6437 35.881C71.6273 36.0791 71.7761 36.1692 72.1234 36.1692H72.7024L72.1731 38.097H70.618C69.2782 38.2051 68.7655 37.5747 68.7985 36.872L68.7488 34.7281L68.7325 34.7101ZM69.0868 43.8811H66.341L66.8039 42.1698H69.9467L70.3933 40.6025H67.3002L67.8294 38.6749H76.4309L75.9015 40.6025H73.0069L72.5603 42.1698H75.4549L74.975 43.8811H71.8488L71.2865 44.6017H72.5601L72.8744 46.7634C72.9075 46.9796 72.9075 47.1237 72.9735 47.2139C73.0398 47.2859 73.4202 47.322 73.6352 47.322H74.0156L73.4202 49.4297H72.4442C72.2956 49.4297 72.0638 49.4118 71.7496 49.4118C71.4518 49.3756 71.2534 49.1954 71.0549 49.0874C70.8728 48.9974 70.6083 48.7631 70.5421 48.3489L70.2443 46.1871L68.8219 48.3128C68.3751 48.9793 67.7634 49.5018 66.7211 49.5018H64.7362L65.2654 47.6281H66.0264C66.2416 47.6281 66.4401 47.5383 66.5891 47.448C66.7379 47.3759 66.8701 47.3038 67.0024 47.0699L69.0868 43.8811ZM39.0524 39.1922H46.3139L45.7845 41.0838H42.8899L42.4435 42.6868H45.4208L44.875 44.6325H41.9141L41.1863 47.2445C41.1037 47.5328 41.8976 47.5688 42.1788 47.5688L43.6674 47.3526L43.0718 49.5144H39.7305C39.4661 49.5144 39.2676 49.4783 38.9696 49.4063C38.6883 49.3342 38.5561 49.1901 38.4404 48.992C38.3243 48.7759 38.1258 48.6136 38.2582 48.1453L39.2175 44.6867H37.5635L38.1093 42.7051H39.7634L40.21 41.1019H38.5561L39.0855 39.2101L39.0524 39.1922ZM44.0694 35.7729H47.0468L46.5009 37.7364H42.4318L41.9852 38.1508C41.7867 38.349 41.7371 38.277 41.4889 38.4211C41.2576 38.5469 40.7777 38.7991 40.1491 38.7991H38.8424L39.3716 36.9077H39.7687C40.0995 36.9077 40.3313 36.8715 40.4469 36.7996C40.5792 36.7096 40.7282 36.5114 40.8768 36.187L41.6211 34.71H44.5821L44.0694 35.7908V35.7729ZM49.6809 39.0155C49.6809 39.0155 50.4913 38.2051 51.881 37.9529C52.1953 37.8808 54.1802 37.9165 54.1802 37.9165L54.478 36.8357H50.293L49.6808 39.0336L49.6809 39.0155ZM53.6177 39.8442H49.4658L49.2177 40.7628H52.8238C53.2537 40.7088 53.3365 40.7807 53.3696 40.7449L53.6342 39.8442H53.6177ZM48.2254 34.7281H50.7562L50.3924 36.1153C50.3924 36.1153 51.1863 35.4128 51.7487 35.1604C52.3112 34.9442 53.5681 34.7281 53.5681 34.7281L57.6703 34.7101L56.2644 39.7902C56.0328 40.6549 55.7516 41.2134 55.5862 41.4836C55.4375 41.7358 55.2553 41.9699 54.8915 42.186C54.5441 42.3843 54.2296 42.5103 53.9321 42.5284C53.6674 42.5463 53.2373 42.5644 52.675 42.5644H48.7217L47.6134 46.5815C47.5143 46.9779 47.4646 47.1758 47.5308 47.2839C47.5803 47.374 47.7291 47.4821 47.9112 47.4821L49.6479 47.302L49.0523 49.4997H47.1006C46.472 49.4997 46.0254 49.4818 45.7111 49.4635C45.4135 49.4277 45.0989 49.4635 44.8839 49.2835C44.702 49.1034 44.421 48.8693 44.4373 48.6348C44.454 48.4187 44.5366 48.0584 44.6691 47.554L48.2254 34.7281Z" fill="#FEFEFE"/>
<path d="M55.5991 42.8127L55.3675 44.0376C55.2685 44.4158 55.1856 44.7042 54.9209 44.9564C54.6397 45.2086 54.3255 45.4787 53.5648 45.4787L52.1588 45.5508L52.1422 46.9199C52.1257 47.2979 52.2251 47.2619 52.2745 47.3339C52.3407 47.406 52.3903 47.4241 52.4564 47.4601L52.903 47.4239L54.2431 47.352L53.6805 49.3696H52.1422C51.0671 49.3696 50.2565 49.3334 50.0083 49.1174C49.7438 48.9371 49.7107 48.721 49.7107 48.3246L49.8098 42.9563H52.2745L52.2414 44.0551H52.8369C53.0354 44.0551 53.1845 44.0372 53.267 43.9831C53.3495 43.929 53.3993 43.839 53.4324 43.7129L53.6805 42.8483H55.6159L55.5991 42.8127ZM20.5345 15.9204C20.4519 16.3528 18.864 24.297 18.864 24.297C18.5165 25.9002 18.2684 27.0533 17.4414 27.7918C16.9617 28.2242 16.3992 28.4222 15.7543 28.4222C14.7121 28.4222 14.1167 27.8639 14.0174 26.8011L14.0008 26.4408C14.0008 26.4408 14.3151 24.297 14.3151 24.2791C14.3151 24.2791 15.9693 17.0373 16.2671 16.0825C16.2835 16.0285 16.2835 15.9925 16.2835 15.9744C13.0579 16.0106 12.4791 15.9744 12.446 15.9204C12.4294 15.9925 12.3468 16.4427 12.3468 16.4427L10.6595 24.6035L10.5105 25.2879L10.2295 27.5579C10.2295 28.2243 10.3452 28.7827 10.5935 29.2332C11.3708 30.7103 13.5708 30.9265 14.8114 30.9265C16.4159 30.9265 17.9211 30.5481 18.93 29.8817C20.7 28.7467 21.163 26.9633 21.5601 25.3962L21.7586 24.5854C21.7586 24.5854 23.4623 17.0735 23.7601 16.1007C23.7766 16.0466 23.7766 16.0106 23.7932 15.9926C21.4443 16.0106 20.7661 15.9926 20.5345 15.9385V15.9204ZM29.97 30.8531C28.8286 30.835 28.4151 30.835 27.0753 30.907L27.0255 30.7989C27.1413 30.2404 27.2736 29.7001 27.3729 29.1416L27.5383 28.385C27.7864 27.2142 28.018 25.827 28.0511 25.4127C28.0842 25.1605 28.1502 24.5301 27.4886 24.5301C27.2074 24.5301 26.9263 24.674 26.6287 24.8182C26.4631 25.4487 26.1488 27.2142 25.9834 28.0068C25.6525 29.7001 25.636 29.8982 25.4872 30.7271L25.388 30.835C24.2136 30.817 23.8001 30.817 22.4437 30.8891L22.3775 30.7629C22.6091 29.7541 22.8241 28.7453 23.0392 27.7365C23.6016 25.0162 23.7505 23.9716 23.8992 22.5844L24.0151 22.5123C25.3384 22.3142 25.6527 22.2601 27.0917 21.9539L27.2074 22.0981L26.9925 22.9628C27.2405 22.8007 27.4721 22.6385 27.7202 22.5123C28.3984 22.152 29.1428 22.0439 29.5563 22.0439C30.1848 22.0439 30.8797 22.2422 31.1608 23.0348C31.4255 23.7373 31.2599 24.602 30.8961 26.3134L30.7142 27.1781C30.3503 29.0877 30.2842 29.4298 30.0856 30.7269L29.9534 30.835L29.97 30.8531ZM34.6145 30.8577C33.9199 30.8577 33.4733 30.8398 33.0433 30.8577C32.6131 30.8577 32.1996 30.8939 31.5545 30.9119L31.5214 30.8577L31.4883 30.7857C31.6702 30.0651 31.753 29.8129 31.8523 29.5607C31.9349 29.3085 32.0176 29.0563 32.1832 28.3178C32.3815 27.3629 32.5139 26.6965 32.5965 26.1019C32.6958 25.5434 32.7455 25.0573 32.8117 24.4987L32.8612 24.4627L32.9108 24.4087C33.6056 24.3006 34.0357 24.2286 34.4823 24.1565C34.9289 24.0845 35.392 23.9945 36.1033 23.8504L36.1364 23.9224L36.1529 23.9945L35.7561 25.7778C35.6238 26.3724 35.4914 26.9668 35.3757 27.5613C35.1273 28.8224 35.0117 29.2907 34.9622 29.6329C34.896 29.9572 34.8792 30.1194 34.78 30.7679L34.7138 30.8219L34.6476 30.876L34.6145 30.8577ZM41.958 26.4317C41.9084 26.756 41.6438 27.963 41.2964 28.4674C41.0482 28.8456 40.767 29.0799 40.4361 29.0799C40.337 29.0799 39.7744 29.0799 39.7581 28.1611C39.7581 27.7108 39.8407 27.2423 39.94 26.738C40.2378 25.2788 40.6017 24.0719 41.5114 24.0719C42.2227 24.0719 42.2723 24.9726 41.958 26.4317ZM44.9518 26.5758C45.3487 24.6663 45.0346 23.7656 44.6542 23.2251C44.0586 22.3965 43.0002 22.1263 41.9084 22.1263C41.2465 22.1263 39.6919 22.1984 38.4678 23.4234C37.5913 24.306 37.1778 25.513 36.9462 26.666C36.6978 27.8368 36.4168 29.9446 38.2031 30.7372C38.7488 30.9894 39.5429 31.0613 40.0557 31.0613C41.3626 31.0613 42.7024 30.6652 43.7113 29.5122C44.4886 28.5755 44.836 27.1704 44.9683 26.5758H44.9518ZM72.8331 31.0717C71.4436 31.0537 71.0467 31.0537 69.7728 31.1258L69.6901 31.0177C70.0375 29.5945 70.3848 28.1533 70.6991 26.7122C71.096 24.8387 71.1952 24.046 71.3277 22.9472L71.4268 22.8573C72.7999 22.6411 73.1803 22.5871 74.6194 22.2989L74.6524 22.4249C74.3877 23.6139 74.1397 24.7849 73.875 25.9557C73.3457 28.4238 73.1637 29.6848 72.9655 30.9818L72.8331 31.0899V31.0717Z" fill="#FEFEFE"/>
<path d="M70.8354 26.6719C70.7692 26.978 70.5045 28.203 70.1572 28.7074C69.9256 29.0677 69.3633 29.302 69.049 29.302C68.9497 29.302 68.4039 29.302 68.3708 28.4013C68.3708 27.9508 68.4534 27.4824 68.5527 26.978C68.8505 25.555 69.2146 24.3479 70.1241 24.3479C70.8354 24.3479 71.1497 25.2306 70.8354 26.6898V26.6719ZM73.5647 26.816C73.9614 24.9065 72.3406 26.654 72.0926 26.0234C71.6955 25.0325 71.9434 23.0509 70.3557 22.3845C69.7437 22.1142 68.3046 22.4565 67.0806 23.6815C66.2204 24.5462 65.7903 25.7531 65.5589 26.906C65.3105 28.0589 65.0295 30.1848 66.7992 30.9233C67.3619 31.1934 67.8745 31.2655 68.3873 31.2294C70.174 31.1214 71.5301 28.1849 72.5393 27.032C73.3163 26.1134 73.4488 27.3744 73.5647 26.816ZM52.7948 30.8521C51.6536 30.834 51.2565 30.834 49.9167 30.906L49.867 30.798C49.9829 30.2394 50.1152 29.6992 50.2308 29.1406L50.3796 28.384C50.628 27.2132 50.8759 25.826 50.8924 25.4117C50.9255 25.1595 50.9916 24.5291 50.3465 24.5291C50.0654 24.5291 49.7679 24.6731 49.4866 24.8172C49.3376 25.4478 49.0067 27.2132 48.8413 28.0058C48.527 29.6992 48.4939 29.8972 48.3451 30.7261L48.2459 30.834C47.0715 30.8161 46.658 30.8161 45.3016 30.8881L45.2354 30.7619C45.467 29.7531 45.682 28.7443 45.8972 27.7355C46.4596 25.0152 46.592 23.9706 46.7571 22.5834L46.8564 22.5113C48.1799 22.3133 48.5107 22.2591 49.933 21.953L50.0491 22.0971L49.8505 22.9618C50.0821 22.7997 50.3302 22.6375 50.5618 22.5113C51.24 22.151 51.9843 22.043 52.3976 22.043C53.0264 22.043 53.7046 22.2412 54.0021 23.0338C54.2668 23.7363 54.0851 24.601 53.7209 26.3125L53.539 27.1772C53.1586 29.0867 53.1091 29.4289 52.9102 30.7259L52.7782 30.834L52.7948 30.8521ZM62.7052 15.9374L61.7458 15.9555C59.2646 15.9915 58.2721 15.9734 57.8752 15.9194C57.8422 16.1177 57.776 16.4599 57.776 16.4599C57.776 16.4599 56.8828 20.9274 56.8828 20.9454C56.8828 20.9454 54.7655 30.457 54.6663 30.9073C56.8331 30.8712 57.7098 30.8712 58.0902 30.9254C58.1732 30.4749 58.6692 27.8269 58.6858 27.8269C58.6858 27.8269 59.1158 25.8813 59.1326 25.8093C59.1326 25.8093 59.2646 25.611 59.3969 25.521H59.5955C61.4647 25.521 63.5653 25.521 65.2197 24.2061C66.3443 23.3053 67.1053 21.9542 67.4527 20.3329C67.5353 19.9366 67.6015 19.4682 67.6015 18.9819C67.6015 18.3513 67.4858 17.739 67.1549 17.2525C66.3111 15.9734 64.6404 15.9555 62.7052 15.9374ZM63.9457 20.6032C63.7474 21.5939 63.1518 22.4407 62.391 22.837C61.7623 23.1792 61.0014 23.2152 60.2075 23.2152H59.6947L59.7278 22.999C59.7278 22.999 60.6707 18.5314 60.6707 18.5495L60.7037 18.3153L60.7203 18.1351L61.1007 18.1713C61.1007 18.1713 63.0525 18.3513 63.0856 18.3513C63.8463 18.6756 64.1773 19.5042 63.9457 20.6032ZM84.2793 22.0971L84.1637 21.953C82.7576 22.2591 82.4929 22.3133 81.2026 22.5115L81.1037 22.6194C81.1037 22.6375 81.087 22.6556 81.087 22.6915V22.6735C80.1277 25.1054 80.144 24.5831 79.3668 26.4926C79.3668 26.4024 79.3668 26.3485 79.35 26.2583L79.1515 22.115L79.036 21.9709C77.5472 22.2772 77.5141 22.3312 76.1577 22.5294L76.0584 22.6375C76.0418 22.6915 76.0418 22.7456 76.0418 22.7996L76.0584 22.8177C76.2239 23.7723 76.1908 23.5562 76.3562 25.0514C76.4388 25.79 76.5381 26.5286 76.6207 27.2492C76.7531 28.4742 76.8359 29.0686 77.0013 30.9241C76.0747 32.5813 75.8597 33.2119 74.9667 34.6708L75.0162 34.8149C76.3564 34.7611 76.654 34.7611 77.6464 34.7611L77.8616 34.4908C78.6058 32.7437 84.2962 22.1152 84.2962 22.1152L84.2793 22.0971ZM35.8918 23.2903C36.6527 22.7139 36.7518 21.9213 36.1068 21.507C35.4617 21.0926 34.3204 21.2188 33.5594 21.7952C32.7986 22.3538 32.7159 23.1462 33.361 23.5786C33.9895 23.9751 35.1308 23.8668 35.8918 23.2903Z" fill="#FEFEFE"/>
<path d="M77.6414 34.7292L76.5329 36.8011C76.1856 37.5036 75.524 38.044 74.4984 38.044L72.7285 38.008L73.2413 36.1345H73.5886C73.7705 36.1345 73.9029 36.1166 74.0021 36.0624C74.1014 36.0264 74.1513 35.9543 74.2337 35.8462L74.8955 34.7114H77.6579L77.6414 34.7292Z" fill="#FEFEFE"/>
</svg>
