<svg width="41" height="45" viewBox="0 0 41 45" fill="none" xmlns="http://www.w3.org/2000/svg">
<path d="M21.7622 15.825V11.25C21.7622 10.425 21.1547 9.75 20.4122 9.75C19.6697 9.75 19.0622 10.425 19.0622 11.25V15.825C17.5232 16.17 16.3622 17.685 16.3622 19.5V21C16.3622 22.815 17.5232 24.315 19.0622 24.675V26.25C19.0622 27.075 19.6697 27.75 20.4122 27.75C21.1547 27.75 21.7622 27.075 21.7622 26.25V24.675C23.3012 24.33 24.4622 22.815 24.4622 21V19.5C24.4622 17.685 23.3012 16.17 21.7622 15.825Z" fill="#006EFF"/>
<path d="M36.45 0H4.05C1.8225 0 0 2.025 0 4.5V28.5C0 30.975 1.8225 33 4.05 33H16.2V34.695C12.393 35.055 6.075 36.18 6.075 39.75C6.075 44.85 18.792 45 20.25 45C21.708 45 34.425 44.85 34.425 39.75C34.425 36.165 28.107 35.04 24.3 34.695V33H36.45C38.6775 33 40.5 30.975 40.5 28.5V4.5C40.5 2.025 38.6775 0 36.45 0ZM20.25 42C13.9185 42 9.7875 40.65 8.883 39.75C9.5445 39.12 12.042 38.115 16.3215 37.695C16.6995 39.3 18.009 40.5 19.575 40.5H20.925C22.491 40.5 23.8005 39.3 24.1785 37.695C28.458 38.115 30.9555 39.12 31.617 39.75C30.7125 40.635 26.595 42 20.25 42ZM21.6 36.75C21.6 37.17 21.303 37.5 20.925 37.5H19.575C19.197 37.5 18.9 37.17 18.9 36.75V33H21.6V36.75ZM37.8 28.5C37.8 29.325 37.1925 30 36.45 30H4.05C3.3075 30 2.7 29.325 2.7 28.5V4.5C2.7 3.675 3.3075 3 4.05 3H36.45C37.1925 3 37.8 3.675 37.8 4.5V28.5Z" fill="#006EFF"/>
<path d="M11.9881 11.85V11.25C11.9881 10.425 11.3806 9.75 10.6381 9.75C9.89563 9.75 9.28813 10.425 9.28813 11.25V11.835C7.74913 12.18 6.58813 13.695 6.58813 15.51V17.01C6.58813 18.825 7.74913 20.34 9.28813 20.685V26.25C9.28813 27.075 9.89563 27.75 10.6381 27.75C11.3806 27.75 11.9881 27.075 11.9881 26.25V20.685C13.5271 20.34 14.6881 18.825 14.6881 17.01V15.51C14.6881 13.695 13.5271 12.195 11.9881 11.835V11.85ZM9.28813 15.51C9.28813 15.09 9.58513 14.76 9.96313 14.76H11.3131C11.6911 14.76 11.9881 15.09 11.9881 15.51V17.01C11.9881 17.43 11.6911 17.76 11.3131 17.76H9.96313C9.58513 17.76 9.28813 17.43 9.28813 17.01V15.51Z" fill="#006EFF"/>
<path d="M31.2113 17.325V11.25C31.2113 10.425 30.6038 9.75 29.8613 9.75C29.1188 9.75 28.5113 10.425 28.5113 11.25V17.325C26.9723 17.67 25.8113 19.185 25.8113 21V22.5C25.8113 24.315 26.9723 25.815 28.5113 26.175V26.25C28.5113 27.075 29.1188 27.75 29.8613 27.75C30.6038 27.75 31.2113 27.075 31.2113 26.25V26.175C32.7503 25.83 33.9113 24.315 33.9113 22.5V21C33.9113 19.185 32.7503 17.67 31.2113 17.325ZM31.2113 22.5C31.2113 22.92 30.9143 23.25 30.5363 23.25H29.1863C28.8083 23.25 28.5113 22.92 28.5113 22.5V21C28.5113 20.58 28.8083 20.25 29.1863 20.25H30.5363C30.9143 20.25 31.2113 20.58 31.2113 21V22.5Z" fill="#006EFF"/>
<path d="M7.42456 6C7.42456 5.175 6.81706 4.5 6.07456 4.5H5.39956C4.65706 4.5 4.04956 5.175 4.04956 6C4.04956 6.825 4.65706 7.5 5.39956 7.5H6.07456C6.81706 7.5 7.42456 6.825 7.42456 6Z" fill="#006EFF"/>
<path d="M9.44961 7.5H10.1246C10.8671 7.5 11.4746 6.825 11.4746 6C11.4746 5.175 10.8671 4.5 10.1246 4.5H9.44961C8.70711 4.5 8.09961 5.175 8.09961 6C8.09961 6.825 8.70711 7.5 9.44961 7.5Z" fill="#006EFF"/>
<path d="M21.7622 15.825V11.25C21.7622 10.425 21.1547 9.75 20.4122 9.75C19.6697 9.75 19.0622 10.425 19.0622 11.25V15.825C17.5232 16.17 16.3622 17.685 16.3622 19.5V21C16.3622 22.815 17.5232 24.315 19.0622 24.675V26.25C19.0622 27.075 19.6697 27.75 20.4122 27.75C21.1547 27.75 21.7622 27.075 21.7622 26.25V24.675C23.3012 24.33 24.4622 22.815 24.4622 21V19.5C24.4622 17.685 23.3012 16.17 21.7622 15.825Z" fill="#006EFF"/>
</svg>
