<svg width="97" height="36" viewBox="0 0 97 36" fill="none" xmlns="http://www.w3.org/2000/svg">
<path d="M65.0878 35.3496H73.0874V11.1231H65.0878V35.3496ZM60.5628 10.7745C53.1692 11.0359 49.4118 14.6089 49.4118 21.7113V35.3496H57.4922V24.2385C57.4922 19.9684 58.0174 18.1383 62.7041 17.964V10.8617C62.1789 10.7745 61.6132 10.7309 61.0476 10.7309L60.5628 10.7745ZM0 12.7789C0 15.5675 1.13126 22.147 11.4338 22.9314C12.3226 22.9749 14.6256 23.1492 14.6256 25.5022C14.6256 27.4194 12.7267 28.5958 9.5349 28.5958C6.46434 28.5087 3.43418 27.8551 0.56563 26.6786V34.4346C4.04021 35.3496 7.636 35.7854 11.2318 35.7418C20.0395 35.7418 23.9989 30.3823 23.9989 25.0664C23.9989 19.0534 19.5546 15.1318 12.161 14.6089C11.151 14.5218 8.80766 14.3911 8.80766 12.0817C8.80766 9.3366 12.161 9.3366 13.4539 9.3366C15.676 9.3366 18.5446 10.0338 20.6051 10.7309C20.6051 10.7309 21.7363 11.1667 22.7464 11.6024L22.8272 11.646V4.06428L22.706 4.02071C20.2819 3.10568 17.4537 2.23422 12.2418 2.23422C3.19177 2.23422 0 7.8987 0 12.7789ZM26.019 3.97714V35.3496H34.261V25.6329C36.6447 29.5109 37.8568 35.3496 37.8568 35.3496H47.7553C46.7857 30.9488 42.503 22.8878 42.503 22.8878C45.0484 19.3584 46.9877 15.3932 48.3209 11.1231H38.8264C37.7356 14.1732 36.2003 17.049 34.261 19.5762V2.23422L26.019 3.97714ZM76.4812 3.75927V35.3496H84.4808V2.23422L76.4812 3.75927ZM88.1574 3.75927V35.3496H96.1571V2.23422L88.1574 3.75927ZM69.0876 0.273438C66.9059 0.273438 65.1282 2.19065 65.1282 4.54358C65.1282 6.89652 66.9059 8.81373 69.0876 8.81373C71.2693 8.81373 73.047 6.89652 73.047 4.54358C73.0066 2.19065 71.2693 0.273438 69.0876 0.273438Z" fill="white"/>
<mask id="mask0_4378_4829" style="mask-type:luminance" maskUnits="userSpaceOnUse" x="0" y="0" width="97" height="36">
<path d="M65.0878 35.3496H73.0874V11.1231H65.0878V35.3496ZM60.5628 10.7745C53.1692 11.0359 49.4118 14.6089 49.4118 21.7113V35.3496H57.4922V24.2385C57.4922 19.9684 58.0174 18.1383 62.7041 17.964V10.8617C62.1789 10.7745 61.6132 10.7309 61.0476 10.7309L60.5628 10.7745ZM0 12.7789C0 15.5675 1.13126 22.147 11.4338 22.9314C12.3226 22.9749 14.6256 23.1492 14.6256 25.5022C14.6256 27.4194 12.7267 28.5958 9.5349 28.5958C6.46434 28.5087 3.43418 27.8551 0.56563 26.6786V34.4346C4.04021 35.3496 7.636 35.7854 11.2318 35.7418C20.0395 35.7418 23.9989 30.3823 23.9989 25.0664C23.9989 19.0534 19.5546 15.1318 12.161 14.6089C11.151 14.5218 8.80766 14.3911 8.80766 12.0817C8.80766 9.3366 12.161 9.3366 13.4539 9.3366C15.676 9.3366 18.5446 10.0338 20.6051 10.7309C20.6051 10.7309 21.7363 11.1667 22.7464 11.6024L22.8272 11.646V4.06428L22.706 4.02071C20.2819 3.10568 17.4537 2.23422 12.2418 2.23422C3.19177 2.23422 0 7.8987 0 12.7789ZM26.019 3.97714V35.3496H34.261V25.6329C36.6447 29.5109 37.8568 35.3496 37.8568 35.3496H47.7553C46.7857 30.9488 42.503 22.8878 42.503 22.8878C45.0484 19.3584 46.9877 15.3932 48.3209 11.1231H38.8264C37.7356 14.1732 36.2003 17.049 34.261 19.5762V2.23422L26.019 3.97714ZM76.4812 3.75927V35.3496H84.4808V2.23422L76.4812 3.75927ZM88.1574 3.75927V35.3496H96.1571V2.23422L88.1574 3.75927ZM69.0876 0.273438C66.9059 0.273438 65.1282 2.19065 65.1282 4.54358C65.1282 6.89652 66.9059 8.81373 69.0876 8.81373C71.2693 8.81373 73.047 6.89652 73.047 4.54358C73.0066 2.19065 71.2693 0.273438 69.0876 0.273438Z" fill="white"/>
</mask>
<g mask="url(#mask0_4378_4829)">
<path d="M96.1571 0.273438H0V35.6982H96.1571V0.273438Z" fill="white"/>
</g>
</svg>
