<svg width="92" height="64" viewBox="0 0 92 64" fill="none" xmlns="http://www.w3.org/2000/svg">
<path d="M17.872 0.159668H40.6319C43.808 0.159668 45.7928 3.02104 45.0484 6.5204L34.4456 56.6598C33.7013 60.159 30.5088 63.0205 27.3329 63.0205H4.57298C1.39692 63.0205 -0.587843 60.1592 0.156542 56.6598L10.759 6.5204C11.5034 3.0029 14.6793 0.159668 17.8552 0.159668H17.872Z" fill="#D10429"/>
<path d="M38.6416 0.159668H64.827C68.0027 0.159668 66.5636 3.02104 65.8194 6.5204L55.2164 56.6598C54.4721 60.159 54.7037 63.0205 51.5278 63.0205H25.344C22.1517 63.0205 20.1832 60.1592 20.944 56.6598L31.547 6.5204C32.2912 3.0029 35.467 0.159668 38.6597 0.159668H38.6431H38.6416Z" fill="#022E64"/>
<path d="M63.9078 0.159668H86.6693C89.8452 0.159668 91.8302 3.02104 91.0856 6.5204L80.483 56.6598C79.7384 60.159 76.5459 63.0205 73.3701 63.0205H50.6102C47.4177 63.0205 45.4494 60.1592 46.1938 56.6598L56.7966 6.5204C57.5408 3.0029 60.7167 0.159668 63.8926 0.159668H63.9092H63.9078Z" fill="#076F74"/>
<path d="M60.0862 47.4281H62.2365L62.8486 45.1498H60.7145L60.0862 47.4281ZM61.8064 41.1581L61.062 43.8557C61.062 43.8557 61.8726 43.3999 62.3192 43.2541C62.7658 43.1448 63.4273 43.0536 63.4273 43.0536L63.9401 41.1764H61.7901L61.8064 41.1581ZM62.8815 37.2944L62.1703 39.8824C62.1703 39.8824 62.9643 39.4813 63.4109 39.3541C63.8575 39.2265 64.5191 39.19 64.5191 39.19L65.0318 37.3127H62.8981L62.8815 37.2944ZM67.629 37.2944L64.8499 47.4096H65.5943L65.0154 49.5057H64.271L64.0891 50.1435H61.4423L61.6245 49.5057H56.2651L56.7944 47.5739H57.3402L60.1525 37.2945L60.7148 35.2168H63.411L63.1297 36.2556C63.1297 36.2556 63.8409 35.6907 64.5359 35.4899C65.2141 35.2897 69.1177 35.2168 69.1177 35.2168L68.5388 37.2764H67.6125L67.629 37.2944Z" fill="#FEFEFE"/>
<path d="M68.7321 35.216H71.6102L71.6432 36.4006C71.6268 36.601 71.7756 36.6922 72.1229 36.6922H72.7019L72.1726 38.6426H70.6175C69.2777 38.752 68.765 38.1142 68.7981 37.4033L68.7484 35.2341L68.7321 35.216ZM69.0863 44.4946H66.3405L66.8034 42.7632H69.9462L70.3928 41.1775H67.2997L67.8289 39.2273H76.4304L75.901 41.1775H73.0064L72.5598 42.7632H75.4544L74.9745 44.4946H71.8483L71.286 45.2236H72.5596L72.8739 47.4107C72.907 47.6295 72.907 47.7753 72.973 47.8665C73.0393 47.9394 73.4197 47.9758 73.6347 47.9758H74.0152L73.4197 50.1083H72.4437C72.2951 50.1083 72.0633 50.0902 71.7491 50.0902C71.4513 50.0536 71.2529 49.8713 71.0544 49.762C70.8723 49.6709 70.6078 49.4339 70.5416 49.0148L70.2438 46.8277L68.8214 48.9783C68.3746 49.6526 67.7629 50.1813 66.7206 50.1813H64.7357L65.2649 48.2856H66.0259C66.2411 48.2856 66.4396 48.1947 66.5886 48.1033C66.7374 48.0304 66.8696 47.9575 67.0019 47.7209L69.0863 44.4946ZM39.0519 39.7507H46.3134L45.784 41.6645H42.8894L42.443 43.2863H45.4203L44.8745 45.2549H41.9136L41.1858 47.8975C41.1032 48.1891 41.8971 48.2256 42.1783 48.2256L43.6669 48.0069L43.0713 50.194H39.73C39.4656 50.194 39.2671 50.1575 38.9691 50.0846C38.6878 50.0117 38.5556 49.8659 38.4399 49.6655C38.3238 49.4468 38.1253 49.2827 38.2577 48.8088L39.217 45.3096H37.563L38.1089 43.3048H39.7629L40.2095 41.6828H38.5556L39.085 39.7688L39.0519 39.7507ZM44.0689 36.2912H47.0463L46.5004 38.2778H42.4313L41.9847 38.697C41.7862 38.8976 41.7366 38.8247 41.4884 38.9705C41.2571 39.0978 40.7773 39.353 40.1486 39.353H38.8419L39.3711 37.4394H39.7682C40.099 37.4394 40.3308 37.4028 40.4464 37.33C40.5787 37.239 40.7277 37.0384 40.8764 36.7102L41.6206 35.2158H44.5817L44.0689 36.3094V36.2912ZM49.6805 39.5719C49.6805 39.5719 50.4909 38.752 51.8805 38.4968C52.1948 38.4239 54.1797 38.46 54.1797 38.46L54.4775 37.3665H50.2925L49.6803 39.5902L49.6805 39.5719ZM53.6172 40.4103H49.4653L49.2172 41.3397H52.8233C53.2533 41.2851 53.336 41.3578 53.3691 41.3216L53.6337 40.4103H53.6172ZM48.2249 35.2341H50.7557L50.3919 36.6376C50.3919 36.6376 51.1859 35.9269 51.7482 35.6716C52.3107 35.4528 53.5677 35.2341 53.5677 35.2341L57.6699 35.216L56.2639 40.3557C56.0323 41.2305 55.7511 41.7956 55.5857 42.0689C55.437 42.3241 55.2548 42.5609 54.891 42.7796C54.5437 42.9802 54.2291 43.1077 53.9316 43.126C53.6669 43.1442 53.2368 43.1625 52.6745 43.1625H48.7212L47.6129 47.2267C47.5138 47.6277 47.4641 47.8279 47.5303 47.9373C47.5798 48.0285 47.7286 48.1379 47.9107 48.1379L49.6474 47.9556L49.0518 50.1792H47.1001C46.4715 50.1792 46.0249 50.161 45.7106 50.1425C45.413 50.1063 45.0984 50.1425 44.8834 49.9605C44.7015 49.7782 44.4205 49.5413 44.4368 49.3041C44.4535 49.0854 44.5361 48.7209 44.6686 48.2106L48.2249 35.2341Z" fill="#FEFEFE"/>
<path d="M55.5991 43.4135L55.3675 44.6527C55.2685 45.0354 55.1856 45.3272 54.9209 45.5823C54.6397 45.8375 54.3255 46.1108 53.5648 46.1108L52.1588 46.1837L52.1422 47.5689C52.1257 47.9513 52.2251 47.9149 52.2745 47.9878C52.3407 48.0607 52.3903 48.079 52.4564 48.1155L52.903 48.0788L54.2431 48.0061L53.6805 50.0474H52.1422C51.0671 50.0474 50.2565 50.0108 50.0083 49.7922C49.7438 49.6098 49.7107 49.3911 49.7107 48.9901L49.8098 43.5588H52.2745L52.2414 44.6705H52.8369C53.0354 44.6705 53.1845 44.6524 53.267 44.5976C53.3495 44.5428 53.3993 44.4518 53.4324 44.3243L53.6805 43.4495H55.6159L55.5991 43.4135ZM20.5345 16.2056C20.4519 16.643 18.864 24.6805 18.864 24.6805C18.5165 26.3025 18.2684 27.4691 17.4414 28.2163C16.9617 28.6537 16.3992 28.8541 15.7543 28.8541C14.7121 28.8541 14.1167 28.2892 14.0174 27.214L14.0008 26.8495C14.0008 26.8495 14.3151 24.6805 14.3151 24.6624C14.3151 24.6624 15.9693 17.3356 16.2671 16.3695C16.2835 16.3149 16.2835 16.2785 16.2835 16.2602C13.0579 16.2968 12.4791 16.2602 12.446 16.2056C12.4294 16.2785 12.3468 16.734 12.3468 16.734L10.6595 24.9906L10.5105 25.683L10.2295 27.9796C10.2295 28.6539 10.3452 29.2188 10.5935 29.6746C11.3708 31.1691 13.5708 31.3878 14.8114 31.3878C16.4159 31.3878 17.9211 31.005 18.93 30.3307C20.7 29.1824 21.163 27.3781 21.5601 25.7925L21.7586 24.9723C21.7586 24.9723 23.4623 17.3722 23.7601 16.388C23.7766 16.3332 23.7766 16.2968 23.7932 16.2786C21.4443 16.2968 20.7661 16.2786 20.5345 16.2239V16.2056ZM29.97 31.3135C28.8286 31.2952 28.4151 31.2952 27.0753 31.3681L27.0255 31.2587C27.1413 30.6936 27.2736 30.147 27.3729 29.5819L27.5383 28.8165C27.7864 27.6319 28.018 26.2284 28.0511 25.8093C28.0842 25.5541 28.1502 24.9163 27.4886 24.9163C27.2074 24.9163 26.9263 25.0619 26.6287 25.2077C26.4631 25.8457 26.1488 27.6319 25.9834 28.4338C25.6525 30.147 25.636 30.3474 25.4872 31.186L25.388 31.2952C24.2136 31.277 23.8001 31.277 22.4437 31.3499L22.3775 31.2223C22.6091 30.2016 22.8241 29.181 23.0392 28.1603C23.6016 25.4081 23.7505 24.3512 23.8992 22.9477L24.0151 22.8748C25.3384 22.6744 25.6527 22.6197 27.0917 22.3099L27.2074 22.4557L26.9925 23.3306C27.2405 23.1666 27.4721 23.0025 27.7202 22.8748C28.3984 22.5103 29.1428 22.401 29.5563 22.401C30.1848 22.401 30.8797 22.6015 31.1608 23.4035C31.4255 24.1142 31.2599 24.989 30.8961 26.7206L30.7142 27.5954C30.3503 29.5274 30.2842 29.8736 30.0856 31.1858L29.9534 31.2952L29.97 31.3135ZM34.6145 31.3182C33.9199 31.3182 33.4733 31.3001 33.0433 31.3182C32.6131 31.3182 32.1996 31.3548 31.5545 31.373L31.5214 31.3182L31.4883 31.2453C31.6702 30.5163 31.753 30.2611 31.8523 30.0059C31.9349 29.7508 32.0176 29.4956 32.1832 28.7484C32.3815 27.7824 32.5139 27.1081 32.5965 26.5066C32.6958 25.9415 32.7455 25.4497 32.8117 24.8846L32.8612 24.8481L32.9108 24.7935C33.6056 24.6842 34.0357 24.6113 34.4823 24.5384C34.9289 24.4655 35.392 24.3744 36.1033 24.2286L36.1364 24.3015L36.1529 24.3744L35.7561 26.1787C35.6238 26.7802 35.4914 27.3816 35.3757 27.9831C35.1273 29.2589 35.0117 29.7328 34.9622 30.079C34.896 30.4071 34.8792 30.5712 34.78 31.2273L34.7138 31.2819L34.6476 31.3367L34.6145 31.3182ZM41.958 26.8402C41.9084 27.1683 41.6438 28.3895 41.2964 28.8998C41.0482 29.2825 40.767 29.5195 40.4361 29.5195C40.337 29.5195 39.7744 29.5195 39.7581 28.5899C39.7581 28.1343 39.8407 27.6603 39.94 27.1501C40.2378 25.6738 40.6017 24.4527 41.5114 24.4527C42.2227 24.4527 42.2723 25.364 41.958 26.8402ZM44.9518 26.986C45.3487 25.0541 45.0346 24.1428 44.6542 23.596C44.0586 22.7576 43.0002 22.4843 41.9084 22.4843C41.2465 22.4843 39.6919 22.5572 38.4678 23.7966C37.5913 24.6896 37.1778 25.9108 36.9462 27.0772C36.6978 28.2618 36.4168 30.3943 38.2031 31.1963C38.7488 31.4514 39.5429 31.5242 40.0557 31.5242C41.3626 31.5242 42.7024 31.1234 43.7113 29.9569C44.4886 29.0092 44.836 27.5876 44.9683 26.986H44.9518ZM72.8331 31.5346C71.4436 31.5165 71.0467 31.5165 69.7728 31.5894L69.6901 31.4801C70.0375 30.0401 70.3848 28.5821 70.6991 27.124C71.096 25.2285 71.1952 24.4266 71.3277 23.3149L71.4268 23.2238C72.7999 23.0051 73.1803 22.9505 74.6194 22.6589L74.6524 22.7864C74.3877 23.9893 74.1397 25.1741 73.875 26.3587C73.3457 28.8557 73.1637 30.1315 72.9655 31.4438L72.8331 31.5531V31.5346Z" fill="#FEFEFE"/>
<path d="M70.8359 27.0832C70.7697 27.393 70.505 28.6324 70.1577 29.1427C69.9261 29.5072 69.3637 29.7442 69.0495 29.7442C68.9502 29.7442 68.4044 29.7442 68.3713 28.8329C68.3713 28.3772 68.4539 27.9033 68.5532 27.393C68.851 25.9532 69.2151 24.732 70.1246 24.732C70.8359 24.732 71.1501 25.625 70.8359 27.1014V27.0832ZM73.5652 27.2291C73.9619 25.2971 72.3411 27.0651 72.0931 26.4271C71.696 25.4246 71.9439 23.4198 70.3562 22.7455C69.7442 22.472 68.3051 22.8184 67.081 24.0578C66.2209 24.9326 65.7908 26.1536 65.5594 27.3201C65.311 28.4865 65.03 30.6374 66.7997 31.3845C67.3624 31.6578 67.875 31.7307 68.3878 31.6943C70.1745 31.5849 71.5306 28.614 72.5398 27.4476C73.3168 26.5182 73.4493 27.794 73.5652 27.2291ZM52.7953 31.3125C51.654 31.2942 51.257 31.2942 49.9172 31.3671L49.8675 31.2577C49.9834 30.6927 50.1157 30.1461 50.2313 29.581L50.3801 28.8155C50.6285 27.6309 50.8764 26.2274 50.8929 25.8083C50.926 25.5531 50.9921 24.9153 50.347 24.9153C50.0658 24.9153 49.7684 25.061 49.4871 25.2068C49.3381 25.8448 49.0072 27.6309 48.8418 28.4328C48.5275 30.1461 48.4944 30.3465 48.3456 31.185L48.2464 31.2942C47.072 31.2761 46.6585 31.2761 45.3021 31.349L45.2359 31.2213C45.4675 30.2006 45.6825 29.18 45.8976 28.1594C46.4601 25.4072 46.5925 24.3502 46.7576 22.9468L46.8569 22.8739C48.1803 22.6735 48.5112 22.6187 49.9335 22.3089L50.0495 22.4547L49.851 23.3296C50.0826 23.1656 50.3307 23.0015 50.5623 22.8739C51.2405 22.5093 51.9848 22.4 52.3981 22.4C53.0269 22.4 53.7051 22.6006 54.0026 23.4025C54.2673 24.1132 54.0856 24.9881 53.7214 26.7196L53.5395 27.5944C53.1591 29.5264 53.1096 29.8726 52.9107 31.1848L52.7787 31.2942L52.7953 31.3125ZM62.7057 16.2227L61.7463 16.241C59.2651 16.2775 58.2726 16.2592 57.8757 16.2046C57.8426 16.4052 57.7765 16.7514 57.7765 16.7514C57.7765 16.7514 56.8833 21.2714 56.8833 21.2895C56.8833 21.2895 54.766 30.9128 54.6667 31.3683C56.8336 31.3319 57.7103 31.3319 58.0907 31.3866C58.1737 30.9309 58.6697 28.2518 58.6863 28.2518C58.6863 28.2518 59.1163 26.2834 59.1331 26.2105C59.1331 26.2105 59.2651 26.0099 59.3974 25.9189H59.596C61.4652 25.9189 63.5658 25.9189 65.2202 24.5885C66.3448 23.6772 67.1058 22.3102 67.4532 20.6698C67.5358 20.2689 67.602 19.795 67.602 19.303C67.602 18.665 67.4862 18.0455 67.1554 17.5533C66.3116 16.2592 64.6409 16.241 62.7057 16.2227ZM63.9462 20.9433C63.7479 21.9456 63.1523 22.8023 62.3914 23.2033C61.7628 23.5495 61.0019 23.586 60.208 23.586H59.6952L59.7283 23.3673C59.7283 23.3673 60.6712 18.8473 60.6712 18.8656L60.7041 18.6285L60.7208 18.4463L61.1012 18.4829C61.1012 18.4829 63.053 18.665 63.0861 18.665C63.8468 18.9931 64.1778 19.8314 63.9462 20.9433ZM84.2797 22.4547L84.1642 22.3089C82.758 22.6187 82.4933 22.6735 81.2031 22.874L81.1042 22.9832C81.1042 23.0015 81.0875 23.0198 81.0875 23.0561V23.038C80.1282 25.4984 80.1445 24.9699 79.3673 26.9019C79.3673 26.8106 79.3673 26.7561 79.3505 26.6648L79.152 22.4729L79.0364 22.3271C77.5477 22.637 77.5146 22.6916 76.1582 22.8922L76.0589 23.0015C76.0423 23.0561 76.0423 23.1109 76.0423 23.1655L76.0589 23.1838C76.2243 24.1497 76.1912 23.931 76.3567 25.4438C76.4393 26.191 76.5386 26.9383 76.6212 27.6673C76.7536 28.9067 76.8364 29.5081 77.0018 31.3854C76.0752 33.062 75.8602 33.7 74.9672 35.176L75.0167 35.3219C76.3568 35.2674 76.6545 35.2674 77.6469 35.2674L77.8621 34.994C78.6063 33.2263 84.2967 22.4731 84.2967 22.4731L84.2797 22.4547ZM35.8923 23.662C36.6532 23.0788 36.7523 22.2769 36.1073 21.8577C35.4622 21.4385 34.3209 21.5661 33.5599 22.1494C32.7991 22.7144 32.7164 23.5162 33.3615 23.9536C33.99 24.3548 35.1313 24.2452 35.8923 23.662Z" fill="#FEFEFE"/>
<path d="M77.6414 35.2352L76.5329 37.3315C76.1856 38.0422 75.524 38.589 74.4984 38.589L72.7285 38.5525L73.2413 36.657H73.5886C73.7705 36.657 73.9029 36.6389 74.0021 36.5841C74.1014 36.5477 74.1513 36.4748 74.2337 36.3654L74.8955 35.2173H77.6579L77.6414 35.2352Z" fill="#FEFEFE"/>
</svg>
