<svg width="62" height="62" viewBox="0 0 62 62" fill="none" xmlns="http://www.w3.org/2000/svg">
<path fill-rule="evenodd" clip-rule="evenodd" d="M23.3092 13.8301V30.8986L20.4383 23.7758H13.965V19.1729L23.3092 13.8301Z" fill="#00DAFF"/>
<path fill-rule="evenodd" clip-rule="evenodd" d="M35.3992 6.91406V37.8793L34.3104 40.5962L31.3303 48.0252C31.1529 48.6832 30.9782 49.3412 30.8008 49.9992L26.0578 37.7186V12.2599L35.3992 6.91709V6.91406Z" fill="#00DAFF"/>
<path fill-rule="evenodd" clip-rule="evenodd" d="M47.4918 0V23.7758H41.0595L38.1476 31.032V5.34282L47.4918 0Z" fill="#00DAFF"/>
<path fill-rule="evenodd" clip-rule="evenodd" d="M47.5724 29.1792V57.2184C47.5724 58.5434 47.6352 59.3743 47.7607 59.7048C47.8863 60.0383 48.1455 60.3264 48.5358 60.5751C48.926 60.8237 49.45 60.948 50.105 60.948H50.8636V61.6545H38.6704V60.948H39.429C40.1168 60.948 40.668 60.8146 41.0828 60.5447C41.3694 60.3658 41.5986 60.0596 41.7733 59.626C41.8988 59.3197 41.9616 58.5162 41.9616 57.2153V36.5324L33.9574 50.2078C33.6954 50.2442 33.4307 50.2745 33.1659 50.2988C32.9285 50.323 32.6884 50.3412 32.4482 50.3534L32.1398 49.5559L35.0162 41.8722L35.0217 41.8843L41.3585 24.7764H50.8664V25.4829H50.1077C49.42 25.4829 48.866 25.6163 48.4539 25.8862C48.1674 26.0651 47.9381 26.3653 47.7662 26.7867C47.6407 27.093 47.5779 27.8905 47.5779 29.1792" fill="#006EFF"/>
<path fill-rule="evenodd" clip-rule="evenodd" d="M13.8941 29.1792V57.2184C13.8941 58.5434 13.8314 59.3743 13.7058 59.7048C13.5803 60.0383 13.321 60.3264 12.9308 60.5751C12.5405 60.8237 12.0166 60.948 11.3643 60.948H10.6057V61.6545H22.7989V60.948H22.0402C21.3525 60.948 20.8013 60.8146 20.3865 60.5447C20.0999 60.3658 19.8707 60.0596 19.6987 59.626C19.5732 59.3197 19.5077 58.5162 19.5077 57.2153V36.5324C22.2777 41.2748 25.0476 46.0172 27.8176 50.7566C27.9131 50.79 28.1778 50.8628 28.4917 50.7506C28.7837 50.6475 28.9556 50.4413 29.0211 50.3534C29.2312 50.2957 29.4413 50.2381 29.6542 50.1775C28.5872 47.409 27.5201 44.6406 26.4558 41.8722V41.8843L20.1136 24.7764H10.6057V25.4829H11.3643C12.052 25.4829 12.606 25.6163 13.0181 25.8862C13.3047 26.0651 13.5339 26.3653 13.7058 26.7867C13.8314 27.093 13.8941 27.8905 13.8941 29.1792Z" fill="#006EFF"/>
<path fill-rule="evenodd" clip-rule="evenodd" d="M7.09859 34.4315C7.09859 34.4315 -8.39133 56.9307 22.3484 51.7638C53.4346 46.5392 58.1995 26.4931 57.8393 23.9612C57.4872 21.4899 55.8198 16.2077 47.1169 15.9682C47.1169 15.9682 71.7927 14.6582 57.5063 34.4133C43.2199 54.1684 15.534 56.767 8.71963 56.955C1.90254 57.143 -6.10441 47.4034 7.09859 34.4315Z" fill="#00DAFF"/>
</svg>
