<svg width="39" height="40" viewBox="0 0 39 40" fill="none" xmlns="http://www.w3.org/2000/svg">
<g clip-path="url(#clip0_4386_8349)">
<path d="M17.8592 21.6113V40H0.197528L0 39.798V21.6113H17.8592ZM14.7066 24.8314H3.15255V36.7772H14.7093V24.8314H14.7066Z" fill="white"/>
<path d="M17.8592 0V18.3886H0.197528L0 18.1867V0H17.8592ZM14.7066 15.1686L14.6408 3.22272H3.15255V15.1686H14.7093H14.7066Z" fill="white"/>
<path d="M38.9999 0V18.1867L38.8024 18.3886H21.1407V0H38.9999ZM35.85 3.22272H24.3591L24.1616 3.42465V14.9694L24.3591 15.1713H35.85V3.22272Z" fill="white"/>
<path d="M28.2337 36.2414C27.0538 36.2414 25.8686 36.2414 24.6887 36.2414V39.8653H21.2754V21.7432H28.2363V25.367H35.3262V21.9451L35.5238 21.7432H38.8712V32.4156L38.6737 32.6175H31.9762L31.7786 32.4156V28.9936H24.6887V32.6175H28.2337C28.2389 33.8237 28.2284 35.0352 28.2337 36.2414C29.4136 36.2414 30.5987 36.2414 31.7786 36.2414V39.6633L31.5811 39.8653H28.4286C28.2995 39.7818 28.2574 39.6795 28.231 39.5287C28.0888 38.7399 28.2363 37.1406 28.231 36.2414H28.2337Z" fill="white"/>
<path d="M38.8709 36.2412V39.6632L38.6733 39.8651H35.5208L35.3232 39.6632V36.2412H38.8709Z" fill="white"/>
<path d="M10.7665 28.8594H7.08984V32.6179H10.7665V28.8594Z" fill="white"/>
<path d="M10.7691 11.0065H7.08984V7.44997L7.28737 7.24805H10.5716L10.7691 7.44997V11.0065Z" fill="white"/>
<path d="M31.9097 11.0063H28.1013C28.0671 10.9067 28.233 10.8448 28.233 10.8044V7.58166C28.233 7.53589 28.0013 7.43358 28.2989 7.24512H31.7122L31.9097 7.44704V11.0036V11.0063Z" fill="white"/>
</g>
<defs>
<clipPath id="clip0_4386_8349">
<rect width="39" height="40" fill="white"/>
</clipPath>
</defs>
</svg>
