<svg width="99" height="19" viewBox="0 0 99 19" fill="none" xmlns="http://www.w3.org/2000/svg">
<path d="M84.8659 14.0605L85.4955 11.9856H94.6833L95.3555 14.0605H84.8659ZM81.718 18.5898L89.113 0.460938H91.4179L98.8343 18.5898H96.38L89.7853 1.90745H90.7137L84.119 18.5898H81.718ZM67.5042 14.0605L68.1338 11.9856H77.3216L77.9938 14.0605H67.5042ZM64.3563 18.5898L71.7513 0.460938H74.0562L81.4726 18.5898H79.0182L72.4236 1.90745H73.3519L66.7573 18.5898H64.3563ZM44.5616 18.5898V0.460938H46.4824L53.8027 14.1673H52.7783L60.0132 0.460938H61.9233L61.9446 18.5898H59.7037L59.6824 4.36179H60.2266L53.792 16.3844H52.7249L46.2369 4.36179H46.8132V18.5898H44.5723H44.5616ZM27.1572 18.5898V11.6536L27.6907 13.2543L20.6692 0.460938H23.1556L29.0566 11.2624H27.7014L33.6238 0.460938H35.9394L28.9393 13.2543L29.4515 11.6536V18.5898H27.1465H27.1572ZM0.949219 18.5898V0.460938H2.86999L10.1903 14.1673H9.16588L16.3901 0.460938H18.3003L18.3216 18.5898H16.0807L16.0593 4.36179H16.6036L10.169 16.3844H9.10186L2.61389 4.36179H3.20079V18.5898H0.959884H0.949219Z" fill="white"/>
</svg>
