<svg width="90" height="16" viewBox="0 0 90 16" fill="none" xmlns="http://www.w3.org/2000/svg">
<path d="M76.5564 11.5657L77.1237 9.88308H85.402L86.0077 11.5657H76.5564ZM73.7201 15.2385L80.3831 0.537567H82.4599L89.1421 15.2385H86.9307L80.9888 1.71056H81.8253L75.8834 15.2385H73.7201ZM60.9133 11.5657L61.4805 9.88308H69.7588L70.3645 11.5657H60.9133ZM58.0769 15.2385L64.7399 0.537567H66.8167L73.4989 15.2385H71.2875L65.3457 1.71056H66.1821L60.2402 15.2385H58.0769ZM40.2416 15.2385V0.537567H41.9722L48.568 11.6522H47.6449L54.1637 0.537567H55.8848L55.904 15.2385H53.8849L53.8657 3.70082H54.356L48.5583 13.4501H47.5969L41.7511 3.70082H42.2703V15.2385H40.2512H40.2416ZM24.56 15.2385V9.61387L25.0407 10.9119L18.7142 0.537567H20.9545L26.2714 9.29658H25.0503L30.3865 0.537567H32.4729L26.1657 10.9119L26.6272 9.61387V15.2385H24.5504H24.56ZM0.946228 15.2385V0.537567H2.67687L9.27258 11.6522H8.34956L14.8587 0.537567H16.5798L16.599 15.2385H14.5799L14.5607 3.70082H15.051L9.25335 13.4501H8.29188L2.44612 3.70082H2.97493V15.2385H0.955837H0.946228Z" fill="white"/>
</svg>
