<svg width="13" height="19" viewBox="0 0 13 19" fill="none" xmlns="http://www.w3.org/2000/svg">
<path d="M6.41145 18.8033C5.17362 18.8033 3.97847 18.5899 2.84734 18.1631C1.70555 17.7481 0.819876 17.1908 0.168945 16.5268L1.03329 14.5112C1.65221 15.1159 2.45252 15.6139 3.41291 16.0051C4.3733 16.3964 5.38705 16.598 6.42213 16.598C7.37185 16.598 8.14017 16.4794 8.72707 16.2423C9.31398 16.0051 9.7515 15.6731 10.0396 15.2463C10.3171 14.8313 10.4558 14.3452 10.4558 13.8117C10.4558 13.1833 10.2744 12.6853 9.91154 12.3059C9.54873 11.9264 9.06854 11.6182 8.49231 11.3929C7.90541 11.1676 7.26516 10.9542 6.57154 10.7882C5.86726 10.6222 5.16296 10.4088 4.45867 10.1835C3.75439 9.95825 3.10346 9.64998 2.52723 9.29428C1.94032 8.93858 1.48146 8.44059 1.11865 7.82404C0.766504 7.21935 0.585097 6.42495 0.585097 5.46456C0.585097 4.50417 0.809193 3.66236 1.25738 2.87982C1.69489 2.09728 2.37781 1.46888 3.30619 0.99461C4.23457 0.520344 5.40841 0.283203 6.83832 0.283203C7.78804 0.283203 8.72707 0.42549 9.65545 0.698194C10.5838 0.982754 11.3948 1.37402 12.0778 1.89571L11.3094 3.97063C10.6158 3.44893 9.87955 3.06952 9.10057 2.84425C8.32158 2.61897 7.56395 2.50039 6.83832 2.50039C5.92061 2.50039 5.16295 2.63082 4.57604 2.89167C3.98914 3.15251 3.55163 3.49637 3.28486 3.92321C3.01808 4.3619 2.87936 4.83617 2.87936 5.38157C2.87936 6.02183 3.06077 6.53166 3.42359 6.91107C3.7864 7.29049 4.26659 7.59877 4.8535 7.81219C5.42973 8.03747 6.08065 8.23903 6.77426 8.41688C7.46788 8.59473 8.17218 8.79628 8.88713 9.02156C9.59142 9.24684 10.2317 9.54326 10.8186 9.89896C11.3948 10.2547 11.8643 10.7408 12.2272 11.3455C12.5793 11.9502 12.7607 12.7327 12.7607 13.6812C12.7607 14.6298 12.5366 15.4479 12.0884 16.2304C11.6403 17.013 10.9467 17.6532 10.0076 18.1275C9.05789 18.6018 7.88405 18.8389 6.44346 18.8389" fill="#00DAFF"/>
</svg>
