<svg width="101" height="19" viewBox="0 0 101 19" fill="none" xmlns="http://www.w3.org/2000/svg">
<path d="M92.4298 18.5898V2.70185H86.8275V0.460938H100.326V2.70185H94.7241V18.5898H92.4191H92.4298ZM75.8898 16.337H85.4083V18.5898H73.5635V0.460938H85.0775V2.70185H75.8898V16.3252V16.337ZM75.687 8.28634H84.0744V10.4917H75.687V8.28634ZM68.3667 18.5898L61.676 9.94627L63.234 8.0255L71.0878 18.5898H68.3561H68.3667ZM56.7993 18.5898V0.460938H59.1363V18.5898H56.7993ZM58.8588 14.2147L58.7415 11.0489L68.0039 0.460938H70.661L63.5007 8.85546L62.1882 10.4561L58.8588 14.2147ZM42.1801 12.1516L41.1343 10.883H46.1497C47.6436 10.883 48.7748 10.5273 49.5431 9.80399C50.3114 9.09259 50.6955 8.08477 50.6955 6.78054C50.6955 5.47631 50.3114 4.49221 49.5431 3.78081C48.7748 3.06941 47.6436 2.71371 46.1497 2.71371H41.1343L42.1801 1.42134V12.1516ZM50.7596 18.5898L46.6086 12.0093H49.1056L53.2993 18.5898H50.7596ZM39.8538 18.5898V0.460938H46.2244C47.6543 0.460938 48.8708 0.709933 49.8845 1.20791C50.8983 1.70589 51.6666 2.42915 52.2215 3.37768C52.7657 4.32622 53.0325 5.4526 53.0325 6.76869C53.0325 8.08478 52.7657 9.21117 52.2215 10.1478C51.6773 11.0964 50.8983 11.8196 49.8845 12.3176C48.8708 12.8274 47.6543 13.0764 46.2244 13.0764H41.1343L42.1801 11.8789V18.5898H39.8431H39.8538ZM23.4632 14.0605L24.0927 11.9856H33.2805L33.9527 14.0605H23.4632ZM20.3152 18.5898L27.7102 0.460938H30.0151L37.4315 18.5898H34.9772L28.3825 1.90745H29.3109L22.7162 18.5898H20.3152ZM0.520508 18.5898V0.460938H2.44127L9.76158 14.1673H8.73717L15.9721 0.460938H17.8822L17.9036 18.5898H15.6626L15.6413 4.36179H16.1855L9.75091 16.3844H8.68381L2.19585 4.36179H2.77209V18.5898H0.531173H0.520508Z" fill="#00DAFF"/>
</svg>
