<svg width="221" height="7" viewBox="0 0 221 7" fill="none" xmlns="http://www.w3.org/2000/svg">
<path d="M217.047 5.82975H220.355V6.61229H216.226V0.304536H220.238V1.08708H217.037V5.82975H217.047ZM216.973 3.03157H219.896V3.80227H216.973V3.03157ZM204.167 5.82975H205.704C206.173 5.82975 206.579 5.73489 206.92 5.53333C207.262 5.33177 207.529 5.05907 207.721 4.70337C207.913 4.34767 208.009 3.93268 208.009 3.45841C208.009 2.98415 207.913 2.56916 207.721 2.21346C207.529 1.85776 207.262 1.58506 206.92 1.3835C206.579 1.18193 206.173 1.08708 205.704 1.08708H204.167V5.82975ZM203.356 6.61229V0.304536H205.747C206.355 0.304536 206.888 0.434961 207.347 0.695808C207.806 0.956654 208.169 1.32422 208.425 1.79849C208.681 2.27275 208.809 2.81816 208.809 3.44656C208.809 4.07497 208.681 4.62037 208.425 5.09464C208.169 5.5689 207.806 5.93646 207.347 6.20917C206.888 6.47001 206.344 6.60044 205.747 6.60044H203.356V6.61229ZM194.67 6.61229V0.304536H195.481V6.61229H194.67ZM183.412 4.37138L183.049 3.93269H184.799C185.322 3.93269 185.717 3.80226 185.984 3.55327C186.251 3.30428 186.389 2.96044 186.389 2.49803C186.389 2.03562 186.261 1.70362 185.984 1.45463C185.717 1.20564 185.322 1.08708 184.799 1.08708H183.049L183.412 0.636539V4.37138ZM186.4 6.61229L184.96 4.32396H185.835L187.296 6.61229H186.411H186.4ZM182.601 6.61229V0.304536H184.821C185.322 0.304536 185.739 0.387534 186.091 0.565384C186.443 0.743234 186.71 0.992223 186.902 1.32421C187.094 1.6562 187.19 2.04747 187.19 2.50988C187.19 2.97229 187.094 3.36356 186.902 3.68369C186.71 4.01568 186.443 4.26467 186.091 4.44252C185.739 4.62037 185.312 4.70337 184.821 4.70337H183.049L183.412 4.28838V6.62414H182.601V6.61229ZM171.471 4.37138L171.109 3.92082H172.859C173.381 3.92082 173.776 3.80226 174.043 3.55327C174.31 3.30428 174.449 2.96043 174.449 2.50988C174.449 2.05932 174.321 1.71549 174.043 1.4665C173.776 1.21751 173.381 1.09895 172.859 1.09895H171.109L171.471 0.648389V4.38323V4.37138ZM170.66 6.61229V0.304536H172.88C173.381 0.304536 173.798 0.387534 174.15 0.565384C174.502 0.743234 174.769 0.992223 174.961 1.32421C175.153 1.6562 175.249 2.04747 175.249 2.50988C175.249 2.97229 175.153 3.36356 174.961 3.68369C174.769 4.01568 174.502 4.26467 174.15 4.44252C173.798 4.62037 173.371 4.70337 172.88 4.70337H171.109L171.471 4.27653V6.61229H170.66ZM151.047 4.37138L150.684 3.93269H152.434C152.957 3.93269 153.352 3.80226 153.619 3.55327C153.886 3.30428 154.024 2.96044 154.024 2.49803C154.024 2.03562 153.896 1.70362 153.619 1.45463C153.352 1.20564 152.957 1.08708 152.434 1.08708H150.684L151.047 0.636539V4.37138ZM154.035 6.61229L152.594 4.32396H153.459L154.921 6.61229H154.035ZM150.236 6.61229V0.304536H152.456C152.957 0.304536 153.373 0.387534 153.726 0.565384C154.078 0.743234 154.344 0.992223 154.537 1.32421C154.729 1.6562 154.825 2.04747 154.825 2.50988C154.825 2.97229 154.729 3.36356 154.537 3.68369C154.344 4.01568 154.078 4.26467 153.726 4.44252C153.373 4.62037 152.947 4.70337 152.456 4.70337H150.684L151.047 4.28838V6.62414H150.236V6.61229ZM140.003 6.68343C139.256 6.68343 138.669 6.4463 138.242 5.97204C137.815 5.49777 137.602 4.79823 137.602 3.89712V0.304536H138.413V3.84968C138.413 4.54923 138.551 5.07092 138.829 5.39105C139.106 5.71118 139.501 5.87718 140.013 5.87718C140.525 5.87718 140.92 5.71118 141.198 5.39105C141.475 5.07092 141.614 4.54923 141.614 3.84968V0.304536H142.404V3.89712C142.404 4.81008 142.19 5.50963 141.763 5.97204C141.336 6.4463 140.75 6.68343 139.992 6.68343H140.003ZM127.229 5.88903C127.55 5.88903 127.838 5.82976 128.104 5.71119C128.371 5.59262 128.606 5.42662 128.798 5.20134C129.001 4.98792 129.15 4.72708 129.257 4.43067C129.364 4.13425 129.428 3.81412 129.428 3.47028C129.428 3.12644 129.374 2.79444 129.257 2.50988C129.15 2.21346 128.99 1.95262 128.798 1.7392C128.595 1.51392 128.371 1.34794 128.104 1.22937C127.838 1.11081 127.55 1.05151 127.229 1.05151C126.909 1.05151 126.621 1.11081 126.354 1.22937C126.088 1.34794 125.853 1.52578 125.65 1.7392C125.447 1.96448 125.298 2.21346 125.181 2.50988C125.063 2.80629 125.01 3.12644 125.01 3.47028C125.01 3.81412 125.063 4.14611 125.181 4.43067C125.287 4.72708 125.447 4.98792 125.65 5.20134C125.853 5.42662 126.088 5.59262 126.354 5.71119C126.621 5.82976 126.909 5.88903 127.229 5.88903ZM127.229 6.68343C126.792 6.68343 126.397 6.60043 126.024 6.4463C125.65 6.2803 125.33 6.05502 125.063 5.77046C124.796 5.47404 124.583 5.14205 124.423 4.75078C124.274 4.35951 124.199 3.93269 124.199 3.47028C124.199 3.00787 124.274 2.58103 124.423 2.18976C124.572 1.79849 124.786 1.45464 125.063 1.17009C125.33 0.873668 125.65 0.64839 126.024 0.482396C126.386 0.316403 126.792 0.233398 127.229 0.233398C127.667 0.233398 128.062 0.31641 128.425 0.470546C128.787 0.63654 129.108 0.861807 129.385 1.14637C129.662 1.44278 129.865 1.77477 130.015 2.16604C130.164 2.55731 130.239 2.98415 130.239 3.45841C130.239 3.93268 130.164 4.35951 130.015 4.75078C129.865 5.14205 129.652 5.4859 129.385 5.77046C129.108 6.06688 128.798 6.29216 128.425 6.4463C128.062 6.61229 127.656 6.68343 127.229 6.68343ZM106.506 6.61229V1.08708H104.554V0.304536H109.249V1.08708H107.296V6.61229H106.496H106.506ZM95.91 6.68343C95.4725 6.68343 95.067 6.61228 94.6722 6.45815C94.2774 6.31587 93.9679 6.12617 93.7331 5.88903L94.0319 5.18949C94.2454 5.40291 94.5228 5.56891 94.8643 5.71119C95.1951 5.85347 95.5472 5.91275 95.91 5.91275C96.2408 5.91275 96.5076 5.87718 96.7104 5.78233C96.9131 5.69933 97.0625 5.58075 97.1692 5.43847C97.2652 5.29619 97.3186 5.11835 97.3186 4.9405C97.3186 4.72708 97.2546 4.54922 97.1265 4.4188C96.9985 4.28838 96.8384 4.18168 96.6357 4.09868C96.4329 4.01569 96.2088 3.94454 95.9634 3.88525C95.718 3.82597 95.4725 3.75484 95.2271 3.67184C94.9817 3.58885 94.7576 3.48212 94.5548 3.36356C94.3521 3.23313 94.192 3.06715 94.064 2.85373C93.9359 2.64031 93.8826 2.3676 93.8826 2.03562C93.8826 1.70363 93.9572 1.40722 94.1173 1.13452C94.2667 0.861813 94.5121 0.64839 94.8323 0.482396C95.1524 0.316403 95.5686 0.233398 96.0594 0.233398C96.3902 0.233398 96.721 0.280837 97.0412 0.375691C97.3613 0.470544 97.6494 0.612813 97.8842 0.790663L97.6174 1.51392C97.372 1.33607 97.1159 1.20564 96.8491 1.12265C96.5823 1.03965 96.3155 1.00409 96.0594 1.00409C95.7393 1.00409 95.4725 1.05152 95.2698 1.13452C95.067 1.22937 94.9176 1.34792 94.8216 1.4902C94.7255 1.64434 94.6829 1.81034 94.6829 2.00005C94.6829 2.22532 94.7469 2.40317 94.8749 2.53359C95.003 2.66402 95.1631 2.77073 95.3765 2.85373C95.5792 2.93673 95.8033 2.996 96.0488 3.06714C96.2942 3.12642 96.5396 3.19757 96.785 3.28057C97.0305 3.36357 97.2546 3.45841 97.4573 3.58884C97.6601 3.71926 97.8201 3.88525 97.9482 4.08681C98.0763 4.30023 98.1296 4.57294 98.1296 4.90493C98.1296 5.23691 98.0549 5.52147 97.8948 5.79418C97.7348 6.06688 97.5 6.29215 97.1692 6.45815C96.8384 6.62414 96.4329 6.70715 95.9314 6.70715L95.91 6.68343ZM84.0119 6.68343C83.2649 6.68343 82.678 6.4463 82.2512 5.97204C81.8243 5.49777 81.6109 4.79823 81.6109 3.89712V0.304536H82.4219V3.84968C82.4219 4.54923 82.5606 5.07092 82.8381 5.39105C83.1155 5.71118 83.5103 5.87718 84.0225 5.87718C84.5348 5.87718 84.9296 5.71118 85.207 5.39105C85.4845 5.07092 85.6232 4.54923 85.6232 3.84968V0.304536H86.4129V3.89712C86.4129 4.81008 86.1994 5.50963 85.7726 5.97204C85.3457 6.4463 84.7588 6.68343 84.0012 6.68343H84.0119ZM70.4064 4.37138L70.0435 3.93269H71.7936C72.3165 3.93269 72.7113 3.80226 72.9781 3.55327C73.2448 3.30428 73.3836 2.96044 73.3836 2.49803C73.3836 2.03562 73.2448 1.70362 72.9781 1.45463C72.7113 1.20564 72.3165 1.08708 71.7936 1.08708H70.0435L70.4064 0.636539V4.37138ZM73.3942 6.61229L71.9536 4.32396H72.818L74.2799 6.61229H73.3942ZM69.5953 6.61229V0.304536H71.8149C72.3165 0.304536 72.7326 0.387534 73.0848 0.565384C73.4369 0.743234 73.7037 0.992223 73.8958 1.32421C74.0878 1.6562 74.1839 2.04747 74.1839 2.50988C74.1839 2.97229 74.0878 3.36356 73.8958 3.68369C73.7037 4.01568 73.4369 4.26467 73.0848 4.44252C72.7326 4.62037 72.3058 4.70337 71.8149 4.70337H70.0435L70.4064 4.28838V6.62414H69.5953V6.61229ZM59.7887 6.61229V1.08708H57.8359V0.304536H62.5312V1.08708H60.5784V6.61229H59.778H59.7887ZM39.0443 4.37138L38.6815 3.93269H40.4315C40.9544 3.93269 41.3492 3.80226 41.616 3.55327C41.8828 3.30428 42.0215 2.96044 42.0215 2.49803C42.0215 2.03562 41.8934 1.70362 41.616 1.45463C41.3492 1.20564 40.9544 1.08708 40.4315 1.08708H38.6815L39.0443 0.636539V4.37138ZM42.0322 6.61229L40.5916 4.32396H41.4559L42.9179 6.61229H42.0322ZM38.2333 6.61229V0.304536H40.4529C40.9544 0.304536 41.3706 0.387534 41.7227 0.565384C42.0749 0.743234 42.3416 0.992223 42.5337 1.32421C42.7258 1.6562 42.8218 2.04747 42.8218 2.50988C42.8218 2.97229 42.7258 3.36356 42.5337 3.68369C42.3416 4.01568 42.0749 4.26467 41.7227 4.44252C41.3706 4.62037 40.9437 4.70337 40.4529 4.70337H38.6815L39.0443 4.28838V6.62414H38.2333V6.61229ZM27.9998 6.68343C27.2528 6.68343 26.6659 6.4463 26.2391 5.97204C25.8122 5.49777 25.5988 4.79823 25.5988 3.89712V0.304536H26.4098V3.84968C26.4098 4.54923 26.5485 5.07092 26.826 5.39105C27.1034 5.71118 27.4983 5.87718 28.0105 5.87718C28.5227 5.87718 28.9175 5.71118 29.1949 5.39105C29.4724 5.07092 29.6111 4.54923 29.6111 3.84968V0.304536H30.4008V3.89712C30.4008 4.81008 30.1874 5.50963 29.7605 5.97204C29.3337 6.4463 28.7468 6.68343 27.9891 6.68343H27.9998ZM15.2266 5.88903C15.5467 5.88903 15.8349 5.82976 16.1016 5.71119C16.3684 5.59262 16.6032 5.42662 16.7953 5.20134C16.998 4.98792 17.1474 4.72708 17.2541 4.43067C17.3608 4.13425 17.4248 3.81412 17.4248 3.47028C17.4248 3.12644 17.3715 2.79444 17.2541 2.50988C17.1474 2.21346 16.9873 1.95262 16.7953 1.7392C16.5925 1.51392 16.3684 1.34794 16.1016 1.22937C15.8349 1.11081 15.5467 1.05151 15.2266 1.05151C14.9065 1.05151 14.6184 1.11081 14.3516 1.22937C14.0848 1.34794 13.8501 1.52578 13.6473 1.7392C13.4446 1.96448 13.2952 2.21346 13.1778 2.50988C13.0604 2.80629 13.007 3.12644 13.007 3.47028C13.007 3.81412 13.0604 4.14611 13.1778 4.43067C13.2845 4.72708 13.4446 4.98792 13.6473 5.20134C13.8501 5.42662 14.0848 5.59262 14.3516 5.71119C14.6184 5.82976 14.9065 5.88903 15.2266 5.88903ZM15.2266 6.68343C14.7891 6.68343 14.3943 6.60043 14.0208 6.4463C13.6473 6.2803 13.3272 6.05502 13.0604 5.77046C12.7936 5.47404 12.5802 5.14205 12.4201 4.75078C12.2707 4.35951 12.1961 3.93269 12.1961 3.47028C12.1961 3.00787 12.2707 2.58103 12.4201 2.18976C12.5695 1.79849 12.783 1.45464 13.0604 1.17009C13.3272 0.873668 13.6473 0.64839 14.0208 0.482396C14.3836 0.316403 14.7891 0.233398 15.2266 0.233398C15.6641 0.233398 16.0589 0.31641 16.4218 0.470546C16.7846 0.63654 17.1047 0.861807 17.3822 1.14637C17.6596 1.44278 17.8624 1.77477 18.0117 2.16604C18.1611 2.55731 18.2358 2.98415 18.2358 3.45841C18.2358 3.93268 18.1611 4.35951 18.0117 4.75078C17.8624 5.14205 17.6489 5.4859 17.3822 5.77046C17.1047 6.06688 16.7952 6.29216 16.4218 6.4463C16.0589 6.61229 15.6535 6.68343 15.2266 6.68343ZM2.85893 6.61229V4.19354L3.04034 4.75078L0.59668 0.292685H1.46103L3.52053 4.05125H3.051L5.11051 0.292685H5.91083L3.47785 4.75078L3.65925 4.19354V6.61229H2.85893Z" fill="white"/>
</svg>
