<svg width="12" height="16" viewBox="0 0 12 16" fill="none" xmlns="http://www.w3.org/2000/svg">
<path d="M6.27925 15.4116C5.16395 15.4116 4.0871 15.2385 3.06794 14.8924C2.03916 14.5559 1.24116 14.104 0.654663 13.5656L1.43345 11.9311C1.99111 12.4214 2.71219 12.8252 3.57752 13.1425C4.44284 13.4598 5.35625 13.6233 6.28888 13.6233C7.14459 13.6233 7.83685 13.5271 8.36566 13.3348C8.89447 13.1425 9.28869 12.8733 9.54828 12.5272C9.79827 12.1907 9.92324 11.7965 9.92324 11.3638C9.92324 10.8542 9.75978 10.4504 9.43288 10.1427C9.10598 9.83506 8.67333 9.58507 8.15414 9.40239C7.62533 9.21971 7.04845 9.04665 6.4235 8.91205C5.78893 8.77744 5.15434 8.60438 4.51977 8.4217C3.8852 8.23902 3.2987 7.98904 2.77951 7.7006C2.2507 7.41216 1.83726 7.00833 1.51036 6.50837C1.19307 6.01802 1.02962 5.37382 1.02962 4.59503C1.02962 3.81624 1.23154 3.1336 1.63535 2.49903C2.02956 1.86446 2.64488 1.35488 3.48136 0.970291C4.31785 0.585702 5.37549 0.393402 6.66387 0.393402C7.51958 0.393402 8.36566 0.508785 9.20214 0.729923C10.0386 0.960677 10.7693 1.27796 11.3847 1.70101L10.6924 3.38358C10.0675 2.96053 9.40406 2.65287 8.70218 2.47019C8.00031 2.28751 7.31767 2.19135 6.66387 2.19135C5.837 2.19135 5.15433 2.29711 4.62552 2.50864C4.09671 2.72016 3.70251 2.999 3.46215 3.34513C3.22178 3.70087 3.09678 4.08546 3.09678 4.52774C3.09678 5.04693 3.26024 5.46036 3.58714 5.76803C3.91404 6.0757 4.3467 6.32569 4.87551 6.49876C5.39471 6.68144 5.98119 6.84488 6.60615 6.9891C7.23111 7.13332 7.86569 7.29677 8.50988 7.47945C9.14445 7.66213 9.72133 7.9025 10.2501 8.19094C10.7693 8.47939 11.1924 8.87359 11.5193 9.36394C11.8366 9.85429 12 10.4889 12 11.258C12 12.0272 11.7981 12.6906 11.3943 13.3252C10.9905 13.9598 10.3655 14.479 9.51944 14.8636C8.66373 15.2482 7.60608 15.4404 6.3081 15.4404" fill="#00DAFF"/>
</svg>
