<svg width="21" height="8" viewBox="0 0 21 8" fill="none" xmlns="http://www.w3.org/2000/svg">
<path d="M17.0589 4.17226L16.9129 4.14488L17.6842 0.979688H20.5391V1.64377H18.2136L17.8052 3.3165C17.9535 3.23891 18.1132 3.17959 18.2798 3.14079C18.4487 3.09971 18.6244 3.07917 18.8138 3.07917C19.4505 3.07917 19.9526 3.26858 20.3223 3.64968C20.6919 4.03078 20.8768 4.54653 20.8768 5.19691C20.8768 5.9363 20.6646 6.5205 20.2355 6.94724C19.8065 7.37398 19.2246 7.58849 18.4898 7.58849C18.0425 7.58849 17.6614 7.5109 17.3442 7.35572C17.027 7.20054 16.7554 6.96093 16.5341 6.63688L17.0795 6.00475C17.2255 6.29914 17.4195 6.52505 17.6637 6.68251C17.9078 6.83769 18.1885 6.91757 18.508 6.91757C18.9758 6.91757 19.3501 6.76695 19.6354 6.468C19.9183 6.16905 20.0621 5.77198 20.0621 5.2745C20.0621 4.77701 19.9161 4.42102 19.6217 4.13804C19.3273 3.85279 18.9348 3.70902 18.4441 3.70902C18.1863 3.70902 17.9421 3.74782 17.7116 3.82769C17.4788 3.90528 17.262 4.02165 17.0658 4.17683M15.1785 6.67796V7.41505H11.2625L12.6341 5.78567C12.7276 5.67842 12.8577 5.52324 13.0288 5.31786C14.0854 4.0673 14.6149 3.19327 14.6149 2.69579C14.6149 2.36033 14.4962 2.08876 14.2611 1.87653C14.0261 1.66658 13.718 1.55934 13.3346 1.55934C12.9239 1.55934 12.6067 1.67343 12.3876 1.90391C12.1685 2.13212 12.059 2.46302 12.059 2.89204V2.96735H11.331C11.331 2.94681 11.331 2.91714 11.3264 2.87835C11.3242 2.83955 11.3219 2.81217 11.3219 2.79392C11.3219 2.17776 11.4999 1.70082 11.8604 1.3608C12.2187 1.02077 12.7185 0.849609 13.3597 0.849609C14.001 0.849609 14.4848 1.00936 14.8408 1.32656C15.1968 1.64377 15.3748 2.08648 15.3748 2.65015C15.3748 3.05863 15.2538 3.48081 15.0119 3.91668C14.77 4.35255 14.3433 4.9048 13.7294 5.57344L12.7094 6.67567H15.174L15.1785 6.67796ZM8.07225 6.94952C8.54691 6.94952 8.90976 6.71674 9.15622 6.25577C9.40268 5.79252 9.52591 5.11247 9.52591 4.22019C9.52591 3.32791 9.40268 2.6433 9.15622 2.17548C8.90976 1.70994 8.54691 1.47717 8.07225 1.47717C7.59758 1.47717 7.25756 1.71679 7.00197 2.19374C6.74638 2.67297 6.61859 3.3416 6.61859 4.20193C6.61859 5.06226 6.74638 5.74232 7.00197 6.22383C7.25756 6.70763 7.61584 6.94724 8.07225 6.94724V6.94952ZM8.08366 7.58621C7.38307 7.58621 6.82853 7.28726 6.42689 6.68708C6.02297 6.0869 5.82216 5.26309 5.82216 4.21335C5.82216 3.16361 6.02297 2.34891 6.4246 1.74874C6.82396 1.15084 7.37166 0.849609 8.06768 0.849609C8.7637 0.849609 9.33194 1.144 9.7313 1.73733C10.1307 2.32838 10.3292 3.15449 10.3292 4.21335C10.3292 5.27222 10.1306 6.09375 9.73357 6.69165C9.33421 7.28726 8.78653 7.58621 8.08594 7.58621H8.08366ZM4.45748 6.67796V7.41505H0.541504L1.91301 5.78567C2.00658 5.67842 2.13665 5.52324 2.3078 5.31786C3.36439 4.0673 3.89383 3.19327 3.89383 2.69579C3.89383 2.36033 3.77516 2.08876 3.54011 1.87653C3.30506 1.66658 2.99699 1.55934 2.6136 1.55934C2.20284 1.55934 1.88563 1.67343 1.66655 1.90391C1.44747 2.13212 1.33793 2.46302 1.33793 2.89204V2.96735H0.609962C0.609962 2.94681 0.609958 2.91714 0.605394 2.87835C0.603112 2.83955 0.600839 2.81217 0.600839 2.79392C0.600839 2.17776 0.778835 1.70082 1.1394 1.3608C1.49768 1.02077 1.99745 0.849609 2.6387 0.849609C3.27996 0.849609 3.76375 1.00936 4.11975 1.32656C4.47575 1.64377 4.65375 2.08648 4.65375 2.65015C4.65375 3.05863 4.5328 3.48081 4.2909 3.91668C4.049 4.35255 3.62226 4.9048 3.00839 5.57344L1.98831 6.67567H4.45293L4.45748 6.67796Z" fill="white"/>
</svg>
