<svg width="91" height="16" viewBox="0 0 91 16" fill="none" xmlns="http://www.w3.org/2000/svg">
<path d="M83.7802 15.2385V2.35475H78.7325V0.537567H90.8951V2.35475H85.8473V15.2385H83.7706H83.7802ZM68.8774 13.4117H77.4537V15.2385H66.7813V0.537567H77.1556V2.35475H68.8774V13.4021V13.4117ZM68.6947 6.88329H76.2518V8.67163H68.6947V6.88329ZM62.099 15.2385L56.0705 8.22935L57.4743 6.67177L64.5507 15.2385H62.0894H62.099ZM51.6766 15.2385V0.537567H53.7822V15.2385H51.6766ZM53.5322 11.6907L53.4265 9.12352L61.7721 0.537567H64.1661L57.7147 7.34479L56.5321 8.64279L53.5322 11.6907ZM38.5045 10.0177L37.5622 8.98892H42.0811C43.4272 8.98892 44.4464 8.70047 45.1386 8.11397C45.8309 7.53709 46.177 6.71984 46.177 5.66222C46.177 4.6046 45.8309 3.80658 45.1386 3.22969C44.4464 2.65281 43.4272 2.36437 42.0811 2.36437H37.5622L38.5045 1.31637V10.0177ZM46.2347 15.2385L42.4946 9.90231H44.7444L48.523 15.2385H46.2347ZM36.4084 15.2385V0.537567H42.1484C43.4368 0.537567 44.5329 0.739481 45.4463 1.1433C46.3597 1.54712 47.0519 2.13362 47.5519 2.9028C48.0422 3.67197 48.2826 4.58537 48.2826 5.65261C48.2826 6.71984 48.0422 7.63325 47.5519 8.39281C47.0615 9.16199 46.3597 9.74847 45.4463 10.1523C44.5329 10.5657 43.4368 10.7676 42.1484 10.7676H37.5622L38.5045 9.79655V15.2385H36.3988H36.4084ZM21.6402 11.5657L22.2075 9.88308H30.4858L31.0915 11.5657H21.6402ZM18.8039 15.2385L25.4669 0.537567H27.5437L34.2259 15.2385H32.0145L26.0726 1.71056H26.9091L20.9672 15.2385H18.8039ZM0.968567 15.2385V0.537567H2.69921L9.29491 11.6522H8.3719L14.8907 0.537567H16.6117L16.6309 15.2385H14.6118L14.5926 3.70082H15.083L9.2853 13.4501H8.32382L2.47807 3.70082H2.99727V15.2385H0.978176H0.968567Z" fill="#00DAFF"/>
</svg>
