<svg width="199" height="6" viewBox="0 0 199 6" fill="none" xmlns="http://www.w3.org/2000/svg">
<path d="M195.654 4.7858H198.635V5.42038H194.914V0.305336H198.529V0.939911H195.644V4.7858H195.654ZM195.587 2.51673H198.221V3.14169H195.587V2.51673ZM184.049 4.7858H185.434C185.857 4.7858 186.222 4.70888 186.53 4.54543C186.837 4.38198 187.078 4.16085 187.251 3.87241C187.424 3.58396 187.51 3.24745 187.51 2.86286C187.51 2.47827 187.424 2.14175 187.251 1.85331C187.078 1.56487 186.837 1.34373 186.53 1.18028C186.222 1.01683 185.857 0.939911 185.434 0.939911H184.049V4.7858ZM183.318 5.42038V0.305336H185.472C186.02 0.305336 186.501 0.4111 186.914 0.622624C187.328 0.834148 187.655 1.13221 187.885 1.5168C188.116 1.90139 188.232 2.34367 188.232 2.85325C188.232 3.36283 188.116 3.8051 187.885 4.18969C187.655 4.57428 187.328 4.87234 186.914 5.09348C186.501 5.305 186.011 5.41077 185.472 5.41077H183.318V5.42038ZM175.492 5.42038V0.305336H176.223V5.42038H175.492ZM165.348 3.60319L165.022 3.24745H166.598C167.07 3.24745 167.425 3.14168 167.666 2.93978C167.906 2.73787 168.031 2.45904 168.031 2.08407C168.031 1.70909 167.916 1.43987 167.666 1.23797C167.425 1.03606 167.07 0.939911 166.598 0.939911H165.022L165.348 0.574562V3.60319ZM168.041 5.42038L166.743 3.56474H167.531L168.848 5.42038H168.05H168.041ZM164.618 5.42038V0.305336H166.618C167.07 0.305336 167.445 0.37264 167.762 0.516861C168.079 0.661082 168.319 0.862991 168.492 1.1322C168.666 1.40142 168.752 1.7187 168.752 2.09368C168.752 2.46865 168.666 2.78594 168.492 3.04554C168.319 3.31475 168.079 3.51666 167.762 3.66088C167.445 3.8051 167.06 3.87241 166.618 3.87241H165.022L165.348 3.53588V5.42999H164.618V5.42038ZM154.59 3.60319L154.263 3.23783H155.84C156.311 3.23783 156.666 3.14168 156.907 2.93978C157.147 2.73787 157.272 2.45903 157.272 2.09368C157.272 1.72832 157.157 1.4495 156.907 1.24759C156.666 1.04568 156.311 0.949536 155.84 0.949536H154.263L154.59 0.584171V3.6128V3.60319ZM153.859 5.42038V0.305336H155.859C156.311 0.305336 156.686 0.37264 157.003 0.516861C157.32 0.661082 157.561 0.862991 157.734 1.1322C157.907 1.40142 157.993 1.7187 157.993 2.09368C157.993 2.46865 157.907 2.78594 157.734 3.04554C157.561 3.31475 157.32 3.51666 157.003 3.66088C156.686 3.8051 156.301 3.87241 155.859 3.87241H154.263L154.59 3.52627V5.42038H153.859ZM136.187 3.60319L135.86 3.24745H137.437C137.908 3.24745 138.264 3.14168 138.504 2.93978C138.745 2.73787 138.87 2.45904 138.87 2.08407C138.87 1.70909 138.754 1.43987 138.504 1.23797C138.264 1.03606 137.908 0.939911 137.437 0.939911H135.86L136.187 0.574562V3.60319ZM138.879 5.42038L137.581 3.56474H138.36L139.677 5.42038H138.879ZM135.456 5.42038V0.305336H137.456C137.908 0.305336 138.283 0.37264 138.6 0.516861C138.918 0.661082 139.158 0.862991 139.331 1.1322C139.504 1.40142 139.591 1.7187 139.591 2.09368C139.591 2.46865 139.504 2.78594 139.331 3.04554C139.158 3.31475 138.918 3.51666 138.6 3.66088C138.283 3.8051 137.898 3.87241 137.456 3.87241H135.86L136.187 3.53588V5.42999H135.456V5.42038ZM126.236 5.47806C125.563 5.47806 125.034 5.28578 124.649 4.90119C124.265 4.5166 124.072 3.94933 124.072 3.21861V0.305336H124.803V3.18014C124.803 3.74741 124.928 4.17046 125.178 4.43006C125.428 4.68966 125.784 4.82427 126.245 4.82427C126.707 4.82427 127.063 4.68966 127.313 4.43006C127.563 4.17046 127.688 3.74741 127.688 3.18014V0.305336H128.399V3.21861C128.399 3.95894 128.207 4.52621 127.822 4.90119C127.438 5.28578 126.909 5.47806 126.226 5.47806H126.236ZM114.727 4.83388C115.015 4.83388 115.275 4.78581 115.515 4.68966C115.756 4.59352 115.967 4.4589 116.14 4.27622C116.323 4.10316 116.458 3.89164 116.554 3.65127C116.65 3.4109 116.708 3.15131 116.708 2.87248C116.708 2.59365 116.66 2.32443 116.554 2.09368C116.458 1.85331 116.313 1.64179 116.14 1.46872C115.958 1.28604 115.756 1.15145 115.515 1.0553C115.275 0.959151 115.015 0.911068 114.727 0.911068C114.439 0.911068 114.179 0.959151 113.939 1.0553C113.698 1.15145 113.487 1.29566 113.304 1.46872C113.121 1.6514 112.987 1.85331 112.881 2.09368C112.775 2.33404 112.727 2.59365 112.727 2.87248C112.727 3.15131 112.775 3.42052 112.881 3.65127C112.977 3.89164 113.121 4.10316 113.304 4.27622C113.487 4.4589 113.698 4.59352 113.939 4.68966C114.179 4.78581 114.439 4.83388 114.727 4.83388ZM114.727 5.47806C114.333 5.47806 113.977 5.41076 113.64 5.28577C113.304 5.15116 113.016 4.96848 112.775 4.73772C112.535 4.49736 112.343 4.22814 112.198 3.91086C112.064 3.59357 111.996 3.24745 111.996 2.87248C111.996 2.49751 112.064 2.15137 112.198 1.83409C112.333 1.5168 112.525 1.23797 112.775 1.00722C113.016 0.766853 113.304 0.584172 113.64 0.449566C113.967 0.31496 114.333 0.24765 114.727 0.24765C115.121 0.24765 115.477 0.314965 115.804 0.439956C116.131 0.574562 116.419 0.757235 116.669 0.987988C116.919 1.22836 117.102 1.49757 117.236 1.81485C117.371 2.13214 117.438 2.47827 117.438 2.86286C117.438 3.24745 117.371 3.59357 117.236 3.91086C117.102 4.22814 116.909 4.50697 116.669 4.73772C116.419 4.97809 116.14 5.16078 115.804 5.28577C115.477 5.42038 115.112 5.47806 114.727 5.47806ZM96.0552 5.42038V0.939911H94.2957V0.305336H98.5261V0.939911H96.7667V5.42038H96.0455H96.0552ZM86.5077 5.47806C86.1135 5.47806 85.7482 5.42037 85.3924 5.29538C85.0367 5.18 84.7579 5.02617 84.5463 4.83388L84.8156 4.26661C85.0079 4.43968 85.2578 4.57429 85.5655 4.68966C85.8636 4.80504 86.1808 4.85311 86.5077 4.85311C86.8058 4.85311 87.0462 4.82427 87.2288 4.74735C87.4115 4.68005 87.5461 4.58389 87.6423 4.46851C87.7288 4.35314 87.7769 4.20892 87.7769 4.0647C87.7769 3.89163 87.7192 3.74741 87.6038 3.64165C87.4884 3.53588 87.3442 3.44936 87.1615 3.38206C86.9789 3.31476 86.777 3.25706 86.5558 3.20899C86.3347 3.16091 86.1135 3.10323 85.8924 3.03593C85.6713 2.96863 85.4693 2.88208 85.2867 2.78594C85.104 2.68017 84.9598 2.54558 84.8444 2.37251C84.729 2.19945 84.681 1.9783 84.681 1.70909C84.681 1.43988 84.7482 1.19952 84.8925 0.978379C85.0271 0.75724 85.2482 0.584172 85.5367 0.449566C85.8251 0.31496 86.2001 0.24765 86.6423 0.24765C86.9404 0.24765 87.2385 0.286119 87.5269 0.363037C87.8153 0.439955 88.0749 0.555322 88.2865 0.699543L88.0461 1.28604C87.825 1.14182 87.5942 1.03606 87.3538 0.968754C87.1135 0.901451 86.8731 0.872616 86.6423 0.872616C86.3539 0.872616 86.1135 0.911075 85.9309 0.978379C85.7482 1.0553 85.6136 1.15143 85.527 1.26681C85.4405 1.3918 85.4021 1.52641 85.4021 1.68025C85.4021 1.86293 85.4597 2.00715 85.5751 2.11291C85.6905 2.21867 85.8347 2.30521 86.027 2.37251C86.2097 2.43981 86.4116 2.48788 86.6327 2.54557C86.8539 2.59364 87.075 2.65134 87.2961 2.71864C87.5173 2.78594 87.7192 2.86286 87.9019 2.96862C88.0846 3.07438 88.2288 3.20899 88.3442 3.37244C88.4595 3.5455 88.5076 3.76664 88.5076 4.03585C88.5076 4.30507 88.4403 4.53582 88.2961 4.75696C88.1519 4.9781 87.9403 5.16077 87.6423 5.29538C87.3442 5.42999 86.9789 5.4973 86.527 5.4973L86.5077 5.47806ZM75.7873 5.47806C75.1143 5.47806 74.5855 5.28578 74.2009 4.90119C73.8163 4.5166 73.624 3.94933 73.624 3.21861V0.305336H74.3547V3.18014C74.3547 3.74741 74.4797 4.17046 74.7297 4.43006C74.9797 4.68966 75.3354 4.82427 75.7969 4.82427C76.2584 4.82427 76.6142 4.68966 76.8642 4.43006C77.1142 4.17046 77.2391 3.74741 77.2391 3.18014V0.305336H77.9506V3.21861C77.9506 3.95894 77.7583 4.52621 77.3738 4.90119C76.9892 5.28578 76.4604 5.47806 75.7777 5.47806H75.7873ZM63.5286 3.60319L63.2016 3.24745H64.7785C65.2496 3.24745 65.6053 3.14168 65.8457 2.93978C66.0861 2.73787 66.2111 2.45904 66.2111 2.08407C66.2111 1.70909 66.0861 1.43987 65.8457 1.23797C65.6053 1.03606 65.2496 0.939911 64.7785 0.939911H63.2016L63.5286 0.574562V3.60319ZM66.2207 5.42038L64.9227 3.56474H65.7015L67.0187 5.42038H66.2207ZM62.7978 5.42038V0.305336H64.7977C65.2496 0.305336 65.6246 0.37264 65.9418 0.516861C66.2591 0.661082 66.4995 0.862991 66.6726 1.1322C66.8456 1.40142 66.9322 1.7187 66.9322 2.09368C66.9322 2.46865 66.8456 2.78594 66.6726 3.04554C66.4995 3.31475 66.2591 3.51666 65.9418 3.66088C65.6246 3.8051 65.24 3.87241 64.7977 3.87241H63.2016L63.5286 3.53588V5.42999H62.7978V5.42038ZM53.9619 5.42038V0.939911H52.2024V0.305336H56.4329V0.939911H54.6734V5.42038H53.9523H53.9619ZM35.2709 3.60319L34.944 3.24745H36.5208C36.9919 3.24745 37.3477 3.14168 37.588 2.93978C37.8284 2.73787 37.9534 2.45904 37.9534 2.08407C37.9534 1.70909 37.838 1.43987 37.588 1.23797C37.3477 1.03606 36.9919 0.939911 36.5208 0.939911H34.944L35.2709 0.574562V3.60319ZM37.963 5.42038L36.665 3.56474H37.4438L38.761 5.42038H37.963ZM34.5402 5.42038V0.305336H36.54C36.9919 0.305336 37.3669 0.37264 37.6842 0.516861C38.0015 0.661082 38.2418 0.862991 38.4149 1.1322C38.588 1.40142 38.6745 1.7187 38.6745 2.09368C38.6745 2.46865 38.588 2.78594 38.4149 3.04554C38.2418 3.31475 38.0015 3.51666 37.6842 3.66088C37.3669 3.8051 36.9823 3.87241 36.54 3.87241H34.944L35.2709 3.53588V5.42999H34.5402V5.42038ZM25.3196 5.47806C24.6466 5.47806 24.1178 5.28578 23.7332 4.90119C23.3486 4.5166 23.1563 3.94933 23.1563 3.21861V0.305336H23.887V3.18014C23.887 3.74741 24.012 4.17046 24.262 4.43006C24.512 4.68966 24.8677 4.82427 25.3292 4.82427C25.7908 4.82427 26.1465 4.68966 26.3965 4.43006C26.6465 4.17046 26.7715 3.74741 26.7715 3.18014V0.305336H27.483V3.21861C27.483 3.95894 27.2907 4.52621 26.9061 4.90119C26.5215 5.28578 25.9927 5.47806 25.31 5.47806H25.3196ZM13.8108 4.83388C14.0993 4.83388 14.3588 4.78581 14.5992 4.68966C14.8396 4.59352 15.0511 4.4589 15.2242 4.27622C15.4069 4.10316 15.5415 3.89164 15.6376 3.65127C15.7338 3.4109 15.7914 3.15131 15.7914 2.87248C15.7914 2.59365 15.7434 2.32443 15.6376 2.09368C15.5415 1.85331 15.3972 1.64179 15.2242 1.46872C15.0415 1.28604 14.8396 1.15145 14.5992 1.0553C14.3588 0.959151 14.0993 0.911068 13.8108 0.911068C13.5224 0.911068 13.2628 0.959151 13.0224 1.0553C12.782 1.15145 12.5705 1.29566 12.3878 1.46872C12.2052 1.6514 12.0706 1.85331 11.9648 2.09368C11.859 2.33404 11.8109 2.59365 11.8109 2.87248C11.8109 3.15131 11.859 3.42052 11.9648 3.65127C12.0609 3.89164 12.2052 4.10316 12.3878 4.27622C12.5705 4.4589 12.782 4.59352 13.0224 4.68966C13.2628 4.78581 13.5224 4.83388 13.8108 4.83388ZM13.8108 5.47806C13.4166 5.47806 13.0609 5.41076 12.7243 5.28577C12.3878 5.15116 12.0994 4.96848 11.859 4.73772C11.6187 4.49736 11.4264 4.22814 11.2821 3.91086C11.1475 3.59357 11.0802 3.24745 11.0802 2.87248C11.0802 2.49751 11.1475 2.15137 11.2821 1.83409C11.4167 1.5168 11.609 1.23797 11.859 1.00722C12.0994 0.766853 12.3878 0.584172 12.7243 0.449566C13.0512 0.31496 13.4166 0.24765 13.8108 0.24765C14.205 0.24765 14.5608 0.314965 14.8877 0.439956C15.2146 0.574562 15.503 0.757235 15.753 0.987988C16.003 1.22836 16.1857 1.49757 16.3203 1.81485C16.4549 2.13214 16.5222 2.47827 16.5222 2.86286C16.5222 3.24745 16.4549 3.59357 16.3203 3.91086C16.1857 4.22814 15.9934 4.50697 15.753 4.73772C15.503 4.97809 15.2242 5.16078 14.8877 5.28577C14.5608 5.42038 14.1954 5.47806 13.8108 5.47806ZM2.66735 5.42038V3.45898L2.8308 3.91086L0.629028 0.295727H1.40782L3.26346 3.34359H2.84041L4.69605 0.295727H5.41716L3.225 3.91086L3.38845 3.45898V5.42038H2.66735Z" fill="white"/>
</svg>
